STARTFONT 2.1
COMMENT
COMMENT Converted from OpenType font "montserrat_regular.ttf" by "otf2bdf 3.0".
COMMENT
FONT -FreeType-Montserrat Thin-Medium-R-Normal--55-400-100-100-P-276-ISO10646-1
SIZE 40 100 100
FONTBOUNDINGBOX 94 71 -9 -14
STARTPROPERTIES 19
FOUNDRY "FreeType"
FAMILY_NAME "Montserrat Thin"
WEIGHT_NAME "Medium"
SLANT "R"
SETWIDTH_NAME "Normal"
ADD_STYLE_NAME ""
PIXEL_SIZE 55
POINT_SIZE 400
RESOLUTION_X 100
RESOLUTION_Y 100
SPACING "P"
AVERAGE_WIDTH 276
CHARSET_REGISTRY "ISO10646"
CHARSET_ENCODING "1"
FONT_ASCENT 54
FONT_DESCENT 14
COPYRIGHT "Copyright 2011 The Montserrat Project Authors (https://github.com/JulietaUla/Montserrat)"
_OTF_FONTFILE "montserrat_regular.ttf"
_OTF_PSNAME "Montserrat-Thin"
ENDPROPERTIES
CHARS 969
STARTCHAR 0000
ENCODING 0
SWIDTH 0 0
DWIDTH 0 0
BBX 0 0 0 0
BITMAP
ENDCHAR
STARTCHAR 000D
ENCODING 13
SWIDTH 234 0
DWIDTH 13 0
BBX 0 0 0 0
BITMAP
ENDCHAR
STARTCHAR 0020
ENCODING 32
SWIDTH 234 0
DWIDTH 13 0
BBX 0 0 0 0
BITMAP
ENDCHAR
STARTCHAR 0021
ENCODING 33
SWIDTH 234 0
DWIDTH 13 0
BBX 3 39 5 0
BITMAP
40
40
40
40
40
40
40
40
40
40
40
40
40
40
40
40
40
40
40
40
40
40
40
40
40
40
40
40
40
00
00
00
00
00
00
00
40
E0
60
ENDCHAR
STARTCHAR 0022
ENCODING 34
SWIDTH 324 0
DWIDTH 18 0
BBX 9 14 5 25
BITMAP
8080
8080
8080
8080
8080
8080
8080
8080
8080
8080
8080
8080
8080
8080
ENDCHAR
STARTCHAR 0023
ENCODING 35
SWIDTH 666 0
DWIDTH 37 0
BBX 34 39 2 0
BITMAP
0018002000
0018002000
0010002000
0010002000
0010006000
0010004000
0010004000
0010004000
0010004000
0030004000
0020004000
0020004000
3FFFFFFFC0
0020008000
0020008000
0020008000
0020008000
0060008000
0040008000
0040008000
0040018000
0040018000
0040010000
0040010000
0040010000
00C0010000
FFFFFFFF00
0080010000
0080030000
0080030000
0080020000
0080020000
0080020000
0180020000
0100020000
0100020000
0100020000
0100060000
0100040000
ENDCHAR
STARTCHAR 0024
ENCODING 36
SWIDTH 594 0
DWIDTH 33 0
BBX 27 53 3 -7
BITMAP
00040000
00040000
00040000
00040000
00040000
00040000
00040000
007FE000
01C43C00
06040300
080400C0
10040000
30040000
20040000
20040000
60040000
40040000
40040000
60040000
20040000
20040000
10040000
18040000
0C040000
03840000
00F40000
000F0000
0005E000
00041C00
00040300
00040180
000400C0
00040040
00040020
00040020
00040020
00040020
00040020
00040020
00040060
C0040040
600400C0
30040180
0C040300
03841C00
007FE000
00040000
00040000
00040000
00040000
00040000
00040000
00040000
ENDCHAR
STARTCHAR 0025
ENCODING 37
SWIDTH 792 0
DWIDTH 44 0
BBX 39 39 3 0
BITMAP
07E0000080
1C18000100
300C000200
2006000200
4002000400
4003000800
8001000800
8001001000
8001002000
8001006000
8001004000
8001008000
8001018000
8001010000
8001020000
4002060000
4002040000
2004080000
100C180700
0C301038E0
03C0206030
000060C018
0000418008
0000810004
0001010004
0001030004
0002020006
0004020002
000C020002
0008020002
0010020006
0030020004
0020010004
0040010004
00C0010008
0080008008
0100004010
0300003060
0200001FC0
ENDCHAR
STARTCHAR 0026
ENCODING 38
SWIDTH 630 0
DWIDTH 35 0
BBX 32 39 3 -1
BITMAP
003F8000
00C06000
01801000
03001800
02000800
06000800
04000800
04000800
04000800
06000800
02001800
02001000
01002000
0180C000
00C18000
00460000
002C0000
00300000
00680000
01840000
02020000
0C030000
18018000
3000C008
20006008
40003010
40001810
80000810
80000420
80000220
80000160
800000C0
400000C0
400001E0
20000330
30000618
18000C0C
06007006
01FF8003
ENDCHAR
STARTCHAR 0027
ENCODING 39
SWIDTH 180 0
DWIDTH 10 0
BBX 1 14 5 25
BITMAP
80
80
80
80
80
80
80
80
80
80
80
80
80
80
ENDCHAR
STARTCHAR 0028
ENCODING 40
SWIDTH 306 0
DWIDTH 17 0
BBX 7 52 7 -11
BITMAP
02
04
04
08
08
10
10
10
20
20
20
40
40
40
40
40
C0
80
80
80
80
80
80
80
80
80
80
80
80
80
80
80
80
80
80
40
40
40
40
40
20
20
20
20
10
10
10
08
08
04
04
02
ENDCHAR
STARTCHAR 0029
ENCODING 41
SWIDTH 306 0
DWIDTH 17 0
BBX 7 52 3 -11
BITMAP
40
40
20
20
10
10
10
08
08
08
04
04
04
04
04
02
02
02
02
02
02
02
02
02
02
02
02
02
02
02
02
02
02
02
02
02
02
04
04
04
04
08
08
08
08
10
10
20
20
40
40
80
ENDCHAR
STARTCHAR 002A
ENCODING 42
SWIDTH 342 0
DWIDTH 19 0
BBX 17 19 1 22
BITMAP
008000
008000
008000
008000
408080
708300
188600
069800
01E000
01C000
03B000
0C8C00
308300
E08180
008000
008000
008000
008000
008000
ENDCHAR
STARTCHAR 002B
ENCODING 43
SWIDTH 558 0
DWIDTH 31 0
BBX 23 23 4 8
BITMAP
001000
001000
001000
001000
001000
001000
001000
001000
001000
001000
001000
FFFFFE
001000
001000
001000
001000
001000
001000
001000
001000
001000
001000
001000
ENDCHAR
STARTCHAR 002C
ENCODING 44
SWIDTH 180 0
DWIDTH 10 0
BBX 3 11 3 -8
BITMAP
20
60
60
20
20
20
60
40
40
40
C0
ENDCHAR
STARTCHAR 002D
ENCODING 45
SWIDTH 378 0
DWIDTH 21 0
BBX 14 1 4 14
BITMAP
FFFC
ENDCHAR
STARTCHAR 002E
ENCODING 46
SWIDTH 180 0
DWIDTH 10 0
BBX 2 3 4 0
BITMAP
40
C0
C0
ENDCHAR
STARTCHAR 002F
ENCODING 47
SWIDTH 288 0
DWIDTH 16 0
BBX 19 53 -1 -6
BITMAP
000020
000020
000060
000040
000040
000080
000080
000080
000100
000100
000100
000200
000200
000200
000400
000400
000C00
000800
000800
001800
001000
001000
003000
002000
002000
004000
004000
004000
008000
008000
008000
010000
010000
010000
020000
020000
060000
040000
040000
0C0000
080000
080000
180000
100000
100000
200000
200000
200000
400000
400000
400000
800000
800000
ENDCHAR
STARTCHAR 0030
ENCODING 48
SWIDTH 648 0
DWIDTH 36 0
BBX 30 39 3 0
BITMAP
001FE000
00701C00
01800600
03000100
04000080
0C000040
08000060
10000020
30000010
20000010
20000018
40000008
40000008
40000008
4000000C
C0000004
C0000004
80000004
80000004
80000004
80000004
80000004
80000004
C0000004
4000000C
40000008
40000008
40000008
20000018
20000010
30000010
10000020
18000060
08000040
04000080
03000100
01800600
00E01C00
001FE000
ENDCHAR
STARTCHAR 0031
ENCODING 49
SWIDTH 342 0
DWIDTH 19 0
BBX 11 39 1 0
BITMAP
FFE0
0020
0020
0020
0020
0020
0020
0020
0020
0020
0020
0020
0020
0020
0020
0020
0020
0020
0020
0020
0020
0020
0020
0020
0020
0020
0020
0020
0020
0020
0020
0020
0020
0020
0020
0020
0020
0020
0020
ENDCHAR
STARTCHAR 0032
ENCODING 50
SWIDTH 540 0
DWIDTH 30 0
BBX 26 39 2 0
BITMAP
01FF8000
0F00E000
38001800
60000C00
C0000600
80000200
00000100
00000100
00000100
00000100
00000100
00000100
00000100
00000100
00000200
00000200
00000400
00000C00
00000800
00001000
00002000
00004000
00008000
00010000
00020000
00040000
00080000
00100000
00200000
00400000
00800000
01000000
03000000
06000000
0C000000
18000000
30000000
60000000
FFFFFFC0
ENDCHAR
STARTCHAR 0033
ENCODING 51
SWIDTH 540 0
DWIDTH 30 0
BBX 26 39 1 0
BITMAP
7FFFFF80
00000100
00000300
00000600
00000400
00000800
00001800
00003000
00002000
00004000
0000C000
00018000
00010000
00020000
00040000
000C0000
00080000
00180000
001FE000
00001C00
00000600
00000300
00000180
00000080
000000C0
00000040
00000040
00000040
00000040
00000040
00000040
00000040
00000080
80000080
40000100
30000300
1C000600
07003800
00FFE000
ENDCHAR
STARTCHAR 0034
ENCODING 52
SWIDTH 630 0
DWIDTH 35 0
BBX 32 39 3 0
BITMAP
00000400
00000C00
00001800
00001000
00002000
00004000
0000C000
00018000
00010000
00020000
00040000
00080000
00180000
00300000
00200000
00400000
00800200
01000200
03000200
06000200
04000200
08000200
10000200
20000200
60000200
C0000200
FFFFFFFF
00000200
00000200
00000200
00000200
00000200
00000200
00000200
00000200
00000200
00000200
00000200
00000200
ENDCHAR
STARTCHAR 0035
ENCODING 53
SWIDTH 540 0
DWIDTH 30 0
BBX 26 39 2 0
BITMAP
0FFFFF00
08000000
08000000
08000000
08000000
08000000
08000000
18000000
10000000
10000000
10000000
10000000
10000000
10000000
10000000
30000000
20000000
3FFF0000
0000F000
00001C00
00000600
00000300
00000180
00000080
00000080
00000040
00000040
00000040
00000040
00000040
00000040
00000080
00000080
80000180
C0000100
20000200
18000C00
07003800
00FFC000
ENDCHAR
STARTCHAR 0036
ENCODING 54
SWIDTH 576 0
DWIDTH 32 0
BBX 28 39 3 0
BITMAP
000FFC00
00780380
00C00080
03000000
06000000
0C000000
08000000
10000000
30000000
20000000
20000000
40000000
40000000
40000000
40000000
C0000000
C0038000
807FF800
81C00600
83000100
84000080
88000040
D8000060
D0000020
50000020
60000030
60000010
60000010
60000010
20000010
30000030
10000020
10000020
08000040
040000C0
06000180
01000300
00E00C00
003FF000
ENDCHAR
STARTCHAR 0037
ENCODING 55
SWIDTH 558 0
DWIDTH 31 0
BBX 27 39 2 0
BITMAP
FFFFFFE0
80000060
80000040
80000040
80000080
80000080
80000100
80000100
80000300
00000200
00000600
00000400
00000C00
00000800
00000800
00001000
00001000
00002000
00002000
00006000
00004000
0000C000
00008000
00018000
00010000
00010000
00020000
00020000
00040000
00040000
000C0000
00080000
00180000
00100000
00300000
00200000
00600000
00400000
00400000
ENDCHAR
STARTCHAR 0038
ENCODING 56
SWIDTH 612 0
DWIDTH 34 0
BBX 29 39 3 0
BITMAP
007FE000
01C01C00
06000700
0C000180
100000C0
30000040
20000060
20000020
60000020
60000020
60000020
20000020
20000020
30000040
100000C0
08000180
06000300
03800C00
007FF000
01E03C00
06000300
18000080
30000040
60000020
40000030
40000010
80000010
80000018
80000018
80000018
80000010
C0000010
40000010
60000020
20000060
180000C0
0C000380
03800E00
00FFF000
ENDCHAR
STARTCHAR 0039
ENCODING 57
SWIDTH 576 0
DWIDTH 32 0
BBX 28 39 2 0
BITMAP
00FF8000
03807000
0C001800
18000400
30000200
20000100
40000180
40000080
C00000C0
80000040
80000040
80000060
80000060
80000060
C00000A0
400000A0
40000120
20000130
30000230
18000C30
06001830
03E3E030
001C0020
00000020
00000020
00000020
00000020
00000060
00000040
00000040
000000C0
00000080
00000100
00000300
00000600
00000C00
10003800
1C00E000
07FF0000
ENDCHAR
STARTCHAR 003A
ENCODING 58
SWIDTH 180 0
DWIDTH 10 0
BBX 2 29 4 0
BITMAP
C0
C0
C0
00
00
00
00
00
00
00
00
00
00
00
00
00
00
00
00
00
00
00
00
00
00
00
40
C0
C0
ENDCHAR
STARTCHAR 003B
ENCODING 59
SWIDTH 180 0
DWIDTH 10 0
BBX 3 37 3 -8
BITMAP
60
60
60
00
00
00
00
00
00
00
00
00
00
00
00
00
00
00
00
00
00
00
00
00
00
00
20
60
60
20
20
20
60
40
40
40
C0
ENDCHAR
STARTCHAR 003C
ENCODING 60
SWIDTH 558 0
DWIDTH 31 0
BBX 23 19 4 10
BITMAP
00000E
000038
0000E0
000700
001C00
00E000
038000
0C0000
700000
C00000
700000
1C0000
038000
00E000
001800
000700
0001C0
000038
00000E
ENDCHAR
STARTCHAR 003D
ENCODING 61
SWIDTH 558 0
DWIDTH 31 0
BBX 23 13 4 13
BITMAP
FFFFFE
000000
000000
000000
000000
000000
000000
000000
000000
000000
000000
000000
FFFFFE
ENDCHAR
STARTCHAR 003E
ENCODING 62
SWIDTH 558 0
DWIDTH 31 0
BBX 23 20 4 10
BITMAP
E00000
380000
070000
01C000
007000
000E00
000380
000070
00001C
000002
00001C
000070
000180
000E00
003800
01C000
070000
380000
E00000
800000
ENDCHAR
STARTCHAR 003F
ENCODING 63
SWIDTH 540 0
DWIDTH 30 0
BBX 24 39 2 0
BITMAP
01FF80
0E00E0
300018
40000C
800004
000002
000002
000001
000001
000001
000001
000003
000002
000002
000006
000004
000008
000010
000060
0000C0
000180
000300
000200
000400
000400
000800
000800
000800
000800
000000
000000
000000
000000
000000
000000
000000
000800
001C00
001C00
ENDCHAR
STARTCHAR 0040
ENCODING 64
SWIDTH 1026 0
DWIDTH 57 0
BBX 51 50 3 -11
BITMAP
00000FFF000000
0000F001E00000
000380001C0000
000C0000070000
00300000018000
00600000006000
00800000003000
01000000001800
02000000000C00
06000000000400
0C0003F8020200
08001E0F020300
10007001820100
1000C000620180
20018000320080
200300001200C0
600200000A0040
40040000060040
40040000060040
40080000060060
40080000020020
C0080000020020
80080000020020
80180000020020
80180000020020
80180000020020
80080000020020
C0080000020020
C0080000020020
40080000060020
400C0000060060
40040000060040
400600000A0040
200300001A0040
20010000320080
3000C000630080
10006000C10100
18001807018600
080007FC007C00
0C000000000000
06000000000000
02000000000000
01000000000000
00C00000000000
00600000000000
00380000000000
000C0000000000
00038000700000
0000FC07C00000
00000FFC000000
ENDCHAR
STARTCHAR 0041
ENCODING 65
SWIDTH 684 0
DWIDTH 38 0
BBX 37 39 1 0
BITMAP
0000600000
0000600000
0000D00000
0000900000
0000980000
0001080000
00010C0000
0002040000
0002060000
0004020000
0004030000
000C010000
0008010000
0018008000
0010008000
0030004000
0020004000
0060006000
0040002000
0040003000
0080001000
0080001800
0100000800
0100000C00
0300000400
0200000400
07FFFFFE00
0400000200
0C00000100
0800000100
1800000080
1000000080
10000000C0
2000000040
2000000060
4000000020
4000000030
8000000010
8000000018
ENDCHAR
STARTCHAR 0042
ENCODING 66
SWIDTH 738 0
DWIDTH 41 0
BBX 31 39 7 0
BITMAP
FFFFF000
C0000E00
C0000180
C0000040
C0000020
C0000010
C0000010
C0000018
C0000008
C0000008
C0000008
C0000008
C0000018
C0000010
C0000010
C0000020
C0000040
C0000180
C0001E00
FFFFFF00
C00001C0
C0000030
C0000018
C000000C
C0000004
C0000004
C0000002
C0000002
C0000002
C0000002
C0000002
C0000002
C0000004
C0000004
C0000008
C0000010
C0000060
C00003C0
FFFFFE00
ENDCHAR
STARTCHAR 0043
ENCODING 67
SWIDTH 702 0
DWIDTH 39 0
BBX 33 39 3 0
BITMAP
0001FF8000
000F007000
0038000C00
00E0000300
0180000180
0300000000
0600000000
0C00000000
0800000000
1000000000
3000000000
2000000000
6000000000
4000000000
4000000000
4000000000
C000000000
8000000000
8000000000
8000000000
8000000000
8000000000
C000000000
4000000000
4000000000
4000000000
6000000000
2000000000
3000000000
1000000000
1800000000
0C00000000
0600000000
0300000000
0180000180
00C0000300
0030000E00
000E007800
0001FFC000
ENDCHAR
STARTCHAR 0044
ENCODING 68
SWIDTH 810 0
DWIDTH 45 0
BBX 36 39 7 0
BITMAP
FFFFE00000
C0001E0000
C00001C000
C000006000
C000001800
C000000C00
C000000600
C000000300
C000000100
C000000080
C0000000C0
C000000040
C000000040
C000000020
C000000020
C000000020
C000000020
C000000030
C000000030
C000000030
C000000030
C000000030
C000000020
C000000020
C000000020
C000000020
C000000040
C000000040
C0000000C0
C000000080
C000000100
C000000300
C000000600
C000000C00
C000001800
C000007000
C00001C000
C0000F0000
FFFFF00000
ENDCHAR
STARTCHAR 0045
ENCODING 69
SWIDTH 666 0
DWIDTH 37 0
BBX 26 39 7 0
BITMAP
FFFFFF80
C0000000
C0000000
C0000000
C0000000
C0000000
C0000000
C0000000
C0000000
C0000000
C0000000
C0000000
C0000000
C0000000
C0000000
C0000000
C0000000
C0000000
C0000000
FFFFFE00
C0000000
C0000000
C0000000
C0000000
C0000000
C0000000
C0000000
C0000000
C0000000
C0000000
C0000000
C0000000
C0000000
C0000000
C0000000
C0000000
C0000000
C0000000
FFFFFFC0
ENDCHAR
STARTCHAR 0046
ENCODING 70
SWIDTH 612 0
DWIDTH 34 0
BBX 25 39 7 0
BITMAP
FFFFFF80
C0000000
C0000000
C0000000
C0000000
C0000000
C0000000
C0000000
C0000000
C0000000
C0000000
C0000000
C0000000
C0000000
C0000000
C0000000
C0000000
C0000000
C0000000
C0000000
FFFFFE00
C0000000
C0000000
C0000000
C0000000
C0000000
C0000000
C0000000
C0000000
C0000000
C0000000
C0000000
C0000000
C0000000
C0000000
C0000000
C0000000
C0000000
C0000000
ENDCHAR
STARTCHAR 0047
ENCODING 71
SWIDTH 774 0
DWIDTH 43 0
BBX 34 39 3 0
BITMAP
0001FF8000
000F007800
0038000E00
0060000300
0180000080
0300000000
0600000000
0C00000000
0800000000
1000000000
3000000000
2000000000
6000000000
4000000000
4000000000
4000000000
C000000000
8000000000
8000000000
8000000000
8000000040
8000000040
C000000040
4000000040
4000000040
4000000040
6000000040
2000000040
3000000040
1000000040
1800000040
0C00000040
0600000040
0300000040
0180000080
00C0000300
0030000600
000E003800
0001FFC000
ENDCHAR
STARTCHAR 0048
ENCODING 72
SWIDTH 810 0
DWIDTH 45 0
BBX 31 39 7 0
BITMAP
C0000002
C0000002
C0000002
C0000002
C0000002
C0000002
C0000002
C0000002
C0000002
C0000002
C0000002
C0000002
C0000002
C0000002
C0000002
C0000002
C0000002
C0000002
C0000002
FFFFFFFE
C0000002
C0000002
C0000002
C0000002
C0000002
C0000002
C0000002
C0000002
C0000002
C0000002
C0000002
C0000002
C0000002
C0000002
C0000002
C0000002
C0000002
C0000002
C0000002
ENDCHAR
STARTCHAR 0049
ENCODING 73
SWIDTH 270 0
DWIDTH 15 0
BBX 2 39 7 0
BITMAP
C0
C0
C0
C0
C0
C0
C0
C0
C0
C0
C0
C0
C0
C0
C0
C0
C0
C0
C0
C0
C0
C0
C0
C0
C0
C0
C0
C0
C0
C0
C0
C0
C0
C0
C0
C0
C0
C0
C0
ENDCHAR
STARTCHAR 004A
ENCODING 74
SWIDTH 468 0
DWIDTH 26 0
BBX 19 39 0 0
BITMAP
0FFFE0
000020
000020
000020
000020
000020
000020
000020
000020
000020
000020
000020
000020
000020
000020
000020
000020
000020
000020
000020
000020
000020
000020
000020
000020
000020
000020
000020
000020
000020
000020
000020
000020
800060
400040
2000C0
100180
0E0300
03FC00
ENDCHAR
STARTCHAR 004B
ENCODING 75
SWIDTH 684 0
DWIDTH 38 0
BBX 30 39 7 0
BITMAP
C0000018
C0000030
C0000060
C0000040
C0000080
C0000100
C0000200
C0000400
C0000800
C0001000
C0002000
C0004000
C0008000
C0010000
C0020000
C0040000
C0080000
C0100000
C0380000
C0480000
C0840000
C1020000
C3010000
C6018000
CC00C000
D8006000
F0003000
E0001000
C0000800
C0000400
C0000200
C0000300
C0000180
C00000C0
C0000060
C0000030
C0000010
C0000008
C0000004
ENDCHAR
STARTCHAR 004C
ENCODING 76
SWIDTH 576 0
DWIDTH 32 0
BBX 25 39 7 0
BITMAP
C0000000
C0000000
C0000000
C0000000
C0000000
C0000000
C0000000
C0000000
C0000000
C0000000
C0000000
C0000000
C0000000
C0000000
C0000000
C0000000
C0000000
C0000000
C0000000
C0000000
C0000000
C0000000
C0000000
C0000000
C0000000
C0000000
C0000000
C0000000
C0000000
C0000000
C0000000
C0000000
C0000000
C0000000
C0000000
C0000000
C0000000
C0000000
FFFFFF80
ENDCHAR
STARTCHAR 004D
ENCODING 77
SWIDTH 954 0
DWIDTH 53 0
BBX 39 39 7 0
BITMAP
C000000002
C000000006
E00000000E
E00000000A
D000000012
D000000012
C800000022
CC00000022
C400000042
C6000000C2
C200000082
C100000102
C100000102
C080000202
C0C0000202
C040000402
C060000C02
C020000802
C010001002
C010001002
C008002002
C00C002002
C004004002
C00600C002
C002008002
C001010002
C001010002
C000820002
C000C20002
C000440002
C0006C0002
C000280002
C000100002
C000100002
C000000002
C000000002
C000000002
C000000002
C000000002
ENDCHAR
STARTCHAR 004E
ENCODING 78
SWIDTH 810 0
DWIDTH 45 0
BBX 31 39 7 0
BITMAP
C0000002
C0000002
E0000002
D0000002
D8000002
C8000002
C4000002
C2000002
C3000002
C1800002
C0800002
C0400002
C0600002
C0300002
C0100002
C0080002
C0040002
C0060002
C0030002
C0010002
C0008002
C000C002
C0006002
C0002002
C0001002
C0000802
C0000C02
C0000602
C0000202
C0000102
C0000182
C00000C2
C0000042
C0000022
C0000012
C000001A
C000000E
C0000006
C0000002
ENDCHAR
STARTCHAR 004F
ENCODING 79
SWIDTH 828 0
DWIDTH 46 0
BBX 40 39 3 0
BITMAP
0001FF8000
000F007000
0038000C00
00C0000300
0180000180
0300000040
0600000020
0C00000010
0800000008
100000000C
3000000004
2000000006
6000000002
4000000002
4000000003
4000000001
C000000001
8000000001
8000000001
8000000001
8000000001
8000000001
C000000001
4000000001
4000000003
4000000002
6000000002
2000000006
3000000004
100000000C
1800000008
0C00000010
0400000020
0300000060
0180000080
00C0000300
0030000E00
000E007800
0001FFC000
ENDCHAR
STARTCHAR 0050
ENCODING 80
SWIDTH 702 0
DWIDTH 39 0
BBX 29 39 7 0
BITMAP
FFFFC000
C0003800
C0000600
C0000180
C00000C0
C0000060
C0000020
C0000010
C0000010
C0000010
C0000008
C0000008
C0000008
C0000008
C0000008
C0000018
C0000010
C0000010
C0000030
C0000020
C0000040
C00000C0
C0000100
C0000600
C000F800
FFFF0000
C0000000
C0000000
C0000000
C0000000
C0000000
C0000000
C0000000
C0000000
C0000000
C0000000
C0000000
C0000000
C0000000
ENDCHAR
STARTCHAR 0051
ENCODING 81
SWIDTH 828 0
DWIDTH 46 0
BBX 42 46 3 -7
BITMAP
0001FF800000
000F00700000
0038000C0000
00E000030000
018000018000
030000004000
060000002000
0C0000001000
080000001800
100000000C00
300000000400
200000000600
600000000200
400000000200
400000000300
400000000100
C00000000100
800000000100
800000000100
800000000100
800000000100
800000000100
C00000000100
400000000100
400000000300
400000000200
600000000200
200000000600
300000000400
100000000C00
180000000800
0C0000001000
060000002000
030000006000
018000008000
00C000030000
0030000E0000
000E00780000
0001FFC00000
000006000000
000003000000
0000018000C0
000000400180
000000300300
0000000E0E00
00000003F000
ENDCHAR
STARTCHAR 0052
ENCODING 82
SWIDTH 702 0
DWIDTH 39 0
BBX 29 39 7 0
BITMAP
FFFFC000
C0003800
C0000600
C0000180
C00000C0
C0000060
C0000020
C0000010
C0000010
C0000010
C0000008
C0000008
C0000008
C0000008
C0000008
C0000018
C0000010
C0000010
C0000030
C0000020
C0000040
C00000C0
C0000100
C0000600
C000F800
FFFF3000
C0001000
C0000800
C0000C00
C0000600
C0000200
C0000100
C0000180
C0000080
C0000040
C0000060
C0000030
C0000010
C0000008
ENDCHAR
STARTCHAR 0053
ENCODING 83
SWIDTH 594 0
DWIDTH 33 0
BBX 27 39 3 0
BITMAP
007FE000
01C03C00
06000300
080000C0
10000000
30000000
20000000
20000000
60000000
40000000
40000000
60000000
20000000
20000000
10000000
18000000
0C000000
03800000
00F00000
000F0000
0001E000
00001C00
00000300
00000180
000000C0
00000040
00000020
00000020
00000020
00000020
00000020
00000020
00000060
C0000040
600000C0
30000180
0C000300
03801C00
007FE000
ENDCHAR
STARTCHAR 0054
ENCODING 84
SWIDTH 540 0
DWIDTH 30 0
BBX 30 39 0 0
BITMAP
FFFFFFFC
00010000
00010000
00010000
00010000
00010000
00010000
00010000
00010000
00010000
00010000
00010000
00010000
00010000
00010000
00010000
00010000
00010000
00010000
00010000
00010000
00010000
00010000
00010000
00010000
00010000
00010000
00010000
00010000
00010000
00010000
00010000
00010000
00010000
00010000
00010000
00010000
00010000
00010000
ENDCHAR
STARTCHAR 0055
ENCODING 85
SWIDTH 792 0
DWIDTH 44 0
BBX 30 39 7 0
BITMAP
80000004
80000004
80000004
80000004
80000004
80000004
80000004
80000004
80000004
80000004
80000004
80000004
80000004
80000004
80000004
80000004
80000004
80000004
80000004
80000004
80000004
80000004
80000004
80000004
80000004
80000004
80000004
C000000C
40000008
40000008
40000008
20000010
20000010
10000020
08000060
040000C0
03000300
01C00E00
003FF000
ENDCHAR
STARTCHAR 0056
ENCODING 86
SWIDTH 666 0
DWIDTH 37 0
BBX 36 39 1 0
BITMAP
8000000030
8000000020
4000000060
4000000040
20000000C0
2000000080
3000000080
1000000100
1800000100
0800000200
0800000200
0400000600
0400000400
0200000C00
0200000800
0300001800
0100001000
0180001000
0080002000
00C0002000
0040006000
0040004000
002000C000
0020008000
0010018000
0010010000
0018010000
0008020000
000C020000
0004040000
0004040000
00020C0000
0002080000
0001180000
0001100000
0001B00000
0000A00000
0000E00000
0000400000
ENDCHAR
STARTCHAR 0057
ENCODING 87
SWIDTH 1080 0
DWIDTH 60 0
BBX 54 39 3 0
BITMAP
80000030000004
80000030000004
C0000030000004
40000048000008
40000048000008
60000048000018
20000084000010
20000084000010
30000186000030
10000102000020
10000102000020
18000303000060
08000201000040
08000201000040
0C0006018000C0
04000400800080
04000400800080
06000800400180
02000800400100
02000800400100
03001000200300
01001000200200
01001000200200
00802000100400
00802000100400
00802000100400
00404000080800
00404000080800
0040C0000C0800
00208000041000
00208000041000
00218000061000
00110000022000
00110000022000
00130000032000
000A0000014000
000A0000014000
000C000000C000
00040000008000
ENDCHAR
STARTCHAR 0058
ENCODING 88
SWIDTH 612 0
DWIDTH 34 0
BBX 31 39 2 0
BITMAP
4000000C
20000008
30000010
10000020
08000060
04000040
06000080
02000100
01000300
00800200
00C00400
00400800
00201800
00101000
00182000
00084000
0004C000
00028000
00030000
00030000
00068000
00044000
00086000
00102000
00301000
00200800
00400C00
00800400
01800200
01000100
02000180
04000080
0C000040
08000020
10000030
20000010
60000008
40000004
80000006
ENDCHAR
STARTCHAR 0059
ENCODING 89
SWIDTH 594 0
DWIDTH 33 0
BBX 32 39 1 0
BITMAP
80000001
C0000003
40000002
20000004
3000000C
10000008
18000010
08000030
04000020
06000060
02000040
01000080
01000180
00800100
00C00200
00400200
00200400
00300C00
00100800
00081000
00083000
00042000
00066000
00024000
00018000
00018000
00018000
00018000
00018000
00018000
00018000
00018000
00018000
00018000
00018000
00018000
00018000
00018000
00018000
ENDCHAR
STARTCHAR 005A
ENCODING 90
SWIDTH 630 0
DWIDTH 35 0
BBX 30 39 3 0
BITMAP
FFFFFFFC
00000008
00000018
00000030
00000020
00000040
000000C0
00000180
00000100
00000200
00000400
00000C00
00001800
00001000
00002000
00006000
0000C000
00008000
00010000
00030000
00060000
00040000
00080000
00100000
00300000
00600000
00400000
00800000
01800000
03000000
02000000
04000000
0C000000
18000000
10000000
20000000
40000000
C0000000
FFFFFFFC
ENDCHAR
STARTCHAR 005B
ENCODING 91
SWIDTH 288 0
DWIDTH 16 0
BBX 8 52 7 -11
BITMAP
FF
C0
C0
C0
C0
C0
C0
C0
C0
C0
C0
C0
C0
C0
C0
C0
C0
C0
C0
C0
C0
C0
C0
C0
C0
C0
C0
C0
C0
C0
C0
C0
C0
C0
C0
C0
C0
C0
C0
C0
C0
C0
C0
C0
C0
C0
C0
C0
C0
C0
C0
FF
ENDCHAR
STARTCHAR 005C
ENCODING 92
SWIDTH 288 0
DWIDTH 16 0
BBX 20 53 -2 -6
BITMAP
C00000
400000
400000
600000
200000
200000
100000
100000
100000
080000
080000
080000
040000
040000
040000
020000
020000
030000
010000
010000
018000
008000
008000
00C000
004000
004000
002000
002000
002000
001000
001000
001000
000800
000800
000800
000400
000400
000400
000200
000200
000300
000100
000100
000080
000080
000080
000040
000040
000040
000020
000020
000020
000010
ENDCHAR
STARTCHAR 005D
ENCODING 93
SWIDTH 288 0
DWIDTH 16 0
BBX 8 52 1 -11
BITMAP
FF
03
03
03
03
03
03
03
03
03
03
03
03
03
03
03
03
03
03
03
03
03
03
03
03
03
03
03
03
03
03
03
03
03
03
03
03
03
03
03
03
03
03
03
03
03
03
03
03
03
03
FF
ENDCHAR
STARTCHAR 005E
ENCODING 94
SWIDTH 558 0
DWIDTH 31 0
BBX 20 23 6 8
BITMAP
004000
00E000
00A000
00B000
011000
011000
030800
020800
020400
040400
040600
080200
080200
180100
100100
100180
200080
200080
600040
400040
400060
800020
800030
ENDCHAR
STARTCHAR 005F
ENCODING 95
SWIDTH 486 0
DWIDTH 27 0
BBX 28 1 0 -1
BITMAP
FFFFFFF0
ENDCHAR
STARTCHAR 0060
ENCODING 96
SWIDTH 594 0
DWIDTH 33 0
BBX 9 6 10 34
BITMAP
C000
6000
3000
0C00
0600
0380
ENDCHAR
STARTCHAR 0061
ENCODING 97
SWIDTH 558 0
DWIDTH 31 0
BBX 22 29 4 0
BITMAP
00FE00
0701C0
180060
600030
C00018
000008
000008
00000C
000004
000004
000004
000004
000004
00FFFC
0F8004
300004
600004
C00004
800004
800004
800004
80000C
80000C
800014
C00034
400024
3000C4
1C0384
07FC04
ENDCHAR
STARTCHAR 0062
ENCODING 98
SWIDTH 666 0
DWIDTH 37 0
BBX 28 41 6 0
BITMAP
C0000000
C0000000
C0000000
C0000000
C0000000
C0000000
C0000000
C0000000
C0000000
C0000000
C0000000
C0000000
C01FC000
C0F07800
C3000C00
C6000300
CC000180
D8000080
D0000040
E0000060
E0000020
C0000020
C0000010
C0000010
C0000010
C0000010
C0000010
C0000010
C0000010
C0000010
C0000010
C0000030
E0000020
E0000020
D0000040
D00000C0
C8000180
C4000300
C3000600
C0C03800
C03FE000
ENDCHAR
STARTCHAR 0063
ENCODING 99
SWIDTH 540 0
DWIDTH 30 0
BBX 24 29 3 0
BITMAP
001FC0
00E070
03000C
040002
080001
100000
200000
200000
400000
400000
C00000
800000
800000
800000
800000
800000
800000
800000
C00000
400000
400000
600000
200000
100000
180001
0C0003
03000C
01C038
007FE0
ENDCHAR
STARTCHAR 0064
ENCODING 100
SWIDTH 666 0
DWIDTH 37 0
BBX 28 41 3 0
BITMAP
00000010
00000010
00000010
00000010
00000010
00000010
00000010
00000010
00000010
00000010
00000010
00000010
001F8010
00E07010
03000C10
04000610
08000110
10000090
200000D0
20000050
40000030
40000030
C0000030
80000030
80000010
80000010
80000010
80000010
80000010
80000010
C0000030
40000030
40000030
60000050
20000050
10000090
18000110
0C000210
03000C10
01C03810
007FC010
ENDCHAR
STARTCHAR 0065
ENCODING 101
SWIDTH 576 0
DWIDTH 32 0
BBX 27 29 3 0
BITMAP
003F0000
01E0E000
03001800
0C000C00
18000200
10000100
20000180
60000080
400000C0
40000040
C0000040
80000040
80000060
80000020
FFFFFFE0
80000000
80000000
80000000
C0000000
40000000
40000000
20000000
20000000
10000000
18000180
0C000300
03000600
01C03800
003FE000
ENDCHAR
STARTCHAR 0066
ENCODING 102
SWIDTH 306 0
DWIDTH 17 0
BBX 18 41 1 0
BITMAP
007F80
0080C0
010000
030000
020000
020000
020000
020000
020000
020000
020000
020000
FFFF80
020000
020000
020000
020000
020000
020000
020000
020000
020000
020000
020000
020000
020000
020000
020000
020000
020000
020000
020000
020000
020000
020000
020000
020000
020000
020000
020000
020000
ENDCHAR
STARTCHAR 0067
ENCODING 103
SWIDTH 666 0
DWIDTH 37 0
BBX 28 40 3 -11
BITMAP
001FC010
00E07810
03000C10
04000310
08000190
10000090
20000050
60000070
40000030
40000030
C0000010
80000010
80000010
80000010
80000010
80000010
80000010
C0000010
40000030
40000030
60000030
20000050
10000090
18000190
0C000310
03000610
01C03810
003FC010
00000010
00000010
00000010
00000010
00000020
00000020
00000060
10000040
0C000080
07000300
01E01C00
001FE000
ENDCHAR
STARTCHAR 0068
ENCODING 104
SWIDTH 666 0
DWIDTH 37 0
BBX 25 41 6 0
BITMAP
C0000000
C0000000
C0000000
C0000000
C0000000
C0000000
C0000000
C0000000
C0000000
C0000000
C0000000
C0000000
C03F8000
C1C07000
C3001800
CC000400
D8000200
D0000300
E0000100
E0000100
C0000080
C0000080
C0000080
C0000080
C0000080
C0000080
C0000080
C0000080
C0000080
C0000080
C0000080
C0000080
C0000080
C0000080
C0000080
C0000080
C0000080
C0000080
C0000080
C0000080
C0000080
ENDCHAR
STARTCHAR 0069
ENCODING 105
SWIDTH 234 0
DWIDTH 13 0
BBX 2 39 6 1
BITMAP
C0
C0
00
00
00
00
00
00
00
00
C0
C0
C0
C0
C0
C0
C0
C0
C0
C0
C0
C0
C0
C0
C0
C0
C0
C0
C0
C0
C0
C0
C0
C0
C0
C0
C0
C0
C0
ENDCHAR
STARTCHAR 006A
ENCODING 106
SWIDTH 252 0
DWIDTH 14 0
BBX 13 50 -4 -10
BITMAP
0038
0038
0000
0000
0000
0000
0000
0000
0000
0000
0010
0010
0010
0010
0010
0010
0010
0010
0010
0010
0010
0010
0010
0010
0010
0010
0010
0010
0010
0010
0010
0010
0010
0010
0010
0010
0010
0010
0010
0010
0010
0010
0010
0010
0030
0020
0020
0040
E1C0
3F00
ENDCHAR
STARTCHAR 006B
ENCODING 107
SWIDTH 558 0
DWIDTH 31 0
BBX 24 41 6 0
BITMAP
C00000
C00000
C00000
C00000
C00000
C00000
C00000
C00000
C00000
C00000
C00000
C00000
C00002
C0000C
C00018
C00030
C00060
C000C0
C00180
C00300
C00400
C00800
C01000
C06000
C0F000
C19000
C30800
C60C00
C80600
D00300
E00100
C00080
C000C0
C00060
C00030
C00010
C00008
C0000C
C00006
C00002
C00001
ENDCHAR
STARTCHAR 006C
ENCODING 108
SWIDTH 234 0
DWIDTH 13 0
BBX 2 41 6 0
BITMAP
C0
C0
C0
C0
C0
C0
C0
C0
C0
C0
C0
C0
C0
C0
C0
C0
C0
C0
C0
C0
C0
C0
C0
C0
C0
C0
C0
C0
C0
C0
C0
C0
C0
C0
C0
C0
C0
C0
C0
C0
C0
ENDCHAR
STARTCHAR 006D
ENCODING 109
SWIDTH 1062 0
DWIDTH 59 0
BBX 47 29 6 0
BITMAP
C03F00007F00
C1C0E00381C0
C600180C0030
CC000C180018
D80006300008
D00002200004
E00003400004
E00001C00002
C00001800002
C00001800002
C00001800002
C00001000002
C00001000002
C00001000002
C00001000002
C00001000002
C00001000002
C00001000002
C00001000002
C00001000002
C00001000002
C00001000002
C00001000002
C00001000002
C00001000002
C00001000002
C00001000002
C00001000002
C00001000002
ENDCHAR
STARTCHAR 006E
ENCODING 110
SWIDTH 666 0
DWIDTH 37 0
BBX 25 29 6 0
BITMAP
C03F8000
C1C07000
C3001800
CC000400
D8000200
D0000300
E0000100
E0000100
C0000080
C0000080
C0000080
C0000080
C0000080
C0000080
C0000080
C0000080
C0000080
C0000080
C0000080
C0000080
C0000080
C0000080
C0000080
C0000080
C0000080
C0000080
C0000080
C0000080
C0000080
ENDCHAR
STARTCHAR 006F
ENCODING 111
SWIDTH 594 0
DWIDTH 33 0
BBX 28 29 3 0
BITMAP
001F8000
00E07000
03000C00
04000600
08000100
10000080
200000C0
20000040
40000020
40000020
C0000020
80000030
80000010
80000010
80000010
80000010
80000010
80000010
C0000020
40000020
40000020
60000040
20000040
10000080
18000100
0C000200
03000C00
01C03800
007FE000
ENDCHAR
STARTCHAR 0070
ENCODING 112
SWIDTH 666 0
DWIDTH 37 0
BBX 28 40 6 -11
BITMAP
C01FC000
C0F07800
C3800C00
C6000300
CC000180
D8000080
D0000040
E0000060
E0000020
C0000020
C0000010
C0000010
C0000010
C0000010
C0000010
C0000010
C0000010
C0000010
C0000010
C0000030
E0000020
E0000020
D0000040
D00000C0
C8000180
C4000300
C3000600
C0C03800
C03FE000
C0000000
C0000000
C0000000
C0000000
C0000000
C0000000
C0000000
C0000000
C0000000
C0000000
C0000000
ENDCHAR
STARTCHAR 0071
ENCODING 113
SWIDTH 666 0
DWIDTH 37 0
BBX 28 40 3 -11
BITMAP
001F8010
00E07010
03000C10
06000610
08000110
10000090
300000D0
20000050
40000030
40000030
C0000030
80000030
80000010
80000010
80000010
80000010
80000010
80000010
C0000030
40000030
40000030
60000050
20000050
10000090
18000110
0C000210
03000C10
01C03810
007FC010
00000010
00000010
00000010
00000010
00000010
00000010
00000010
00000010
00000010
00000010
00000010
ENDCHAR
STARTCHAR 0072
ENCODING 114
SWIDTH 378 0
DWIDTH 21 0
BBX 13 29 6 0
BITMAP
C078
C1C0
C600
C800
D000
F000
E000
E000
C000
C000
C000
C000
C000
C000
C000
C000
C000
C000
C000
C000
C000
C000
C000
C000
C000
C000
C000
C000
C000
ENDCHAR
STARTCHAR 0073
ENCODING 115
SWIDTH 450 0
DWIDTH 25 0
BBX 22 29 2 0
BITMAP
01FE00
0703C0
180030
300010
200000
400000
400000
400000
400000
400000
600000
300000
180000
070000
01F800
000F80
0000E0
000030
000008
000008
00000C
000004
00000C
000008
800008
C00018
700030
1C00C0
03FF00
ENDCHAR
STARTCHAR 0074
ENCODING 116
SWIDTH 378 0
DWIDTH 21 0
BBX 18 35 1 0
BITMAP
020000
020000
020000
020000
020000
020000
FFFF80
020000
020000
020000
020000
020000
020000
020000
020000
020000
020000
020000
020000
020000
020000
020000
020000
020000
020000
020000
020000
020000
020000
020000
020000
030000
010040
00C0C0
007F00
ENDCHAR
STARTCHAR 0075
ENCODING 117
SWIDTH 648 0
DWIDTH 36 0
BBX 25 29 6 0
BITMAP
80000180
80000180
80000180
80000180
80000180
80000180
80000180
80000180
80000180
80000180
80000180
80000180
80000180
80000180
80000180
80000180
80000180
80000180
80000180
80000180
80000180
40000380
40000380
60000580
20000580
10001980
08003180
0700E180
01FF0180
ENDCHAR
STARTCHAR 0076
ENCODING 118
SWIDTH 504 0
DWIDTH 28 0
BBX 28 29 0 0
BITMAP
C0000030
40000020
60000020
20000040
30000040
100000C0
10000080
08000180
08000100
04000300
04000200
06000600
02000400
03000400
01000800
01800800
00801000
00801000
00403000
00402000
00206000
00204000
0010C000
00108000
00188000
00090000
000D0000
00060000
00060000
ENDCHAR
STARTCHAR 0077
ENCODING 119
SWIDTH 828 0
DWIDTH 46 0
BBX 45 29 1 0
BITMAP
800002000008
800006000010
400005000010
40000D000030
400009000020
200008800020
200010800060
300010C00040
100010400040
100020400080
080020200080
080060200180
080040300100
040040100100
040080100200
020080080200
020180080200
020100080400
010100040400
010200040C00
010200020800
008200020800
008400021000
004400011000
004800011000
00480001A000
00280000A000
00300000C000
001000004000
ENDCHAR
STARTCHAR 0078
ENCODING 120
SWIDTH 486 0
DWIDTH 27 0
BBX 24 29 2 0
BITMAP
C00002
600004
20000C
100018
080010
0C0020
040040
0200C0
010080
018100
00C200
004600
002C00
001800
001800
002C00
006400
00C200
008100
010180
030080
060040
040020
080030
100018
300008
600004
400006
800003
ENDCHAR
STARTCHAR 0079
ENCODING 121
SWIDTH 504 0
DWIDTH 28 0
BBX 30 40 -2 -11
BITMAP
3000000C
10000008
18000008
08000010
0C000010
04000030
04000020
02000060
02000040
010000C0
01000080
01800180
00800100
00C00100
00400200
00600200
00200400
00200400
00100C00
00100800
00081800
00081000
00043000
00042000
00062000
00024000
00034000
00018000
00018000
00018000
00010000
00030000
00020000
00060000
00040000
000C0000
00080000
C0100000
30600000
0F800000
ENDCHAR
STARTCHAR 007A
ENCODING 122
SWIDTH 486 0
DWIDTH 27 0
BBX 22 29 3 0
BITMAP
FFFFF8
000008
000010
000030
000060
000040
000080
000180
000300
000200
000400
000C00
001800
001000
002000
004000
00C000
008000
010000
020000
060000
040000
080000
100000
300000
200000
400000
800000
FFFFFC
ENDCHAR
STARTCHAR 007B
ENCODING 123
SWIDTH 288 0
DWIDTH 16 0
BBX 11 52 4 -11
BITMAP
03E0
0600
0400
0800
0800
0800
0800
0800
0800
0800
0800
0800
0800
0800
0800
0800
0800
0800
0800
0800
0800
0800
0800
0800
1800
F000
1000
0800
0800
0800
0800
0800
0800
0800
0800
0800
0800
0800
0800
0800
0800
0800
0800
0800
0800
0800
0800
0800
0C00
0400
0300
00E0
ENDCHAR
STARTCHAR 007C
ENCODING 124
SWIDTH 270 0
DWIDTH 15 0
BBX 2 52 7 -11
BITMAP
C0
C0
C0
C0
C0
C0
C0
C0
C0
C0
C0
C0
C0
C0
C0
C0
C0
C0
C0
C0
C0
C0
C0
C0
C0
C0
C0
C0
C0
C0
C0
C0
C0
C0
C0
C0
C0
C0
C0
C0
C0
C0
C0
C0
C0
C0
C0
C0
C0
C0
C0
C0
ENDCHAR
STARTCHAR 007D
ENCODING 125
SWIDTH 288 0
DWIDTH 16 0
BBX 12 52 1 -11
BITMAP
F800
0400
0200
0200
0300
0300
0300
0300
0300
0300
0300
0300
0300
0300
0300
0300
0300
0300
0300
0300
0300
0300
0300
0100
0100
00F0
0180
0100
0100
0300
0300
0300
0300
0300
0300
0300
0300
0300
0300
0300
0300
0300
0300
0300
0300
0300
0300
0300
0200
0600
0C00
F000
ENDCHAR
STARTCHAR 007E
ENCODING 126
SWIDTH 558 0
DWIDTH 31 0
BBX 23 7 4 16
BITMAP
1F8002
30C002
402002
401006
800804
800608
8003F0
ENDCHAR
STARTCHAR 00A0
ENCODING 160
SWIDTH 234 0
DWIDTH 13 0
BBX 0 0 0 0
BITMAP
ENDCHAR
STARTCHAR 00A1
ENCODING 161
SWIDTH 234 0
DWIDTH 13 0
BBX 3 38 5 -9
BITMAP
60
E0
60
00
00
00
00
00
00
00
00
40
40
40
40
40
40
40
40
40
40
40
40
40
40
40
40
40
40
40
40
40
40
40
40
40
40
40
ENDCHAR
STARTCHAR 00A2
ENCODING 162
SWIDTH 540 0
DWIDTH 30 0
BBX 24 42 3 -7
BITMAP
000400
000400
000400
000400
000400
000400
001FC0
00E470
03040C
040402
080401
100400
200400
200400
400400
400400
C00400
800400
800400
800400
800400
800400
800400
800400
C00400
400400
400400
600400
200400
100400
180401
0C0403
03040C
01C438
007FE0
000400
000400
000400
000400
000400
000400
000400
ENDCHAR
STARTCHAR 00A3
ENCODING 163
SWIDTH 612 0
DWIDTH 34 0
BBX 31 39 2 0
BITMAP
0001FF80
000E0070
0018000C
00200002
00400000
00800000
01800000
01000000
01000000
01000000
03000000
02000000
02000000
02000000
02000000
02000000
02000000
02000000
02000000
FFFFFF00
02000000
02000000
02000000
02000000
02000000
02000000
02000000
02000000
02000000
02000000
02000000
02000000
02000000
02000000
02000000
02000000
02000000
02000000
FFFFFFFE
ENDCHAR
STARTCHAR 00A4
ENCODING 164
SWIDTH 684 0
DWIDTH 38 0
BBX 34 34 2 0
BITMAP
8000000040
40000000C0
2001F00180
101FBF0300
087001C600
04C0006C00
0300001800
0200000800
0400000400
0C00000600
0800000200
1000000100
1000000100
3000000180
2000000080
2000000080
2000000080
2000000080
2000000080
2000000080
2000000080
3000000180
1000000100
1000000100
0800000200
0C00000600
0600000C00
0300001800
0380003800
04C0006400
0838038200
100FFE0100
2000000080
4000000040
ENDCHAR
STARTCHAR 00A5
ENCODING 165
SWIDTH 666 0
DWIDTH 37 0
BBX 35 39 1 0
BITMAP
8000000020
4000000060
60000000C0
2000000080
1000000100
0800000300
0400000600
0600000400
0200000800
0100001000
0080003000
00C0006000
0060004000
0020008000
0010018000
0018030000
000C020000
0004040000
0002080000
0001180000
0001B00000
0000E00000
0FFFFFFF00
0000400000
0000400000
0000400000
0000400000
0000400000
0000400000
0FFFFFFF00
0000400000
0000400000
0000400000
0000400000
0000400000
0000400000
0000400000
0000400000
0000400000
ENDCHAR
STARTCHAR 00A6
ENCODING 166
SWIDTH 270 0
DWIDTH 15 0
BBX 2 52 7 -11
BITMAP
C0
C0
C0
C0
C0
C0
C0
C0
C0
C0
C0
C0
C0
C0
C0
C0
C0
C0
C0
00
00
00
00
00
00
00
00
00
00
00
00
00
C0
C0
C0
C0
C0
C0
C0
C0
C0
C0
C0
C0
C0
C0
C0
C0
C0
C0
C0
C0
ENDCHAR
STARTCHAR 00A7
ENCODING 167
SWIDTH 468 0
DWIDTH 26 0
BBX 22 45 2 -6
BITMAP
00FF80
070070
0C001C
180004
100000
200000
200000
200000
200000
200000
300000
100000
080000
060000
07C000
083C00
300380
200060
400030
400008
400008
400004
400004
400004
400004
20000C
100008
0C0018
03C030
0038C0
000780
0000C0
000060
000030
000010
000010
000018
000018
000010
000010
800030
600020
3800C0
0F8F80
00F800
ENDCHAR
STARTCHAR 00A8
ENCODING 168
SWIDTH 594 0
DWIDTH 33 0
BBX 12 2 11 37
BITMAP
C070
C070
ENDCHAR
STARTCHAR 00A9
ENCODING 169
SWIDTH 810 0
DWIDTH 45 0
BBX 40 39 3 0
BITMAP
0001FF8000
000F00F000
0030000C00
00C0000200
0180000180
03000000C0
0600000060
0C00000030
0800FF0010
100380C008
3006003008
2008001804
2010000004
4030000002
4020000002
4060000002
C040000002
8040000002
8040000002
8040000003
8040000002
8040000002
C040000002
4060000002
4020000002
4030000006
6010000004
2008001804
3004003008
100300C008
1800FF8010
0C00000030
0400000060
02000000C0
0180000180
00C0000600
0030001C00
000E007000
0003FF8000
ENDCHAR
STARTCHAR 00AA
ENCODING 170
SWIDTH 378 0
DWIDTH 21 0
BBX 14 17 3 24
BITMAP
1FE0
6018
000C
0004
0004
0004
0004
0004
3FFC
4004
8004
8004
8004
800C
C014
6024
1F84
ENDCHAR
STARTCHAR 00AB
ENCODING 171
SWIDTH 414 0
DWIDTH 23 0
BBX 18 21 3 4
BITMAP
00C040
018080
010100
020300
040600
0C0400
180800
101000
203000
406000
C04000
406000
202000
101000
180800
080C00
040600
020200
030100
018080
0080C0
ENDCHAR
STARTCHAR 00AC
ENCODING 172
SWIDTH 558 0
DWIDTH 31 0
BBX 23 11 4 9
BITMAP
FFFFFE
000002
000002
000002
000002
000002
000002
000002
000002
000002
000002
ENDCHAR
STARTCHAR 00AD
ENCODING 173
SWIDTH 378 0
DWIDTH 21 0
BBX 14 1 4 14
BITMAP
FFFC
ENDCHAR
STARTCHAR 00AE
ENCODING 174
SWIDTH 810 0
DWIDTH 45 0
BBX 40 39 3 0
BITMAP
0001FF8000
000F00F000
0030000C00
00C0000200
0180000180
03000000C0
0600000060
0C00000030
0807FF8010
100400E008
3004003008
2004001804
2004000804
4004000802
4004000C02
4004000C02
C004000802
8004000802
8004000802
8004001003
8004003002
800401C002
C007FF0002
4004018002
4004008002
4004004006
6004006004
2004002004
3004001008
1004001808
1804000810
0C00000030
0400000060
02000000C0
0180000180
00C0000600
0030001C00
000E007000
0003FF8000
ENDCHAR
STARTCHAR 00AF
ENCODING 175
SWIDTH 594 0
DWIDTH 33 0
BBX 15 1 9 36
BITMAP
FFFE
ENDCHAR
STARTCHAR 00B0
ENCODING 176
SWIDTH 414 0
DWIDTH 23 0
BBX 17 17 3 22
BITMAP
03F000
0C1C00
100600
200300
400100
400180
C00080
800080
800080
800080
400080
400100
600100
300200
180400
0F3800
00C000
ENDCHAR
STARTCHAR 00B1
ENCODING 177
SWIDTH 558 0
DWIDTH 31 0
BBX 23 31 4 0
BITMAP
001000
001000
001000
001000
001000
001000
001000
001000
001000
001000
001000
FFFFFE
001000
001000
001000
001000
001000
001000
001000
001000
001000
001000
001000
000000
000000
000000
000000
000000
000000
000000
FFFFFE
ENDCHAR
STARTCHAR 00B2
ENCODING 178
SWIDTH 414 0
DWIDTH 23 0
BBX 18 23 2 18
BITMAP
0FFC00
300600
C00100
000080
000080
000080
000080
000080
000100
000100
000200
000400
000800
003000
006000
00C000
018000
020000
040000
080000
100000
600000
7FFFC0
ENDCHAR
STARTCHAR 00B3
ENCODING 179
SWIDTH 414 0
DWIDTH 23 0
BBX 18 23 2 18
BITMAP
FFFF80
000100
000200
000600
000C00
001800
001000
002000
004000
008000
01F800
000600
000180
000080
000040
000040
000040
000040
000040
800080
600100
1C0600
07F800
ENDCHAR
STARTCHAR 00B4
ENCODING 180
SWIDTH 594 0
DWIDTH 33 0
BBX 9 6 15 34
BITMAP
0180
0600
0C00
1800
6000
C000
ENDCHAR
STARTCHAR 00B5
ENCODING 181
SWIDTH 666 0
DWIDTH 37 0
BBX 25 40 6 -11
BITMAP
C0000080
C0000080
C0000080
C0000080
C0000080
C0000080
C0000080
C0000080
C0000080
C0000080
C0000080
C0000080
C0000080
C0000080
C0000080
C0000080
C0000080
C0000080
C0000180
C0000180
C0000180
C0000180
C0000280
E0000280
F0000480
D0000880
CC003080
C700E080
C0FF8080
C0000000
C0000000
C0000000
C0000000
C0000000
C0000000
C0000000
C0000000
C0000000
C0000000
C0000000
ENDCHAR
STARTCHAR 00B6
ENCODING 182
SWIDTH 594 0
DWIDTH 33 0
BBX 25 47 1 -6
BITMAP
01FFFF80
0FF80080
1FF80080
3FF80080
7FF80080
7FF80080
7FF80080
FFF80080
FFF80080
FFF80080
7FF80080
7FF80080
7FF80080
3FF80080
1FF80080
0FF80080
07F80080
00780080
00180080
00180080
00180080
00180080
00180080
00180080
00180080
00180080
00180080
00180080
00180080
00180080
00180080
00180080
00180080
00180080
00180080
00180080
00180080
00180080
00180080
00180080
00180080
00180080
00180080
00180080
00180080
00180080
00180080
ENDCHAR
STARTCHAR 00B7
ENCODING 183
SWIDTH 216 0
DWIDTH 12 0
BBX 3 3 5 13
BITMAP
C0
E0
40
ENDCHAR
STARTCHAR 00B8
ENCODING 184
SWIDTH 594 0
DWIDTH 33 0
BBX 9 12 12 -12
BITMAP
0800
0800
1000
1C00
0300
0100
0080
0080
0080
0100
C700
3C00
ENDCHAR
STARTCHAR 00B9
ENCODING 185
SWIDTH 414 0
DWIDTH 23 0
BBX 15 23 5 18
BITMAP
FF00
0100
0100
0100
0100
0100
0100
0100
0100
0100
0100
0100
0100
0100
0100
0100
0100
0100
0100
0100
0100
0100
FFFE
ENDCHAR
STARTCHAR 00BA
ENCODING 186
SWIDTH 396 0
DWIDTH 22 0
BBX 18 17 2 24
BITMAP
07F800
180600
300100
200080
4000C0
400040
800040
800040
800040
800040
C00040
400040
400080
200180
100300
0C0E00
03F000
ENDCHAR
STARTCHAR 00BB
ENCODING 187
SWIDTH 414 0
DWIDTH 23 0
BBX 17 21 3 4
BITMAP
808000
C04000
602000
203000
101000
080800
0C0400
040600
020300
010100
008080
010180
020300
060200
040400
080800
101800
203000
602000
404000
808000
ENDCHAR
STARTCHAR 00BC
ENCODING 188
SWIDTH 1008 0
DWIDTH 56 0
BBX 50 39 5 0
BITMAP
FF000000080000
01000000100000
01000000300000
01000000200000
01000000400000
01000000C00000
01000000800000
01000001000000
01000003000000
01000002000000
01000004000000
01000008000000
01000008000000
01000010000000
01000020000000
01000060000000
01000040006000
01000080004000
01000180008000
01000100010000
01000200030000
01000600060000
FFFE0400040000
00000800080000
00001800100000
00001000301000
00002000201000
00006000401000
00004000801000
00008001801000
00010001001000
00010003FFFFC0
00020000001000
00040000001000
000C0000001000
00080000001000
00100000001000
00300000001000
00200000001000
ENDCHAR
STARTCHAR 00BD
ENCODING 189
SWIDTH 1008 0
DWIDTH 56 0
BBX 48 39 5 0
BITMAP
FF0000000800
010000001000
010000003000
010000002000
010000004000
01000000C000
010000008000
010000010000
010000030000
010000020000
010000040000
010000080000
010000080000
010000100000
010000200000
010000600000
010000403FE0
01000080C018
01000183000C
010001000004
010002000002
010006000002
FFFE04000002
000008000002
000018000004
00001000000C
000020000008
000060000010
000040000020
0000800000C0
000100000180
000100000300
000200000600
000400000800
000C00001000
000800002000
001000004000
003000018000
00200001FFFF
ENDCHAR
STARTCHAR 00BE
ENCODING 190
SWIDTH 1008 0
DWIDTH 56 0
BBX 53 39 2 0
BITMAP
FFFF8000010000
00018000020000
00030000060000
00020000040000
00040000080000
00080000180000
00100000100000
00200000200000
00400000600000
00C00000400000
01F00000800000
001E0001000000
00010001000000
00008002000000
0000C004000000
0000400C000000
00004008000C00
00004010000800
00004030001000
00008020002000
40018040006000
300300C000C000
0FFC0080008000
00000100010000
00000300020000
00000200060200
00000400040200
00000C00080200
00000800100200
00001000300200
00002000200200
000020007FFFF8
00004000000200
00008000000200
00018000000200
00010000000200
00020000000200
00060000000200
00040000000200
ENDCHAR
STARTCHAR 00BF
ENCODING 191
SWIDTH 540 0
DWIDTH 30 0
BBX 24 38 5 -9
BITMAP
003000
003800
003000
000000
000000
000000
000000
000000
000000
000000
000000
001000
001000
003000
002000
006000
004000
008000
010000
060000
0C0000
180000
300000
200000
400000
C00000
800000
800000
800000
800000
800000
C00000
400001
600003
300006
0C0018
0783E0
007E00
ENDCHAR
STARTCHAR 00C0
ENCODING 192
SWIDTH 684 0
DWIDTH 38 0
BBX 37 48 1 0
BITMAP
001C000000
0006000000
0003000000
0000C00000
0000600000
0000300000
0000000000
0000000000
0000000000
0000600000
0000600000
0000D00000
0000900000
0000980000
0001080000
00010C0000
0002040000
0002060000
0004020000
0004030000
000C010000
0008010000
0018008000
0010008000
0030004000
0020004000
0060006000
0040002000
0040003000
0080001000
0080001800
0100000800
0100000C00
0300000400
0200000400
07FFFFFE00
0400000200
0C00000100
0800000100
1800000080
1000000080
10000000C0
2000000040
2000000060
4000000020
4000000030
8000000010
8000000018
ENDCHAR
STARTCHAR 00C1
ENCODING 193
SWIDTH 684 0
DWIDTH 38 0
BBX 37 48 1 0
BITMAP
0000018000
0000060000
00000C0000
0000180000
0000600000
0000C00000
0000000000
0000000000
0000000000
0000600000
0000600000
0000D00000
0000900000
0000980000
0001080000
00010C0000
0002040000
0002060000
0004020000
0004030000
000C010000
0008010000
0018008000
0010008000
0030004000
0020004000
0060006000
0040002000
0040003000
0080001000
0080001800
0100000800
0100000C00
0300000400
0200000400
07FFFFFE00
0400000200
0C00000100
0800000100
1800000080
1000000080
10000000C0
2000000040
2000000060
4000000020
4000000030
8000000010
8000000018
ENDCHAR
STARTCHAR 00C2
ENCODING 194
SWIDTH 684 0
DWIDTH 38 0
BBX 37 48 1 0
BITMAP
0000F00000
0001980000
00030C0000
0006060000
000C010000
0010008000
0000000000
0000000000
0000000000
0000600000
0000600000
0000D00000
0000900000
0000980000
0001080000
00010C0000
0002040000
0002060000
0004020000
0004030000
000C010000
0008010000
0018008000
0010008000
0030004000
0020004000
0060006000
0040002000
0040003000
0080001000
0080001800
0100000800
0100000C00
0300000400
0200000400
07FFFFFE00
0400000200
0C00000100
0800000100
1800000080
1000000080
10000000C0
2000000040
2000000060
4000000020
4000000030
8000000010
8000000018
ENDCHAR
STARTCHAR 00C3
ENCODING 195
SWIDTH 684 0
DWIDTH 38 0
BBX 37 48 1 0
BITMAP
0002000000
000D80C000
0010608000
0010318000
00101F0000
0000000000
0000000000
0000000000
0000000000
0000600000
0000600000
0000D00000
0000900000
0000980000
0001080000
00010C0000
0002040000
0002060000
0004020000
0004030000
000C010000
0008010000
0018008000
0010008000
0030004000
0020004000
0060006000
0040002000
0040003000
0080001000
0080001800
0100000800
0100000C00
0300000400
0200000400
07FFFFFE00
0400000200
0C00000100
0800000100
1800000080
1000000080
10000000C0
2000000040
2000000060
4000000020
4000000030
8000000010
8000000018
ENDCHAR
STARTCHAR 00C4
ENCODING 196
SWIDTH 684 0
DWIDTH 38 0
BBX 37 47 1 0
BITMAP
0004020000
000E070000
000E030000
0000000000
0000000000
0000000000
0000000000
0000000000
0000600000
0000600000
0000D00000
0000900000
0000980000
0001080000
00010C0000
0002040000
0002060000
0004020000
0004030000
000C010000
0008010000
0018008000
0010008000
0030004000
0020004000
0060006000
0040002000
0040003000
0080001000
0080001800
0100000800
0100000C00
0300000400
0200000400
07FFFFFE00
0400000200
0C00000100
0800000100
1800000080
1000000080
10000000C0
2000000040
2000000060
4000000020
4000000030
8000000010
8000000018
ENDCHAR
STARTCHAR 00C5
ENCODING 197
SWIDTH 684 0
DWIDTH 38 0
BBX 37 54 1 0
BITMAP
0000200000
0001F80000
0002040000
0006020000
0004020000
0004020000
0004020000
0004020000
0002040000
0001980000
0000600000
0000000000
0000000000
0000000000
0000000000
0000600000
0000600000
0000D00000
0000900000
0000980000
0001080000
00010C0000
0002040000
0002060000
0004020000
0004030000
000C010000
0008010000
0018008000
0010008000
0030004000
0020004000
0060006000
0040002000
0040003000
0080001000
0080001800
0100000800
0100000C00
0300000400
0200000400
07FFFFFE00
0400000200
0C00000100
0800000100
1800000080
1000000080
10000000C0
2000000040
2000000060
4000000020
4000000030
8000000010
8000000018
ENDCHAR
STARTCHAR 00C6
ENCODING 198
SWIDTH 990 0
DWIDTH 55 0
BBX 51 39 1 0
BITMAP
000000FFFFFFC0
000001C0000000
00000140000000
00000240000000
00000640000000
00000440000000
00000840000000
00000840000000
00001040000000
00003040000000
00002040000000
00004040000000
0000C040000000
00008040000000
00010040000000
00030040000000
00020040000000
00040040000000
00040040000000
0008007FFFFF00
00180040000000
00100040000000
00200040000000
00600040000000
00400040000000
00800040000000
01FFFFC0000000
01000040000000
02000040000000
02000040000000
04000040000000
0C000040000000
08000040000000
10000040000000
30000040000000
20000040000000
40000040000000
C0000040000000
8000007FFFFFE0
ENDCHAR
STARTCHAR 00C7
ENCODING 199
SWIDTH 702 0
DWIDTH 39 0
BBX 33 51 3 -12
BITMAP
0001FF8000
000F007000
0038000C00
00E0000300
0180000180
0300000000
0600000000
0C00000000
0800000000
1000000000
3000000000
2000000000
6000000000
4000000000
4000000000
4000000000
C000000000
8000000000
8000000000
8000000000
8000000000
8000000000
C000000000
4000000000
4000000000
4000000000
6000000000
2000000000
3000000000
1000000000
1800000000
0C00000000
0600000000
0300000000
0180000180
00C0000300
0030000E00
000E007800
0001FFC000
0000100000
0000100000
0000200000
0000380000
0000060000
0000020000
0000010000
0000010000
0000010000
0000020000
00018E0000
0000780000
ENDCHAR
STARTCHAR 00C8
ENCODING 200
SWIDTH 666 0
DWIDTH 37 0
BBX 26 48 7 0
BITMAP
03800000
00C00000
00600000
00300000
000C0000
00060000
00000000
00000000
00000000
FFFFFF80
C0000000
C0000000
C0000000
C0000000
C0000000
C0000000
C0000000
C0000000
C0000000
C0000000
C0000000
C0000000
C0000000
C0000000
C0000000
C0000000
C0000000
C0000000
FFFFFE00
C0000000
C0000000
C0000000
C0000000
C0000000
C0000000
C0000000
C0000000
C0000000
C0000000
C0000000
C0000000
C0000000
C0000000
C0000000
C0000000
C0000000
C0000000
FFFFFFC0
ENDCHAR
STARTCHAR 00C9
ENCODING 201
SWIDTH 666 0
DWIDTH 37 0
BBX 26 48 7 0
BITMAP
00007000
0000C000
00018000
00020000
000C0000
00180000
00000000
00000000
00000000
FFFFFF80
C0000000
C0000000
C0000000
C0000000
C0000000
C0000000
C0000000
C0000000
C0000000
C0000000
C0000000
C0000000
C0000000
C0000000
C0000000
C0000000
C0000000
C0000000
FFFFFE00
C0000000
C0000000
C0000000
C0000000
C0000000
C0000000
C0000000
C0000000
C0000000
C0000000
C0000000
C0000000
C0000000
C0000000
C0000000
C0000000
C0000000
C0000000
FFFFFFC0
ENDCHAR
STARTCHAR 00CA
ENCODING 202
SWIDTH 666 0
DWIDTH 37 0
BBX 26 48 7 0
BITMAP
001E0000
00330000
00618000
00C0C000
01806000
02001000
00000000
00000000
00000000
FFFFFF80
C0000000
C0000000
C0000000
C0000000
C0000000
C0000000
C0000000
C0000000
C0000000
C0000000
C0000000
C0000000
C0000000
C0000000
C0000000
C0000000
C0000000
C0000000
FFFFFE00
C0000000
C0000000
C0000000
C0000000
C0000000
C0000000
C0000000
C0000000
C0000000
C0000000
C0000000
C0000000
C0000000
C0000000
C0000000
C0000000
C0000000
C0000000
FFFFFFC0
ENDCHAR
STARTCHAR 00CB
ENCODING 203
SWIDTH 666 0
DWIDTH 37 0
BBX 26 47 7 0
BITMAP
00804000
01C0E000
01C0E000
00000000
00000000
00000000
00000000
00000000
FFFFFF80
C0000000
C0000000
C0000000
C0000000
C0000000
C0000000
C0000000
C0000000
C0000000
C0000000
C0000000
C0000000
C0000000
C0000000
C0000000
C0000000
C0000000
C0000000
FFFFFE00
C0000000
C0000000
C0000000
C0000000
C0000000
C0000000
C0000000
C0000000
C0000000
C0000000
C0000000
C0000000
C0000000
C0000000
C0000000
C0000000
C0000000
C0000000
FFFFFFC0
ENDCHAR
STARTCHAR 00CC
ENCODING 204
SWIDTH 270 0
DWIDTH 15 0
BBX 9 48 1 0
BITMAP
E000
3000
1800
0C00
0300
0180
0000
0000
0000
0300
0300
0300
0300
0300
0300
0300
0300
0300
0300
0300
0300
0300
0300
0300
0300
0300
0300
0300
0300
0300
0300
0300
0300
0300
0300
0300
0300
0300
0300
0300
0300
0300
0300
0300
0300
0300
0300
0300
ENDCHAR
STARTCHAR 00CD
ENCODING 205
SWIDTH 270 0
DWIDTH 15 0
BBX 9 48 6 0
BITMAP
0380
0600
0C00
1000
6000
C000
0000
0000
0000
6000
6000
6000
6000
6000
6000
6000
6000
6000
6000
6000
6000
6000
6000
6000
6000
6000
6000
6000
6000
6000
6000
6000
6000
6000
6000
6000
6000
6000
6000
6000
6000
6000
6000
6000
6000
6000
6000
6000
ENDCHAR
STARTCHAR 00CE
ENCODING 206
SWIDTH 270 0
DWIDTH 15 0
BBX 14 48 1 0
BITMAP
0780
0CC0
1860
3030
6018
8004
0000
0000
0000
0300
0300
0300
0300
0300
0300
0300
0300
0300
0300
0300
0300
0300
0300
0300
0300
0300
0300
0300
0300
0300
0300
0300
0300
0300
0300
0300
0300
0300
0300
0300
0300
0300
0300
0300
0300
0300
0300
0300
ENDCHAR
STARTCHAR 00CF
ENCODING 207
SWIDTH 270 0
DWIDTH 15 0
BBX 12 47 2 0
BITMAP
4020
E070
E070
0000
0000
0000
0000
0000
0600
0600
0600
0600
0600
0600
0600
0600
0600
0600
0600
0600
0600
0600
0600
0600
0600
0600
0600
0600
0600
0600
0600
0600
0600
0600
0600
0600
0600
0600
0600
0600
0600
0600
0600
0600
0600
0600
0600
ENDCHAR
STARTCHAR 00D0
ENCODING 208
SWIDTH 810 0
DWIDTH 45 0
BBX 42 39 1 0
BITMAP
03FFFF800000
030000780000
030000070000
030000018000
030000006000
030000003000
030000001800
030000000C00
030000000400
030000000200
030000000300
030000000100
030000000100
030000000080
030000000080
030000000080
030000000080
0300000000C0
0300000000C0
FFFFF00000C0
0300000000C0
0300000000C0
030000000080
030000000080
030000000080
030000000080
030000000100
030000000100
030000000300
030000000200
030000000400
030000000C00
030000001800
030000003000
030000006000
03000001C000
030000070000
0300003C0000
03FFFFC00000
ENDCHAR
STARTCHAR 00D1
ENCODING 209
SWIDTH 810 0
DWIDTH 45 0
BBX 31 48 7 0
BITMAP
00080000
00760200
00430200
00C08400
00807C00
00000000
00000000
00000000
00000000
C0000002
C0000002
E0000002
D0000002
D8000002
C8000002
C4000002
C2000002
C3000002
C1800002
C0800002
C0400002
C0600002
C0300002
C0100002
C0080002
C0040002
C0060002
C0030002
C0010002
C0008002
C000C002
C0006002
C0002002
C0001002
C0000802
C0000C02
C0000602
C0000202
C0000102
C0000182
C00000C2
C0000042
C0000022
C0000012
C000001A
C000000E
C0000006
C0000002
ENDCHAR
STARTCHAR 00D2
ENCODING 210
SWIDTH 828 0
DWIDTH 46 0
BBX 40 48 3 0
BITMAP
0007000000
0001800000
0000C00000
0000300000
0000180000
00000C0000
0000000000
0000000000
0000000000
0001FF8000
000F007000
0038000C00
00C0000300
0180000180
0300000040
0600000020
0C00000010
0800000008
100000000C
3000000004
2000000006
6000000002
4000000002
4000000003
4000000001
C000000001
8000000001
8000000001
8000000001
8000000001
8000000001
C000000001
4000000001
4000000003
4000000002
6000000002
2000000006
3000000004
100000000C
1800000008
0C00000010
0400000020
0300000060
0180000080
00C0000300
0030000E00
000E007800
0001FFC000
ENDCHAR
STARTCHAR 00D3
ENCODING 211
SWIDTH 828 0
DWIDTH 46 0
BBX 40 48 3 0
BITMAP
0000006000
0000018000
0000030000
0000060000
0000080000
0000300000
0000000000
0000000000
0000000000
0001FF8000
000F007000
0038000C00
00C0000300
0180000180
0300000040
0600000020
0C00000010
0800000008
100000000C
3000000004
2000000006
6000000002
4000000002
4000000003
4000000001
C000000001
8000000001
8000000001
8000000001
8000000001
8000000001
C000000001
4000000001
4000000003
4000000002
6000000002
2000000006
3000000004
100000000C
1800000008
0C00000010
0400000020
0300000060
0180000080
00C0000300
0030000E00
000E007800
0001FFC000
ENDCHAR
STARTCHAR 00D4
ENCODING 212
SWIDTH 828 0
DWIDTH 46 0
BBX 40 48 3 0
BITMAP
00001C0000
0000660000
0000C30000
0001808000
0003004000
0006002000
0000000000
0000000000
0000000000
0001FF8000
000F007000
0038000C00
00C0000300
0180000180
0300000040
0600000020
0C00000010
0800000008
100000000C
3000000004
2000000006
6000000002
4000000002
4000000003
4000000001
C000000001
8000000001
8000000001
8000000001
8000000001
8000000001
C000000001
4000000001
4000000003
4000000002
6000000002
2000000006
3000000004
100000000C
1800000008
0C00000010
0400000020
0300000060
0180000080
00C0000300
0030000E00
000E007800
0001FFC000
ENDCHAR
STARTCHAR 00D5
ENCODING 213
SWIDTH 828 0
DWIDTH 46 0
BBX 40 48 3 0
BITMAP
0000C00000
0003701000
0006182000
00040C2000
000407C000
0000000000
0000000000
0000000000
0000000000
0001FF8000
000F007000
0038000C00
00C0000300
0180000180
0300000040
0600000020
0C00000010
0800000008
100000000C
3000000004
2000000006
6000000002
4000000002
4000000003
4000000001
C000000001
8000000001
8000000001
8000000001
8000000001
8000000001
C000000001
4000000001
4000000003
4000000002
6000000002
2000000006
3000000004
100000000C
1800000008
0C00000010
0400000020
0300000060
0180000080
00C0000300
0030000E00
000E007800
0001FFC000
ENDCHAR
STARTCHAR 00D6
ENCODING 214
SWIDTH 828 0
DWIDTH 46 0
BBX 40 47 3 0
BITMAP
000100C000
000381C000
000180C000
0000000000
0000000000
0000000000
0000000000
0000000000
0001FF8000
000F007000
0038000C00
00C0000300
0180000180
0300000040
0600000020
0C00000010
0800000008
100000000C
3000000004
2000000006
6000000002
4000000002
4000000003
4000000001
C000000001
8000000001
8000000001
8000000001
8000000001
8000000001
C000000001
4000000001
4000000003
4000000002
6000000002
2000000006
3000000004
100000000C
1800000008
0C00000010
0400000020
0300000060
0180000080
00C0000300
0030000E00
000E007800
0001FFC000
ENDCHAR
STARTCHAR 00D7
ENCODING 215
SWIDTH 558 0
DWIDTH 31 0
BBX 17 17 7 11
BITMAP
800080
400100
200200
100400
080800
041000
022000
014000
008000
014000
022000
041000
080800
100400
200200
400100
800080
ENDCHAR
STARTCHAR 00D8
ENCODING 216
SWIDTH 828 0
DWIDTH 46 0
BBX 40 47 3 -4
BITMAP
000000000C
0000000008
0000000010
0000000030
0001FF8020
000F007040
0038000C80
00C0000380
0180000180
0300000240
0600000420
0C00000C10
0800000808
100000100C
3000003004
2000006006
6000004002
4000008002
4000018003
4000010001
C000020001
8000040001
80000C0001
8000080001
8000100001
8000200001
C000600001
4000400001
4000800003
4001800002
6003000002
2002000006
3004000004
100C00000C
1808000008
0C10000010
0420000020
0360000060
01C0000080
00C0000300
0130000E00
030E007800
0201FFC000
0400000000
0C00000000
1800000000
1000000000
ENDCHAR
STARTCHAR 00D9
ENCODING 217
SWIDTH 792 0
DWIDTH 44 0
BBX 30 48 7 0
BITMAP
00E00000
00300000
00180000
00040000
00030000
00018000
00000000
00000000
00000000
80000004
80000004
80000004
80000004
80000004
80000004
80000004
80000004
80000004
80000004
80000004
80000004
80000004
80000004
80000004
80000004
80000004
80000004
80000004
80000004
80000004
80000004
80000004
80000004
80000004
80000004
80000004
C000000C
40000008
40000008
40000008
20000010
20000010
10000020
08000060
040000C0
03000300
01C00E00
003FF000
ENDCHAR
STARTCHAR 00DA
ENCODING 218
SWIDTH 792 0
DWIDTH 44 0
BBX 30 48 7 0
BITMAP
00001C00
00003000
00006000
0000C000
00030000
00060000
00000000
00000000
00000000
80000004
80000004
80000004
80000004
80000004
80000004
80000004
80000004
80000004
80000004
80000004
80000004
80000004
80000004
80000004
80000004
80000004
80000004
80000004
80000004
80000004
80000004
80000004
80000004
80000004
80000004
80000004
C000000C
40000008
40000008
40000008
20000010
20000010
10000020
08000060
040000C0
03000300
01C00E00
003FF000
ENDCHAR
STARTCHAR 00DB
ENCODING 219
SWIDTH 792 0
DWIDTH 44 0
BBX 30 48 7 0
BITMAP
00078000
000CC000
00186000
00303000
00601800
00800400
00000000
00000000
00000000
80000004
80000004
80000004
80000004
80000004
80000004
80000004
80000004
80000004
80000004
80000004
80000004
80000004
80000004
80000004
80000004
80000004
80000004
80000004
80000004
80000004
80000004
80000004
80000004
80000004
80000004
80000004
C000000C
40000008
40000008
40000008
20000010
20000010
10000020
08000060
040000C0
03000300
01C00E00
003FF000
ENDCHAR
STARTCHAR 00DC
ENCODING 220
SWIDTH 792 0
DWIDTH 44 0
BBX 30 47 7 0
BITMAP
00201800
00703800
00701800
00000000
00000000
00000000
00000000
00000000
80000004
80000004
80000004
80000004
80000004
80000004
80000004
80000004
80000004
80000004
80000004
80000004
80000004
80000004
80000004
80000004
80000004
80000004
80000004
80000004
80000004
80000004
80000004
80000004
80000004
80000004
80000004
C000000C
40000008
40000008
40000008
20000010
20000010
10000020
08000060
040000C0
03000300
01C00E00
003FF000
ENDCHAR
STARTCHAR 00DD
ENCODING 221
SWIDTH 594 0
DWIDTH 33 0
BBX 32 48 1 0
BITMAP
00000E00
00001800
00003000
00004000
00018000
00030000
00000000
00000000
00000000
80000001
C0000003
40000002
20000004
3000000C
10000008
18000010
08000030
04000020
06000060
02000040
01000080
01000180
00800100
00C00200
00400200
00200400
00300C00
00100800
00081000
00083000
00042000
00066000
00024000
00018000
00018000
00018000
00018000
00018000
00018000
00018000
00018000
00018000
00018000
00018000
00018000
00018000
00018000
00018000
ENDCHAR
STARTCHAR 00DE
ENCODING 222
SWIDTH 702 0
DWIDTH 39 0
BBX 29 39 7 0
BITMAP
C0000000
C0000000
C0000000
C0000000
C0000000
C0000000
FFFFF000
C0000C00
C0000300
C0000080
C0000040
C0000020
C0000030
C0000010
C0000010
C0000018
C0000008
C0000008
C0000008
C0000008
C0000008
C0000018
C0000010
C0000010
C0000030
C0000020
C0000040
C0000080
C0000300
C0001C00
FFFFF000
C0000000
C0000000
C0000000
C0000000
C0000000
C0000000
C0000000
C0000000
ENDCHAR
STARTCHAR 00DF
ENCODING 223
SWIDTH 648 0
DWIDTH 36 0
BBX 27 41 6 0
BITMAP
00FFC000
03003000
0C001800
18000400
10000600
20000200
60000300
40000100
40000100
40000100
C0000100
C0000100
C0000100
C0000200
C0000200
C0000400
C0000800
C0001000
C0006000
C01F8000
C000F800
C0000E00
C0000300
C0000180
C00000C0
C0000040
C0000060
C0000020
C0000020
C0000020
C0000020
C0000020
C0000020
C0000020
C0000040
C0000040
C0000080
C0000100
C0000600
C0401C00
C07FE000
ENDCHAR
STARTCHAR 00E0
ENCODING 224
SWIDTH 558 0
DWIDTH 31 0
BBX 22 40 4 0
BITMAP
0C0000
070000
018000
00C000
002000
001800
000000
000000
000000
000000
000000
00FE00
0701C0
180060
600030
C00018
000008
000008
00000C
000004
000004
000004
000004
000004
00FFFC
0F8004
300004
600004
C00004
800004
800004
800004
80000C
80000C
800014
C00034
400024
3000C4
1C0384
07FC04
ENDCHAR
STARTCHAR 00E1
ENCODING 225
SWIDTH 558 0
DWIDTH 31 0
BBX 22 40 4 0
BITMAP
0000C0
000180
000600
000C00
001800
002000
004000
000000
000000
000000
000000
00FE00
0701C0
180060
600030
C00018
000008
000008
00000C
000004
000004
000004
000004
000004
00FFFC
0F8004
300004
600004
C00004
800004
800004
800004
80000C
80000C
800014
C00034
400024
3000C4
1C0384
07FC04
ENDCHAR
STARTCHAR 00E2
ENCODING 226
SWIDTH 558 0
DWIDTH 31 0
BBX 22 40 4 0
BITMAP
003000
006C00
008600
010300
060180
0C00C0
000000
000000
000000
000000
000000
00FE00
0701C0
180060
600030
C00018
000008
000008
00000C
000004
000004
000004
000004
000004
00FFFC
0F8004
300004
600004
C00004
800004
800004
800004
80000C
80000C
800014
C00034
400024
3000C4
1C0384
07FC04
ENDCHAR
STARTCHAR 00E3
ENCODING 227
SWIDTH 558 0
DWIDTH 31 0
BBX 22 39 4 0
BITMAP
07C020
0C2060
081040
080D80
080200
000000
000000
000000
000000
000000
00FE00
0701C0
180060
600030
C00018
000008
000008
00000C
000004
000004
000004
000004
000004
00FFFC
0F8004
300004
600004
C00004
800004
800004
800004
80000C
80000C
800014
C00034
400024
3000C4
1C0384
07FC04
ENDCHAR
STARTCHAR 00E4
ENCODING 228
SWIDTH 558 0
DWIDTH 31 0
BBX 22 38 4 1
BITMAP
070380
070380
000000
000000
000000
000000
000000
000000
000000
00FE00
0701C0
180060
600030
C00018
000008
000008
00000C
000004
000004
000004
000004
000004
00FFFC
0F8004
300004
600004
C00004
800004
800004
800004
80000C
80000C
800014
C00034
400024
3000C4
1C0384
07FC04
ENDCHAR
STARTCHAR 00E5
ENCODING 229
SWIDTH 558 0
DWIDTH 31 0
BBX 22 43 4 0
BITMAP
00FC00
018200
010300
020100
020100
020100
020100
010200
00C600
007800
000000
000000
000000
000000
00FE00
0701C0
180060
600030
C00018
000008
000008
00000C
000004
000004
000004
000004
000004
00FFFC
0F8004
300004
600004
C00004
800004
800004
800004
80000C
80000C
800014
C00034
400024
3000C4
1C0384
07FC04
ENDCHAR
STARTCHAR 00E6
ENCODING 230
SWIDTH 972 0
DWIDTH 54 0
BBX 47 29 4 0
BITMAP
00FE0001F800
0701C00E0700
1800603000C0
600030600060
C00018C00030
000009800018
000009000008
00000E000004
000006000004
000006000002
000004000002
000004000002
000004000002
00FFFFFFFFFE
0FFFFFFFFFFE
300004000000
600004000000
C00004000000
800004000000
800006000000
80000E000000
80000B000000
800009000000
800019800000
C00010C0000C
400020600018
3000C0100030
1C03800E01C0
07FC0001FF00
ENDCHAR
STARTCHAR 00E7
ENCODING 231
SWIDTH 540 0
DWIDTH 30 0
BBX 24 41 3 -12
BITMAP
001FC0
00E070
03000C
040002
080001
100000
200000
200000
400000
400000
C00000
800000
800000
800000
800000
800000
800000
800000
C00000
400000
400000
600000
200000
100000
180001
0C0003
03000C
01C038
007FE0
000800
000800
000800
000E00
000300
000080
000080
000080
000080
000180
00E300
003C00
ENDCHAR
STARTCHAR 00E8
ENCODING 232
SWIDTH 576 0
DWIDTH 32 0
BBX 27 40 3 0
BITMAP
03800000
00C00000
00600000
00300000
000C0000
00060000
00000000
00000000
00000000
00000000
00000000
003F0000
01E0E000
03001800
0C000C00
18000200
10000100
20000180
60000080
400000C0
40000040
C0000040
80000040
80000060
80000020
FFFFFFE0
80000000
80000000
80000000
C0000000
40000000
40000000
20000000
20000000
10000000
18000180
0C000300
03000600
01C03800
003FE000
ENDCHAR
STARTCHAR 00E9
ENCODING 233
SWIDTH 576 0
DWIDTH 32 0
BBX 27 40 3 0
BITMAP
00003000
00006000
0000C000
00030000
00060000
000C0000
00100000
00000000
00000000
00000000
00000000
003F0000
01E0E000
03001800
0C000C00
18000200
10000100
20000180
60000080
400000C0
40000040
C0000040
80000040
80000060
80000020
FFFFFFE0
80000000
80000000
80000000
C0000000
40000000
40000000
20000000
20000000
10000000
18000180
0C000300
03000600
01C03800
003FE000
ENDCHAR
STARTCHAR 00EA
ENCODING 234
SWIDTH 576 0
DWIDTH 32 0
BBX 27 40 3 0
BITMAP
000E0000
001B0000
00318000
0040C000
00806000
01001000
02000000
00000000
00000000
00000000
00000000
003F0000
01E0E000
03001800
0C000C00
18000200
10000100
20000180
60000080
400000C0
40000040
C0000040
80000040
80000060
80000020
FFFFFFE0
80000000
80000000
80000000
C0000000
40000000
40000000
20000000
20000000
10000000
18000180
0C000300
03000600
01C03800
003FE000
ENDCHAR
STARTCHAR 00EB
ENCODING 235
SWIDTH 576 0
DWIDTH 32 0
BBX 27 38 3 1
BITMAP
01C06000
01C06000
00000000
00000000
00000000
00000000
00000000
00000000
00000000
003F0000
01E0E000
03001800
0C000C00
18000200
10000100
20000180
60000080
400000C0
40000040
C0000040
80000040
80000060
80000020
FFFFFFE0
80000000
80000000
80000000
C0000000
40000000
40000000
20000000
20000000
10000000
18000180
0C000300
03000600
01C03800
003FE000
ENDCHAR
STARTCHAR 00EC
ENCODING 236
SWIDTH 234 0
DWIDTH 13 0
BBX 9 40 0 0
BITMAP
C000
6000
1800
0C00
0600
0100
0080
0000
0000
0000
0000
0300
0300
0300
0300
0300
0300
0300
0300
0300
0300
0300
0300
0300
0300
0300
0300
0300
0300
0300
0300
0300
0300
0300
0300
0300
0300
0300
0300
0300
ENDCHAR
STARTCHAR 00ED
ENCODING 237
SWIDTH 234 0
DWIDTH 13 0
BBX 9 40 5 0
BITMAP
0180
0300
0C00
1800
3000
C000
0000
0000
0000
0000
0000
6000
6000
6000
6000
6000
6000
6000
6000
6000
6000
6000
6000
6000
6000
6000
6000
6000
6000
6000
6000
6000
6000
6000
6000
6000
6000
6000
6000
6000
ENDCHAR
STARTCHAR 00EE
ENCODING 238
SWIDTH 234 0
DWIDTH 13 0
BBX 12 40 1 0
BITMAP
0600
0F00
1980
30C0
6060
C030
0000
0000
0000
0000
0000
0600
0600
0600
0600
0600
0600
0600
0600
0600
0600
0600
0600
0600
0600
0600
0600
0600
0600
0600
0600
0600
0600
0600
0600
0600
0600
0600
0600
0600
ENDCHAR
STARTCHAR 00EF
ENCODING 239
SWIDTH 234 0
DWIDTH 13 0
BBX 9 38 2 1
BITMAP
E180
6180
0000
0000
0000
0000
0000
0000
0000
0C00
0C00
0C00
0C00
0C00
0C00
0C00
0C00
0C00
0C00
0C00
0C00
0C00
0C00
0C00
0C00
0C00
0C00
0C00
0C00
0C00
0C00
0C00
0C00
0C00
0C00
0C00
0C00
0C00
ENDCHAR
STARTCHAR 00F0
ENCODING 240
SWIDTH 612 0
DWIDTH 34 0
BBX 28 39 3 0
BITMAP
07FF0080
1C00E300
00003C00
00007C00
0001C200
00060100
00380080
00E000C0
03800040
04000060
00000020
00000020
00000030
00000010
00000010
007F8010
01C0F010
06001C10
08000610
10000310
20000190
60000090
400000D0
C0000050
80000050
80000050
80000070
80000060
80000060
80000060
C0000040
400000C0
40000080
20000180
30000300
18000600
0C000C00
03807000
00FFC000
ENDCHAR
STARTCHAR 00F1
ENCODING 241
SWIDTH 666 0
DWIDTH 37 0
BBX 25 39 6 0
BITMAP
01E01000
02181000
060C3000
0407E000
04018000
00000000
00000000
00000000
00000000
00000000
C03F8000
C1C07000
C3001800
CC000400
D8000200
D0000300
E0000100
E0000100
C0000080
C0000080
C0000080
C0000080
C0000080
C0000080
C0000080
C0000080
C0000080
C0000080
C0000080
C0000080
C0000080
C0000080
C0000080
C0000080
C0000080
C0000080
C0000080
C0000080
C0000080
ENDCHAR
STARTCHAR 00F2
ENCODING 242
SWIDTH 594 0
DWIDTH 33 0
BBX 28 40 3 0
BITMAP
01800000
00C00000
00300000
00180000
000C0000
00020000
00010000
00000000
00000000
00000000
00000000
001F8000
00E07000
03000C00
04000600
08000100
10000080
200000C0
20000040
40000020
40000020
C0000020
80000030
80000010
80000010
80000010
80000010
80000010
80000010
C0000020
40000020
40000020
60000040
20000040
10000080
18000100
0C000200
03000C00
01C03800
007FE000
ENDCHAR
STARTCHAR 00F3
ENCODING 243
SWIDTH 594 0
DWIDTH 33 0
BBX 28 40 3 0
BITMAP
00001800
00003000
0000C000
00018000
00030000
000C0000
00000000
00000000
00000000
00000000
00000000
001F8000
00E07000
03000C00
04000600
08000100
10000080
200000C0
20000040
40000020
40000020
C0000020
80000030
80000010
80000010
80000010
80000010
80000010
80000010
C0000020
40000020
40000020
60000040
20000040
10000080
18000100
0C000200
03000C00
01C03800
007FE000
ENDCHAR
STARTCHAR 00F4
ENCODING 244
SWIDTH 594 0
DWIDTH 33 0
BBX 28 40 3 0
BITMAP
00060000
000B0000
00308000
00606000
00C03000
01801800
00000000
00000000
00000000
00000000
00000000
001F8000
00E07000
03000C00
04000600
08000100
10000080
200000C0
20000040
40000020
40000020
C0000020
80000030
80000010
80000010
80000010
80000010
80000010
80000010
C0000020
40000020
40000020
60000040
20000040
10000080
18000100
0C000200
03000C00
01C03800
007FE000
ENDCHAR
STARTCHAR 00F5
ENCODING 245
SWIDTH 594 0
DWIDTH 33 0
BBX 28 39 3 0
BITMAP
00F80800
018C0800
01060800
0301B000
02004000
00000000
00000000
00000000
00000000
00000000
001F8000
00E07000
03000C00
04000600
08000100
10000080
200000C0
20000040
40000020
40000020
C0000020
80000030
80000010
80000010
80000010
80000010
80000010
80000010
C0000020
40000020
40000020
60000040
20000040
10000080
18000100
0C000200
03000C00
01C03800
007FE000
ENDCHAR
STARTCHAR 00F6
ENCODING 246
SWIDTH 594 0
DWIDTH 33 0
BBX 28 39 3 0
BITMAP
00402000
00E07000
00E07000
00000000
00000000
00000000
00000000
00000000
00000000
00000000
001F8000
00E07000
03000C00
04000600
08000100
10000080
200000C0
20000040
40000020
40000020
C0000020
80000030
80000010
80000010
80000010
80000010
80000010
80000010
C0000020
40000020
40000020
60000040
20000040
10000080
18000100
0C000200
03000C00
01C03800
007FE000
ENDCHAR
STARTCHAR 00F7
ENCODING 247
SWIDTH 558 0
DWIDTH 31 0
BBX 23 23 4 8
BITMAP
001800
003800
001800
000000
000000
000000
000000
000000
000000
000000
000000
FFFFFE
000000
000000
000000
000000
000000
000000
000000
000000
001800
003800
001800
ENDCHAR
STARTCHAR 00F8
ENCODING 248
SWIDTH 594 0
DWIDTH 33 0
BBX 28 37 3 -4
BITMAP
00000020
00000040
000000C0
00000080
001F8100
00E07200
03000E00
04000600
08000900
10001880
200010C0
20002040
40006020
40004020
C0008020
80018030
80010010
80020010
80060010
80040010
80080010
80180010
C0100020
40200020
40600020
60400040
20800040
11800080
19000100
0E000200
07000C00
05C03800
087FE000
10000000
30000000
20000000
40000000
ENDCHAR
STARTCHAR 00F9
ENCODING 249
SWIDTH 648 0
DWIDTH 36 0
BBX 25 40 6 0
BITMAP
06000000
01800000
00C00000
00600000
00180000
000C0000
00000000
00000000
00000000
00000000
00000000
80000180
80000180
80000180
80000180
80000180
80000180
80000180
80000180
80000180
80000180
80000180
80000180
80000180
80000180
80000180
80000180
80000180
80000180
80000180
80000180
80000180
40000380
40000380
60000580
20000580
10001980
08003180
0700E180
01FF0180
ENDCHAR
STARTCHAR 00FA
ENCODING 250
SWIDTH 648 0
DWIDTH 36 0
BBX 25 40 6 0
BITMAP
00006000
0000C000
00018000
00060000
000C0000
00180000
00200000
00000000
00000000
00000000
00000000
80000180
80000180
80000180
80000180
80000180
80000180
80000180
80000180
80000180
80000180
80000180
80000180
80000180
80000180
80000180
80000180
80000180
80000180
80000180
80000180
80000180
40000380
40000380
60000580
20000580
10001980
08003180
0700E180
01FF0180
ENDCHAR
STARTCHAR 00FB
ENCODING 251
SWIDTH 648 0
DWIDTH 36 0
BBX 25 40 6 0
BITMAP
001C0000
00360000
00630000
00818000
0100C000
06002000
00000000
00000000
00000000
00000000
00000000
80000180
80000180
80000180
80000180
80000180
80000180
80000180
80000180
80000180
80000180
80000180
80000180
80000180
80000180
80000180
80000180
80000180
80000180
80000180
80000180
80000180
40000380
40000380
60000580
20000580
10001980
08003180
0700E180
01FF0180
ENDCHAR
STARTCHAR 00FC
ENCODING 252
SWIDTH 648 0
DWIDTH 36 0
BBX 25 38 6 1
BITMAP
0381C000
0380C000
00000000
00000000
00000000
00000000
00000000
00000000
00000000
80000180
80000180
80000180
80000180
80000180
80000180
80000180
80000180
80000180
80000180
80000180
80000180
80000180
80000180
80000180
80000180
80000180
80000180
80000180
80000180
80000180
40000380
40000380
60000580
20000580
10001980
08003180
0700E180
01FF0180
ENDCHAR
STARTCHAR 00FD
ENCODING 253
SWIDTH 504 0
DWIDTH 28 0
BBX 30 51 -2 -11
BITMAP
00000C00
00001800
00003000
0000C000
00018000
00030000
00040000
00000000
00000000
00000000
00000000
3000000C
10000008
18000008
08000010
0C000010
04000030
04000020
02000060
02000040
010000C0
01000080
01800180
00800100
00C00100
00400200
00600200
00200400
00200400
00100C00
00100800
00081800
00081000
00043000
00042000
00062000
00024000
00034000
00018000
00018000
00018000
00010000
00030000
00020000
00060000
00040000
000C0000
00080000
C0100000
30600000
0F800000
ENDCHAR
STARTCHAR 00FE
ENCODING 254
SWIDTH 666 0
DWIDTH 37 0
BBX 28 52 6 -11
BITMAP
C0000000
C0000000
C0000000
C0000000
C0000000
C0000000
C0000000
C0000000
C0000000
C0000000
C0000000
C0000000
C01FC000
C0F07800
C3800C00
C6000300
CC000180
D8000080
D0000040
E0000060
E0000020
C0000020
C0000010
C0000010
C0000010
C0000010
C0000010
C0000010
C0000010
C0000010
C0000010
C0000030
E0000020
E0000020
D0000040
D00000C0
C8000180
C4000300
C3000600
C0C03800
C03FE000
C0000000
C0000000
C0000000
C0000000
C0000000
C0000000
C0000000
C0000000
C0000000
C0000000
C0000000
ENDCHAR
STARTCHAR 00FF
ENCODING 255
SWIDTH 504 0
DWIDTH 28 0
BBX 30 49 -2 -10
BITMAP
00703800
00701800
00000000
00000000
00000000
00000000
00000000
00000000
00000000
3000000C
10000008
18000008
08000010
0C000010
04000030
04000020
02000060
02000040
010000C0
01000080
01800180
00800100
00C00100
00400200
00600200
00200400
00200400
00100C00
00100800
00081800
00081000
00043000
00042000
00062000
00024000
00034000
00018000
00018000
00018000
00010000
00030000
00020000
00060000
00040000
000C0000
00080000
C0100000
30600000
0F800000
ENDCHAR
STARTCHAR 0100
ENCODING 256
SWIDTH 684 0
DWIDTH 38 0
BBX 37 46 1 0
BITMAP
001FFFC000
0000000000
0000000000
0000000000
0000000000
0000000000
0000000000
0000600000
0000600000
0000D00000
0000900000
0000980000
0001080000
00010C0000
0002040000
0002060000
0004020000
0004030000
000C010000
0008010000
0018008000
0010008000
0030004000
0020004000
0060006000
0040002000
0040003000
0080001000
0080001800
0100000800
0100000C00
0300000400
0200000400
07FFFFFE00
0400000200
0C00000100
0800000100
1800000080
1000000080
10000000C0
2000000040
2000000060
4000000020
4000000030
8000000010
8000000018
ENDCHAR
STARTCHAR 0101
ENCODING 257
SWIDTH 558 0
DWIDTH 31 0
BBX 22 37 4 0
BITMAP
0FFFE0
000000
000000
000000
000000
000000
000000
000000
00FE00
0701C0
180060
600030
C00018
000008
000008
00000C
000004
000004
000004
000004
000004
00FFFC
0F8004
300004
600004
C00004
800004
800004
800004
80000C
80000C
800014
C00034
400024
3000C4
1C0384
07FC04
ENDCHAR
STARTCHAR 0102
ENCODING 258
SWIDTH 684 0
DWIDTH 38 0
BBX 37 48 1 0
BITMAP
0010008000
0010008000
0018008000
000C010000
0006060000
0001F80000
0000000000
0000000000
0000000000
0000600000
0000600000
0000D00000
0000900000
0000980000
0001080000
00010C0000
0002040000
0002060000
0004020000
0004030000
000C010000
0008010000
0018008000
0010008000
0030004000
0020004000
0060006000
0040002000
0040003000
0080001000
0080001800
0100000800
0100000C00
0300000400
0200000400
07FFFFFE00
0400000200
0C00000100
0800000100
1800000080
1000000080
10000000C0
2000000040
2000000060
4000000020
4000000030
8000000010
8000000018
ENDCHAR
STARTCHAR 0103
ENCODING 259
SWIDTH 558 0
DWIDTH 31 0
BBX 22 40 4 0
BITMAP
080040
080040
0C0040
0400C0
030180
01FE00
000000
000000
000000
000000
000000
00FE00
0701C0
180060
600030
C00018
000008
000008
00000C
000004
000004
000004
000004
000004
00FFFC
0F8004
300004
600004
C00004
800004
800004
800004
80000C
80000C
800014
C00034
400024
3000C4
1C0384
07FC04
ENDCHAR
STARTCHAR 0104
ENCODING 260
SWIDTH 684 0
DWIDTH 38 0
BBX 38 51 1 -12
BITMAP
0000600000
0000600000
0000D00000
0000900000
0000980000
0001080000
00010C0000
0002040000
0002060000
0004020000
0004030000
000C010000
0008010000
0018008000
0010008000
0030004000
0020004000
0060006000
0040002000
0040003000
0080001000
0080001800
0100000800
0100000C00
0300000400
0200000400
07FFFFFE00
0400000200
0C00000100
0800000100
1800000080
1000000080
10000000C0
2000000040
2000000060
4000000020
4000000030
8000000010
8000000018
0000000070
00000000C0
0000000100
0000000200
0000000400
0000000400
0000000400
0000000400
0000000400
0000000400
000000031C
00000000F0
ENDCHAR
STARTCHAR 0105
ENCODING 261
SWIDTH 558 0
DWIDTH 31 0
BBX 23 41 4 -12
BITMAP
00FE00
0701C0
180060
600030
C00018
000008
000008
00000C
000004
000004
000004
000004
000004
00FFFC
0F8004
300004
600004
C00004
800004
800004
800004
80000C
80000C
800014
C00034
400024
3000C4
1C0384
07FC0C
000038
000060
000080
000100
000300
000200
000200
000200
000200
000300
00018E
000078
ENDCHAR
STARTCHAR 0106
ENCODING 262
SWIDTH 702 0
DWIDTH 39 0
BBX 33 48 3 0
BITMAP
000000E000
0000018000
0000030000
00000C0000
0000180000
0000200000
0000000000
0000000000
0000000000
0001FF8000
000F007000
0038000C00
00E0000300
0180000180
0300000000
0600000000
0C00000000
0800000000
1000000000
3000000000
2000000000
6000000000
4000000000
4000000000
4000000000
C000000000
8000000000
8000000000
8000000000
8000000000
8000000000
C000000000
4000000000
4000000000
4000000000
6000000000
2000000000
3000000000
1000000000
1800000000
0C00000000
0600000000
0300000000
0180000180
00C0000300
0030000E00
000E007800
0001FFC000
ENDCHAR
STARTCHAR 0107
ENCODING 263
SWIDTH 540 0
DWIDTH 30 0
BBX 24 40 3 0
BITMAP
000030
000060
000180
000300
000600
000800
001000
000000
000000
000000
000000
001FC0
00E070
03000C
040002
080001
100000
200000
200000
400000
400000
C00000
800000
800000
800000
800000
800000
800000
800000
C00000
400000
400000
600000
200000
100000
180001
0C0003
03000C
01C038
007FE0
ENDCHAR
STARTCHAR 0108
ENCODING 264
SWIDTH 702 0
DWIDTH 39 0
BBX 33 48 3 0
BITMAP
0000380000
0000640000
0000C30000
0001018000
000200C000
000C006000
0000000000
0000000000
0000000000
0001FF8000
000F007000
0038000C00
00E0000300
0180000180
0300000000
0600000000
0C00000000
0800000000
1000000000
3000000000
2000000000
6000000000
4000000000
4000000000
4000000000
C000000000
8000000000
8000000000
8000000000
8000000000
8000000000
C000000000
4000000000
4000000000
4000000000
6000000000
2000000000
3000000000
1000000000
1800000000
0C00000000
0600000000
0300000000
0180000180
00C0000300
0030000E00
000E007800
0001FFC000
ENDCHAR
STARTCHAR 0109
ENCODING 265
SWIDTH 540 0
DWIDTH 30 0
BBX 24 40 3 0
BITMAP
000C00
001B00
002180
0040C0
018060
030030
000000
000000
000000
000000
000000
001FC0
00E070
03000C
040002
080001
100000
200000
200000
400000
400000
C00000
800000
800000
800000
800000
800000
800000
800000
C00000
400000
400000
600000
200000
100000
180001
0C0003
03000C
01C038
007FE0
ENDCHAR
STARTCHAR 010A
ENCODING 266
SWIDTH 702 0
DWIDTH 39 0
BBX 33 47 3 0
BITMAP
0000100000
0000380000
0000180000
0000000000
0000000000
0000000000
0000000000
0000000000
0001FF8000
000F007000
0038000C00
00E0000300
0180000180
0300000000
0600000000
0C00000000
0800000000
1000000000
3000000000
2000000000
6000000000
4000000000
4000000000
4000000000
C000000000
8000000000
8000000000
8000000000
8000000000
8000000000
C000000000
4000000000
4000000000
4000000000
6000000000
2000000000
3000000000
1000000000
1800000000
0C00000000
0600000000
0300000000
0180000180
00C0000300
0030000E00
000E007800
0001FFC000
ENDCHAR
STARTCHAR 010B
ENCODING 267
SWIDTH 540 0
DWIDTH 30 0
BBX 24 38 3 1
BITMAP
000E00
000C00
000000
000000
000000
000000
000000
000000
000000
001FC0
00E070
03000C
040002
080001
100000
200000
200000
400000
400000
C00000
800000
800000
800000
800000
800000
800000
800000
C00000
400000
400000
600000
200000
100000
180001
0C0003
03000C
01C038
007FE0
ENDCHAR
STARTCHAR 010C
ENCODING 268
SWIDTH 702 0
DWIDTH 39 0
BBX 33 48 3 0
BITMAP
0004006000
000200C000
0001810000
0000C60000
00006C0000
0000380000
0000000000
0000000000
0000000000
0001FF8000
000F007000
0038000C00
00E0000300
0180000180
0300000000
0600000000
0C00000000
0800000000
1000000000
3000000000
2000000000
6000000000
4000000000
4000000000
4000000000
C000000000
8000000000
8000000000
8000000000
8000000000
8000000000
C000000000
4000000000
4000000000
4000000000
6000000000
2000000000
3000000000
1000000000
1800000000
0C00000000
0600000000
0300000000
0180000180
00C0000300
0030000E00
000E007800
0001FFC000
ENDCHAR
STARTCHAR 010D
ENCODING 269
SWIDTH 540 0
DWIDTH 30 0
BBX 24 40 3 0
BITMAP
020010
018020
00C040
006180
003300
001E00
000000
000000
000000
000000
000000
001FC0
00E070
03000C
040002
080001
100000
200000
200000
400000
400000
C00000
800000
800000
800000
800000
800000
800000
800000
C00000
400000
400000
600000
200000
100000
180001
0C0003
03000C
01C038
007FE0
ENDCHAR
STARTCHAR 010E
ENCODING 270
SWIDTH 810 0
DWIDTH 45 0
BBX 36 48 7 0
BITMAP
00800C0000
0040180000
0030300000
0018400000
000D800000
0007000000
0000000000
0000000000
0000000000
FFFFE00000
C0001E0000
C00001C000
C000006000
C000001800
C000000C00
C000000600
C000000300
C000000100
C000000080
C0000000C0
C000000040
C000000040
C000000020
C000000020
C000000020
C000000020
C000000030
C000000030
C000000030
C000000030
C000000030
C000000020
C000000020
C000000020
C000000020
C000000040
C000000040
C0000000C0
C000000080
C000000100
C000000300
C000000600
C000000C00
C000001800
C000007000
C00001C000
C0000F0000
FFFFF00000
ENDCHAR
STARTCHAR 010F
ENCODING 271
SWIDTH 666 0
DWIDTH 37 0
BBX 35 42 3 0
BITMAP
0000000060
0000001060
0000001060
0000001060
0000001060
0000001060
0000001040
0000001040
0000001040
0000001040
0000001000
0000001000
0000001000
001F801000
00E0701000
03000C1000
0400061000
0800011000
1000009000
200000D000
2000005000
4000003000
4000003000
C000003000
8000003000
8000001000
8000001000
8000001000
8000001000
8000001000
8000001000
C000003000
4000003000
4000003000
6000005000
2000005000
1000009000
1800011000
0C00021000
03000C1000
01C0381000
007FC01000
ENDCHAR
STARTCHAR 0110
ENCODING 272
SWIDTH 810 0
DWIDTH 45 0
BBX 42 39 1 0
BITMAP
03FFFF800000
030000780000
030000070000
030000018000
030000006000
030000003000
030000001800
030000000C00
030000000400
030000000200
030000000300
030000000100
030000000100
030000000080
030000000080
030000000080
030000000080
0300000000C0
0300000000C0
FFFFF00000C0
0300000000C0
0300000000C0
030000000080
030000000080
030000000080
030000000080
030000000100
030000000100
030000000300
030000000200
030000000400
030000000C00
030000001800
030000003000
030000006000
03000001C000
030000070000
0300003C0000
03FFFFC00000
ENDCHAR
STARTCHAR 0111
ENCODING 273
SWIDTH 666 0
DWIDTH 37 0
BBX 34 41 3 0
BITMAP
0000001000
0000001000
0000001000
0000001000
0000001000
0007FFFFC0
0007FFFFC0
0000001000
0000001000
0000001000
0000001000
0000001000
001F801000
00E0701000
03000C1000
0400061000
0800011000
1000009000
200000D000
2000005000
4000003000
4000003000
C000003000
8000003000
8000001000
8000001000
8000001000
8000001000
8000001000
8000001000
C000003000
4000003000
4000003000
6000005000
2000005000
1000009000
1800011000
0C00021000
03000C1000
01C0381000
007FC01000
ENDCHAR
STARTCHAR 0112
ENCODING 274
SWIDTH 666 0
DWIDTH 37 0
BBX 26 46 7 0
BITMAP
07FFF800
00000000
00000000
00000000
00000000
00000000
00000000
FFFFFF80
C0000000
C0000000
C0000000
C0000000
C0000000
C0000000
C0000000
C0000000
C0000000
C0000000
C0000000
C0000000
C0000000
C0000000
C0000000
C0000000
C0000000
C0000000
FFFFFE00
C0000000
C0000000
C0000000
C0000000
C0000000
C0000000
C0000000
C0000000
C0000000
C0000000
C0000000
C0000000
C0000000
C0000000
C0000000
C0000000
C0000000
C0000000
FFFFFFC0
ENDCHAR
STARTCHAR 0113
ENCODING 275
SWIDTH 576 0
DWIDTH 32 0
BBX 27 37 3 0
BITMAP
03FFF800
00000000
00000000
00000000
00000000
00000000
00000000
00000000
003F0000
01E0E000
03001800
0C000C00
18000200
10000100
20000180
60000080
400000C0
40000040
C0000040
80000040
80000060
80000020
FFFFFFE0
80000000
80000000
80000000
C0000000
40000000
40000000
20000000
20000000
10000000
18000180
0C000300
03000600
01C03800
003FE000
ENDCHAR
STARTCHAR 0114
ENCODING 276
SWIDTH 666 0
DWIDTH 37 0
BBX 26 48 7 0
BITMAP
02001000
02001000
03003000
01002000
00C0C000
003F0000
00000000
00000000
00000000
FFFFFF80
C0000000
C0000000
C0000000
C0000000
C0000000
C0000000
C0000000
C0000000
C0000000
C0000000
C0000000
C0000000
C0000000
C0000000
C0000000
C0000000
C0000000
C0000000
FFFFFE00
C0000000
C0000000
C0000000
C0000000
C0000000
C0000000
C0000000
C0000000
C0000000
C0000000
C0000000
C0000000
C0000000
C0000000
C0000000
C0000000
C0000000
C0000000
FFFFFFC0
ENDCHAR
STARTCHAR 0115
ENCODING 277
SWIDTH 576 0
DWIDTH 32 0
BBX 27 40 3 0
BITMAP
02000800
02001800
03001000
01003000
00C06000
007F8000
00000000
00000000
00000000
00000000
00000000
003F0000
01E0E000
03001800
0C000C00
18000200
10000100
20000180
60000080
400000C0
40000040
C0000040
80000040
80000060
80000020
FFFFFFE0
80000000
80000000
80000000
C0000000
40000000
40000000
20000000
20000000
10000000
18000180
0C000300
03000600
01C03800
003FE000
ENDCHAR
STARTCHAR 0116
ENCODING 278
SWIDTH 666 0
DWIDTH 37 0
BBX 26 47 7 0
BITMAP
000C0000
001C0000
000C0000
00000000
00000000
00000000
00000000
00000000
FFFFFF80
C0000000
C0000000
C0000000
C0000000
C0000000
C0000000
C0000000
C0000000
C0000000
C0000000
C0000000
C0000000
C0000000
C0000000
C0000000
C0000000
C0000000
C0000000
FFFFFE00
C0000000
C0000000
C0000000
C0000000
C0000000
C0000000
C0000000
C0000000
C0000000
C0000000
C0000000
C0000000
C0000000
C0000000
C0000000
C0000000
C0000000
C0000000
FFFFFFC0
ENDCHAR
STARTCHAR 0117
ENCODING 279
SWIDTH 576 0
DWIDTH 32 0
BBX 27 38 3 1
BITMAP
000E0000
000E0000
00000000
00000000
00000000
00000000
00000000
00000000
00000000
003F0000
01E0E000
03001800
0C000C00
18000200
10000100
20000180
60000080
400000C0
40000040
C0000040
80000040
80000060
80000020
FFFFFFE0
80000000
80000000
80000000
C0000000
40000000
40000000
20000000
20000000
10000000
18000180
0C000300
03000600
01C03800
003FE000
ENDCHAR
STARTCHAR 0118
ENCODING 280
SWIDTH 666 0
DWIDTH 37 0
BBX 27 51 7 -12
BITMAP
FFFFFF80
C0000000
C0000000
C0000000
C0000000
C0000000
C0000000
C0000000
C0000000
C0000000
C0000000
C0000000
C0000000
C0000000
C0000000
C0000000
C0000000
C0000000
C0000000
FFFFFE00
C0000000
C0000000
C0000000
C0000000
C0000000
C0000000
C0000000
C0000000
C0000000
C0000000
C0000000
C0000000
C0000000
C0000000
C0000000
C0000000
C0000000
C0000000
FFFFFFC0
00000180
00000600
00000C00
00001800
00001000
00003000
00002000
00002000
00002000
00001000
00001C60
00000780
ENDCHAR
STARTCHAR 0119
ENCODING 281
SWIDTH 576 0
DWIDTH 32 0
BBX 27 41 3 -12
BITMAP
003F0000
01E0E000
03001800
0C000C00
18000200
10000100
20000180
60000080
400000C0
40000040
C0000040
80000040
80000060
80000020
FFFFFFE0
80000000
80000000
80000000
C0000000
40000000
40000000
20000000
20000000
10000000
18000180
0C000300
03000600
01C03C00
003FF800
00003000
00006000
00004000
00008000
00008000
00018000
00010000
00010000
00018000
00008000
00006300
00003C00
ENDCHAR
STARTCHAR 011A
ENCODING 282
SWIDTH 666 0
DWIDTH 37 0
BBX 26 48 7 0
BITMAP
03003000
01806000
00C0C000
00618000
00320000
000C0000
00000000
00000000
00000000
FFFFFF80
C0000000
C0000000
C0000000
C0000000
C0000000
C0000000
C0000000
C0000000
C0000000
C0000000
C0000000
C0000000
C0000000
C0000000
C0000000
C0000000
C0000000
C0000000
FFFFFE00
C0000000
C0000000
C0000000
C0000000
C0000000
C0000000
C0000000
C0000000
C0000000
C0000000
C0000000
C0000000
C0000000
C0000000
C0000000
C0000000
C0000000
C0000000
FFFFFFC0
ENDCHAR
STARTCHAR 011B
ENCODING 283
SWIDTH 576 0
DWIDTH 32 0
BBX 27 40 3 0
BITMAP
03001800
01803000
00C04000
00608000
00330000
000E0000
00000000
00000000
00000000
00000000
00000000
003F0000
01E0E000
03001800
0C000C00
18000200
10000100
20000180
60000080
400000C0
40000040
C0000040
80000040
80000060
80000020
FFFFFFE0
80000000
80000000
80000000
C0000000
40000000
40000000
20000000
20000000
10000000
18000180
0C000300
03000600
01C03800
003FE000
ENDCHAR
STARTCHAR 011C
ENCODING 284
SWIDTH 774 0
DWIDTH 43 0
BBX 34 48 3 0
BITMAP
0000380000
00006C0000
0000860000
0003010000
0006008000
000C004000
0000000000
0000000000
0000000000
0001FF8000
000F007800
0038000E00
0060000300
0180000080
0300000000
0600000000
0C00000000
0800000000
1000000000
3000000000
2000000000
6000000000
4000000000
4000000000
4000000000
C000000000
8000000000
8000000000
8000000000
8000000040
8000000040
C000000040
4000000040
4000000040
4000000040
6000000040
2000000040
3000000040
1000000040
1800000040
0C00000040
0600000040
0300000040
0180000080
00C0000300
0030000600
000E003800
0001FFC000
ENDCHAR
STARTCHAR 011D
ENCODING 285
SWIDTH 666 0
DWIDTH 37 0
BBX 28 51 3 -11
BITMAP
00070000
000D8000
0018C000
00306000
00401000
00800800
01000400
00000000
00000000
00000000
00000000
001FC010
00E07810
03000C10
04000310
08000190
10000090
20000050
60000070
40000030
40000030
C0000010
80000010
80000010
80000010
80000010
80000010
80000010
C0000010
40000030
40000030
60000030
20000050
10000090
18000190
0C000310
03000610
01C03810
003FC010
00000010
00000010
00000010
00000010
00000020
00000020
00000060
10000040
0C000080
07000300
01E01C00
001FE000
ENDCHAR
STARTCHAR 011E
ENCODING 286
SWIDTH 774 0
DWIDTH 43 0
BBX 34 48 3 0
BITMAP
0008002000
0008004000
0004004000
0006008000
0003030000
0000FE0000
0000000000
0000000000
0000000000
0001FF8000
000F007800
0038000E00
0060000300
0180000080
0300000000
0600000000
0C00000000
0800000000
1000000000
3000000000
2000000000
6000000000
4000000000
4000000000
4000000000
C000000000
8000000000
8000000000
8000000000
8000000040
8000000040
C000000040
4000000040
4000000040
4000000040
6000000040
2000000040
3000000040
1000000040
1800000040
0C00000040
0600000040
0300000040
0180000080
00C0000300
0030000600
000E003800
0001FFC000
ENDCHAR
STARTCHAR 011F
ENCODING 287
SWIDTH 666 0
DWIDTH 37 0
BBX 28 51 3 -11
BITMAP
01000400
01000400
00800800
00C01800
00603000
003FC000
00000000
00000000
00000000
00000000
00000000
001FC010
00E07810
03000C10
04000310
08000190
10000090
20000050
60000070
40000030
40000030
C0000010
80000010
80000010
80000010
80000010
80000010
80000010
C0000010
40000030
40000030
60000030
20000050
10000090
18000190
0C000310
03000610
01C03810
003FC010
00000010
00000010
00000010
00000010
00000020
00000020
00000060
10000040
0C000080
07000300
01E01C00
001FE000
ENDCHAR
STARTCHAR 0120
ENCODING 288
SWIDTH 774 0
DWIDTH 43 0
BBX 34 47 3 0
BITMAP
0000100000
0000380000
0000300000
0000000000
0000000000
0000000000
0000000000
0000000000
0001FF8000
000F007800
0038000E00
0060000300
0180000080
0300000000
0600000000
0C00000000
0800000000
1000000000
3000000000
2000000000
6000000000
4000000000
4000000000
4000000000
C000000000
8000000000
8000000000
8000000000
8000000040
8000000040
C000000040
4000000040
4000000040
4000000040
6000000040
2000000040
3000000040
1000000040
1800000040
0C00000040
0600000040
0300000040
0180000080
00C0000300
0030000600
000E003800
0001FFC000
ENDCHAR
STARTCHAR 0121
ENCODING 289
SWIDTH 666 0
DWIDTH 37 0
BBX 28 50 3 -11
BITMAP
00020000
00070000
00070000
00000000
00000000
00000000
00000000
00000000
00000000
00000000
001FC010
00E07810
03000C10
04000310
08000190
10000090
20000050
60000070
40000030
40000030
C0000010
80000010
80000010
80000010
80000010
80000010
80000010
C0000010
40000030
40000030
60000030
20000050
10000090
18000190
0C000310
03000610
01C03810
003FC010
00000010
00000010
00000010
00000010
00000020
00000020
00000060
10000040
0C000080
07000300
01E01C00
001FE000
ENDCHAR
STARTCHAR 0122
ENCODING 290
SWIDTH 774 0
DWIDTH 43 0
BBX 34 53 3 -14
BITMAP
0001FF8000
000F007800
0038000E00
0060000300
0180000080
0300000000
0600000000
0C00000000
0800000000
1000000000
3000000000
2000000000
6000000000
4000000000
4000000000
4000000000
C000000000
8000000000
8000000000
8000000000
8000000040
8000000040
C000000040
4000000040
4000000040
4000000040
6000000040
2000000040
3000000040
1000000040
1800000040
0C00000040
0600000040
0300000040
0180000080
00C0000300
0030000600
000E003800
0001FFC000
0000000000
0000000000
0000000000
0000000000
0000000000
0000000000
0000000000
0000300000
0000380000
0000180000
0000100000
0000100000
0000100000
0000200000
ENDCHAR
STARTCHAR 0123
ENCODING 291
SWIDTH 666 0
DWIDTH 37 0
BBX 28 53 3 -11
BITMAP
00010000
00030000
00020000
00020000
00020000
00060000
00070000
00070000
00000000
00000000
00000000
00000000
00000000
001FC010
00E07810
03000C10
04000310
08000190
10000090
20000050
60000070
40000030
40000030
C0000010
80000010
80000010
80000010
80000010
80000010
80000010
C0000010
40000030
40000030
60000030
20000050
10000090
18000190
0C000310
03000610
01C03810
003FC010
00000010
00000010
00000010
00000010
00000020
00000020
00000060
10000040
0C000080
07000300
01E01C00
001FE000
ENDCHAR
STARTCHAR 0124
ENCODING 292
SWIDTH 810 0
DWIDTH 45 0
BBX 31 48 7 0
BITMAP
00038000
00064000
000C3000
00101800
00200C00
00C00600
00000000
00000000
00000000
C0000002
C0000002
C0000002
C0000002
C0000002
C0000002
C0000002
C0000002
C0000002
C0000002
C0000002
C0000002
C0000002
C0000002
C0000002
C0000002
C0000002
C0000002
C0000002
FFFFFFFE
C0000002
C0000002
C0000002
C0000002
C0000002
C0000002
C0000002
C0000002
C0000002
C0000002
C0000002
C0000002
C0000002
C0000002
C0000002
C0000002
C0000002
C0000002
C0000002
ENDCHAR
STARTCHAR 0125
ENCODING 293
SWIDTH 666 0
DWIDTH 37 0
BBX 32 51 -1 0
BITMAP
01800000
03C00000
06600000
08300000
10080000
20040000
C0030000
00000000
00000000
00000000
01800000
01800000
01800000
01800000
01800000
01800000
01800000
01800000
01800000
01800000
01800000
01800000
01807F00
018380E0
01860030
01980008
01B00004
01A00006
01C00002
01C00002
01800001
01800001
01800001
01800001
01800001
01800001
01800001
01800001
01800001
01800001
01800001
01800001
01800001
01800001
01800001
01800001
01800001
01800001
01800001
01800001
01800001
ENDCHAR
STARTCHAR 0126
ENCODING 294
SWIDTH 810 0
DWIDTH 45 0
BBX 43 39 1 0
BITMAP
030000000800
030000000800
030000000800
030000000800
030000000800
030000000800
030000000800
030000000800
030000000800
FFFFFFFFFFE0
030000000800
030000000800
030000000800
030000000800
030000000800
030000000800
030000000800
030000000800
030000000800
03FFFFFFF800
030000000800
030000000800
030000000800
030000000800
030000000800
030000000800
030000000800
030000000800
030000000800
030000000800
030000000800
030000000800
030000000800
030000000800
030000000800
030000000800
030000000800
030000000800
030000000800
ENDCHAR
STARTCHAR 0127
ENCODING 295
SWIDTH 666 0
DWIDTH 37 0
BBX 31 41 0 0
BITMAP
03000000
03000000
03000000
03000000
03000000
FFFFF800
FFFFF800
03000000
03000000
03000000
03000000
03000000
0300FE00
030701C0
030C0060
03300010
03600008
0340000C
03800004
03800004
03000002
03000002
03000002
03000002
03000002
03000002
03000002
03000002
03000002
03000002
03000002
03000002
03000002
03000002
03000002
03000002
03000002
03000002
03000002
03000002
03000002
ENDCHAR
STARTCHAR 0128
ENCODING 296
SWIDTH 270 0
DWIDTH 15 0
BBX 15 48 0 0
BITMAP
0800
3602
4102
40C6
C07C
0000
0000
0000
0000
0180
0180
0180
0180
0180
0180
0180
0180
0180
0180
0180
0180
0180
0180
0180
0180
0180
0180
0180
0180
0180
0180
0180
0180
0180
0180
0180
0180
0180
0180
0180
0180
0180
0180
0180
0180
0180
0180
0180
ENDCHAR
STARTCHAR 0129
ENCODING 297
SWIDTH 234 0
DWIDTH 13 0
BBX 12 39 1 0
BITMAP
7810
C410
8630
83E0
8080
0000
0000
0000
0000
0000
0600
0600
0600
0600
0600
0600
0600
0600
0600
0600
0600
0600
0600
0600
0600
0600
0600
0600
0600
0600
0600
0600
0600
0600
0600
0600
0600
0600
0600
ENDCHAR
STARTCHAR 012A
ENCODING 298
SWIDTH 270 0
DWIDTH 15 0
BBX 12 46 2 0
BITMAP
FFF0
0000
0000
0000
0000
0000
0000
0600
0600
0600
0600
0600
0600
0600
0600
0600
0600
0600
0600
0600
0600
0600
0600
0600
0600
0600
0600
0600
0600
0600
0600
0600
0600
0600
0600
0600
0600
0600
0600
0600
0600
0600
0600
0600
0600
0600
ENDCHAR
STARTCHAR 012B
ENCODING 299
SWIDTH 234 0
DWIDTH 13 0
BBX 12 37 1 0
BITMAP
FFF0
0000
0000
0000
0000
0000
0000
0000
0600
0600
0600
0600
0600
0600
0600
0600
0600
0600
0600
0600
0600
0600
0600
0600
0600
0600
0600
0600
0600
0600
0600
0600
0600
0600
0600
0600
0600
ENDCHAR
STARTCHAR 012C
ENCODING 300
SWIDTH 270 0
DWIDTH 15 0
BBX 14 48 1 0
BITMAP
8004
8004
C00C
4008
3030
0FC0
0000
0000
0000
0300
0300
0300
0300
0300
0300
0300
0300
0300
0300
0300
0300
0300
0300
0300
0300
0300
0300
0300
0300
0300
0300
0300
0300
0300
0300
0300
0300
0300
0300
0300
0300
0300
0300
0300
0300
0300
0300
0300
ENDCHAR
STARTCHAR 012D
ENCODING 301
SWIDTH 234 0
DWIDTH 13 0
BBX 12 40 1 0
BITMAP
8010
8010
8030
4020
6040
1F80
0000
0000
0000
0000
0000
0600
0600
0600
0600
0600
0600
0600
0600
0600
0600
0600
0600
0600
0600
0600
0600
0600
0600
0600
0600
0600
0600
0600
0600
0600
0600
0600
0600
0600
ENDCHAR
STARTCHAR 012E
ENCODING 302
SWIDTH 270 0
DWIDTH 15 0
BBX 7 51 4 -12
BITMAP
18
18
18
18
18
18
18
18
18
18
18
18
18
18
18
18
18
18
18
18
18
18
18
18
18
18
18
18
18
18
18
18
18
18
18
18
18
18
18
10
20
60
40
40
40
C0
80
C0
40
66
3C
ENDCHAR
STARTCHAR 012F
ENCODING 303
SWIDTH 234 0
DWIDTH 13 0
BBX 7 51 3 -11
BITMAP
18
18
00
00
00
00
00
00
00
00
18
18
18
18
18
18
18
18
18
18
18
18
18
18
18
18
18
18
18
18
18
18
18
18
18
18
18
18
18
10
20
60
40
40
40
C0
80
C0
40
66
3C
ENDCHAR
STARTCHAR 0130
ENCODING 304
SWIDTH 270 0
DWIDTH 15 0
BBX 3 47 6 0
BITMAP
60
E0
60
00
00
00
00
00
60
60
60
60
60
60
60
60
60
60
60
60
60
60
60
60
60
60
60
60
60
60
60
60
60
60
60
60
60
60
60
60
60
60
60
60
60
60
60
ENDCHAR
STARTCHAR 0131
ENCODING 305
SWIDTH 234 0
DWIDTH 13 0
BBX 2 29 6 0
BITMAP
C0
C0
C0
C0
C0
C0
C0
C0
C0
C0
C0
C0
C0
C0
C0
C0
C0
C0
C0
C0
C0
C0
C0
C0
C0
C0
C0
C0
C0
ENDCHAR
STARTCHAR 0132
ENCODING 306
SWIDTH 702 0
DWIDTH 39 0
BBX 26 39 7 0
BITMAP
800000C0
800000C0
800000C0
800000C0
800000C0
800000C0
800000C0
800000C0
800000C0
800000C0
800000C0
800000C0
800000C0
800000C0
800000C0
800000C0
800000C0
800000C0
800000C0
800000C0
800000C0
800000C0
800000C0
000000C0
000000C0
00000080
00000080
00000080
00000080
00000080
00000100
00000100
00000200
00000200
00000400
C0000800
70003000
1C00E000
03FF0000
ENDCHAR
STARTCHAR 0133
ENCODING 307
SWIDTH 504 0
DWIDTH 28 0
BBX 16 51 6 -11
BITMAP
0001
C003
C003
0000
0000
0000
0000
0000
0000
0000
0000
C001
C001
C001
C001
C001
C001
C001
C001
C001
C001
C001
C001
C001
C001
C001
C001
C001
C001
C001
C001
C001
C001
C001
C001
C001
C001
C001
C001
C001
0001
0001
0001
0001
0001
0003
0002
0002
1004
0C18
03F0
ENDCHAR
STARTCHAR 0134
ENCODING 308
SWIDTH 468 0
DWIDTH 26 0
BBX 19 48 0 0
BITMAP
003800
006400
00C200
010180
0200C0
0C0060
000000
000000
000000
0FFFE0
000020
000020
000020
000020
000020
000020
000020
000020
000020
000020
000020
000020
000020
000020
000020
000020
000020
000020
000020
000020
000020
000020
000020
000020
000020
000020
000020
000020
000020
000020
000020
000020
800060
400040
2000C0
100180
0E0300
03FC00
ENDCHAR
STARTCHAR 0135
ENCODING 309
SWIDTH 252 0
DWIDTH 14 0
BBX 17 51 -4 -11
BITMAP
003000
006800
00C400
018600
030300
020180
040000
000000
000000
000000
000000
001000
001000
001000
001000
001000
001000
001000
001000
001000
001000
001000
001000
001000
001000
001000
001000
001000
001000
001000
001000
001000
001000
001000
001000
001000
001000
001000
001000
001000
001000
001000
001000
001000
001000
003000
002000
002000
004000
E1C000
3F0000
ENDCHAR
STARTCHAR 0136
ENCODING 310
SWIDTH 684 0
DWIDTH 38 0
BBX 30 53 7 -14
BITMAP
C0000018
C0000030
C0000060
C0000040
C0000080
C0000100
C0000200
C0000400
C0000800
C0001000
C0002000
C0004000
C0008000
C0010000
C0020000
C0040000
C0080000
C0100000
C0380000
C0480000
C0840000
C1020000
C3010000
C6018000
CC00C000
D8006000
F0003000
E0001000
C0000800
C0000400
C0000200
C0000300
C0000180
C00000C0
C0000060
C0000030
C0000010
C0000008
C0000004
00000000
00000000
00000000
00000000
00000000
00000000
00000000
000E0000
000E0000
00060000
00060000
00040000
00040000
00040000
ENDCHAR
STARTCHAR 0137
ENCODING 311
SWIDTH 558 0
DWIDTH 31 0
BBX 24 55 6 -14
BITMAP
C00000
C00000
C00000
C00000
C00000
C00000
C00000
C00000
C00000
C00000
C00000
C00000
C00002
C0000C
C00018
C00030
C00060
C000C0
C00180
C00300
C00400
C00800
C01000
C06000
C0F000
C19000
C30800
C60C00
C80600
D00300
E00100
C00080
C000C0
C00060
C00030
C00010
C00008
C0000C
C00006
C00002
C00001
000000
000000
000000
000000
000000
000000
000000
003000
003800
003000
001000
003000
002000
002000
ENDCHAR
STARTCHAR 0138
ENCODING 312
SWIDTH 540 0
DWIDTH 30 0
BBX 24 29 6 0
BITMAP
C00002
C0000C
C00018
C00030
C00060
C000C0
C00180
C00300
C00400
C00800
C01000
C06000
C0F000
C19000
C30800
C60C00
C80600
D00300
E00100
C00080
C000C0
C00060
C00030
C00010
C00008
C0000C
C00006
C00002
C00001
ENDCHAR
STARTCHAR 0139
ENCODING 313
SWIDTH 576 0
DWIDTH 32 0
BBX 26 48 6 0
BITMAP
03800000
06000000
0C000000
10000000
60000000
C0000000
00000000
00000000
00000000
60000000
60000000
60000000
60000000
60000000
60000000
60000000
60000000
60000000
60000000
60000000
60000000
60000000
60000000
60000000
60000000
60000000
60000000
60000000
60000000
60000000
60000000
60000000
60000000
60000000
60000000
60000000
60000000
60000000
60000000
60000000
60000000
60000000
60000000
60000000
60000000
60000000
60000000
7FFFFFC0
ENDCHAR
STARTCHAR 013A
ENCODING 314
SWIDTH 234 0
DWIDTH 13 0
BBX 9 52 5 0
BITMAP
0380
0600
0C00
3000
6000
C000
0000
0000
0000
0000
0000
6000
6000
6000
6000
6000
6000
6000
6000
6000
6000
6000
6000
6000
6000
6000
6000
6000
6000
6000
6000
6000
6000
6000
6000
6000
6000
6000
6000
6000
6000
6000
6000
6000
6000
6000
6000
6000
6000
6000
6000
6000
ENDCHAR
STARTCHAR 013B
ENCODING 315
SWIDTH 576 0
DWIDTH 32 0
BBX 25 53 7 -14
BITMAP
C0000000
C0000000
C0000000
C0000000
C0000000
C0000000
C0000000
C0000000
C0000000
C0000000
C0000000
C0000000
C0000000
C0000000
C0000000
C0000000
C0000000
C0000000
C0000000
C0000000
C0000000
C0000000
C0000000
C0000000
C0000000
C0000000
C0000000
C0000000
C0000000
C0000000
C0000000
C0000000
C0000000
C0000000
C0000000
C0000000
C0000000
C0000000
FFFFFF80
00000000
00000000
00000000
00000000
00000000
00000000
00000000
000C0000
000E0000
000C0000
00040000
00040000
000C0000
00080000
ENDCHAR
STARTCHAR 013C
ENCODING 316
SWIDTH 234 0
DWIDTH 13 0
BBX 2 55 6 -14
BITMAP
C0
C0
C0
C0
C0
C0
C0
C0
C0
C0
C0
C0
C0
C0
C0
C0
C0
C0
C0
C0
C0
C0
C0
C0
C0
C0
C0
C0
C0
C0
C0
C0
C0
C0
C0
C0
C0
C0
C0
C0
C0
00
00
00
00
00
00
00
C0
C0
C0
40
C0
80
80
ENDCHAR
STARTCHAR 013D
ENCODING 317
SWIDTH 576 0
DWIDTH 32 0
BBX 25 40 7 0
BITMAP
00002000
C0002000
C0002000
C0002000
C0002000
C0002000
C0002000
C0002000
C0002000
C0002000
C0000000
C0000000
C0000000
C0000000
C0000000
C0000000
C0000000
C0000000
C0000000
C0000000
C0000000
C0000000
C0000000
C0000000
C0000000
C0000000
C0000000
C0000000
C0000000
C0000000
C0000000
C0000000
C0000000
C0000000
C0000000
C0000000
C0000000
C0000000
C0000000
FFFFFF80
ENDCHAR
STARTCHAR 013E
ENCODING 318
SWIDTH 234 0
DWIDTH 13 0
BBX 8 42 6 0
BITMAP
01
C1
C1
C1
C1
C1
C1
C1
C1
C1
C0
C0
C0
C0
C0
C0
C0
C0
C0
C0
C0
C0
C0
C0
C0
C0
C0
C0
C0
C0
C0
C0
C0
C0
C0
C0
C0
C0
C0
C0
C0
C0
ENDCHAR
STARTCHAR 013F
ENCODING 319
SWIDTH 576 0
DWIDTH 32 0
BBX 25 39 7 0
BITMAP
C0000000
C0000000
C0000000
C0000000
C0000000
C0000000
C0000000
C0000000
C0000000
C0000000
C0000000
C0000000
C0000000
C0000000
C0000000
C0000000
C0000000
C0000000
C000C000
C000C000
C0000000
C0000000
C0000000
C0000000
C0000000
C0000000
C0000000
C0000000
C0000000
C0000000
C0000000
C0000000
C0000000
C0000000
C0000000
C0000000
C0000000
C0000000
FFFFFF80
ENDCHAR
STARTCHAR 0140
ENCODING 320
SWIDTH 234 0
DWIDTH 13 0
BBX 9 41 6 0
BITMAP
C000
C000
C000
C000
C000
C000
C000
C000
C000
C000
C000
C000
C000
C000
C000
C000
C000
C000
C000
C000
C180
C380
C180
C000
C000
C000
C000
C000
C000
C000
C000
C000
C000
C000
C000
C000
C000
C000
C000
C000
C000
ENDCHAR
STARTCHAR 0141
ENCODING 321
SWIDTH 576 0
DWIDTH 32 0
BBX 30 39 2 0
BITMAP
06000000
06000000
06000000
06000000
06000000
06000000
06000000
06000000
06000000
06000000
06000000
06000000
06000000
06040000
06180000
06300000
06C00000
07800000
06000000
0E000000
1E000000
26000000
C6000000
06000000
06000000
06000000
06000000
06000000
06000000
06000000
06000000
06000000
06000000
06000000
06000000
06000000
06000000
06000000
07FFFFFC
ENDCHAR
STARTCHAR 0142
ENCODING 322
SWIDTH 234 0
DWIDTH 13 0
BBX 10 41 2 0
BITMAP
0C00
0C00
0C00
0C00
0C00
0C00
0C00
0C00
0C00
0C00
0C00
0C00
0C00
0C00
0C00
0C00
0C00
0C00
0CC0
0D80
0E00
0C00
1C00
6C00
CC00
0C00
0C00
0C00
0C00
0C00
0C00
0C00
0C00
0C00
0C00
0C00
0C00
0C00
0C00
0C00
0C00
ENDCHAR
STARTCHAR 0143
ENCODING 323
SWIDTH 810 0
DWIDTH 45 0
BBX 31 48 7 0
BITMAP
00000E00
00001800
00003000
0000C000
00018000
00020000
00000000
00000000
00000000
C0000002
C0000002
E0000002
D0000002
D8000002
C8000002
C4000002
C2000002
C3000002
C1800002
C0800002
C0400002
C0600002
C0300002
C0100002
C0080002
C0040002
C0060002
C0030002
C0010002
C0008002
C000C002
C0006002
C0002002
C0001002
C0000802
C0000C02
C0000602
C0000202
C0000102
C0000182
C00000C2
C0000042
C0000022
C0000012
C000001A
C000000E
C0000006
C0000002
ENDCHAR
STARTCHAR 0144
ENCODING 324
SWIDTH 666 0
DWIDTH 37 0
BBX 25 40 6 0
BITMAP
00007000
0000C000
00018000
00030000
000C0000
00180000
00000000
00000000
00000000
00000000
00000000
C03F8000
C1C07000
C3001800
CC000400
D8000200
D0000300
E0000100
E0000100
C0000080
C0000080
C0000080
C0000080
C0000080
C0000080
C0000080
C0000080
C0000080
C0000080
C0000080
C0000080
C0000080
C0000080
C0000080
C0000080
C0000080
C0000080
C0000080
C0000080
C0000080
ENDCHAR
STARTCHAR 0145
ENCODING 325
SWIDTH 810 0
DWIDTH 45 0
BBX 31 53 7 -14
BITMAP
C0000002
C0000002
E0000002
D0000002
D8000002
C8000002
C4000002
C2000002
C3000002
C1800002
C0800002
C0400002
C0600002
C0300002
C0100002
C0080002
C0040002
C0060002
C0030002
C0010002
C0008002
C000C002
C0006002
C0002002
C0001002
C0000802
C0000C02
C0000602
C0000202
C0000102
C0000182
C00000C2
C0000042
C0000022
C0000012
C000001A
C000000E
C0000006
C0000002
00000000
00000000
00000000
00000000
00000000
00000000
00000000
00038000
00038000
00018000
00018000
00010000
00010000
00010000
ENDCHAR
STARTCHAR 0146
ENCODING 326
SWIDTH 666 0
DWIDTH 37 0
BBX 25 43 6 -14
BITMAP
C03F8000
C1C07000
C3001800
CC000400
D8000200
D0000300
E0000100
E0000100
C0000080
C0000080
C0000080
C0000080
C0000080
C0000080
C0000080
C0000080
C0000080
C0000080
C0000080
C0000080
C0000080
C0000080
C0000080
C0000080
C0000080
C0000080
C0000080
C0000080
C0000080
00000000
00000000
00000000
00000000
00000000
00000000
00000000
001C0000
001C0000
000C0000
000C0000
00080000
00080000
00080000
ENDCHAR
STARTCHAR 0147
ENCODING 327
SWIDTH 810 0
DWIDTH 45 0
BBX 31 48 7 0
BITMAP
00400600
00200C00
00181000
000C6000
0006C000
00038000
00000000
00000000
00000000
C0000002
C0000002
E0000002
D0000002
D8000002
C8000002
C4000002
C2000002
C3000002
C1800002
C0800002
C0400002
C0600002
C0300002
C0100002
C0080002
C0040002
C0060002
C0030002
C0010002
C0008002
C000C002
C0006002
C0002002
C0001002
C0000802
C0000C02
C0000602
C0000202
C0000102
C0000182
C00000C2
C0000042
C0000022
C0000012
C000001A
C000000E
C0000006
C0000002
ENDCHAR
STARTCHAR 0148
ENCODING 328
SWIDTH 666 0
DWIDTH 37 0
BBX 25 40 6 0
BITMAP
06003000
03006000
0080C000
00418000
00320000
001C0000
00000000
00000000
00000000
00000000
00000000
C03F8000
C1C07000
C3001800
CC000400
D8000200
D0000300
E0000100
E0000100
C0000080
C0000080
C0000080
C0000080
C0000080
C0000080
C0000080
C0000080
C0000080
C0000080
C0000080
C0000080
C0000080
C0000080
C0000080
C0000080
C0000080
C0000080
C0000080
C0000080
C0000080
ENDCHAR
STARTCHAR 0149
ENCODING 329
SWIDTH 702 0
DWIDTH 39 0
BBX 29 41 4 0
BITMAP
C0000000
E0000000
40000000
40000000
40000000
C0000000
80000000
80000000
80000000
80000000
00000000
00000000
0403F800
041E0700
04300180
04400040
04800020
05000010
06000010
06000018
04000008
04000008
04000008
04000008
04000008
04000008
04000008
04000008
04000008
04000008
04000008
04000008
04000008
04000008
04000008
04000008
04000008
04000008
04000008
04000008
04000008
ENDCHAR
STARTCHAR 014A
ENCODING 330
SWIDTH 810 0
DWIDTH 45 0
BBX 31 50 7 -11
BITMAP
C0000002
C0000002
E0000002
D0000002
D8000002
C8000002
C4000002
C2000002
C3000002
C1800002
C0800002
C0400002
C0600002
C0300002
C0100002
C0080002
C0040002
C0060002
C0030002
C0010002
C0008002
C000C002
C0006002
C0002002
C0001002
C0000802
C0000C02
C0000602
C0000202
C0000102
C0000182
C00000C2
C0000042
C0000022
C0000012
C000001A
C000000E
C0000006
C0000002
00000002
00000002
00000002
00000006
00000004
00080004
000C000C
00060008
00030010
0000E0E0
00003F80
ENDCHAR
STARTCHAR 014B
ENCODING 331
SWIDTH 666 0
DWIDTH 37 0
BBX 25 40 6 -11
BITMAP
C03F8000
C1C07000
C3001800
CC000400
D8000200
D0000300
E0000100
E0000100
C0000080
C0000080
C0000080
C0000080
C0000080
C0000080
C0000080
C0000080
C0000080
C0000080
C0000080
C0000080
C0000080
C0000080
C0000080
C0000080
C0000080
C0000080
C0000080
C0000080
C0000080
00000080
00000080
00000080
00000080
00000080
00000080
00000180
00000100
00040300
00070600
0001F800
ENDCHAR
STARTCHAR 014C
ENCODING 332
SWIDTH 828 0
DWIDTH 46 0
BBX 40 46 3 0
BITMAP
0007FFF000
0000000000
0000000000
0000000000
0000000000
0000000000
0000000000
0001FF8000
000F007000
0038000C00
00C0000300
0180000180
0300000040
0600000020
0C00000010
0800000008
100000000C
3000000004
2000000006
6000000002
4000000002
4000000003
4000000001
C000000001
8000000001
8000000001
8000000001
8000000001
8000000001
C000000001
4000000001
4000000003
4000000002
6000000002
2000000006
3000000004
100000000C
1800000008
0C00000010
0400000020
0300000060
0180000080
00C0000300
0030000E00
000E007800
0001FFC000
ENDCHAR
STARTCHAR 014D
ENCODING 333
SWIDTH 594 0
DWIDTH 33 0
BBX 28 37 3 0
BITMAP
03FFFC00
00000000
00000000
00000000
00000000
00000000
00000000
00000000
001F8000
00E07000
03000C00
04000600
08000100
10000080
200000C0
20000040
40000020
40000020
C0000020
80000030
80000010
80000010
80000010
80000010
80000010
80000010
C0000020
40000020
40000020
60000040
20000040
10000080
18000100
0C000200
03000C00
01C03800
007FE000
ENDCHAR
STARTCHAR 014E
ENCODING 334
SWIDTH 828 0
DWIDTH 46 0
BBX 40 48 3 0
BITMAP
0004003000
0004002000
0002002000
0003004000
0001818000
00007E0000
0000000000
0000000000
0000000000
0001FF8000
000F007000
0038000C00
00C0000300
0180000180
0300000040
0600000020
0C00000010
0800000008
100000000C
3000000004
2000000006
6000000002
4000000002
4000000003
4000000001
C000000001
8000000001
8000000001
8000000001
8000000001
8000000001
C000000001
4000000001
4000000003
4000000002
6000000002
2000000006
3000000004
100000000C
1800000008
0C00000010
0400000020
0300000060
0180000080
00C0000300
0030000E00
000E007800
0001FFC000
ENDCHAR
STARTCHAR 014F
ENCODING 335
SWIDTH 594 0
DWIDTH 33 0
BBX 28 40 3 0
BITMAP
01000800
01000800
01000800
00801000
00402000
003FC000
00000000
00000000
00000000
00000000
00000000
001F8000
00E07000
03000C00
04000600
08000100
10000080
200000C0
20000040
40000020
40000020
C0000020
80000030
80000010
80000010
80000010
80000010
80000010
80000010
C0000020
40000020
40000020
60000040
20000040
10000080
18000100
0C000200
03000C00
01C03800
007FE000
ENDCHAR
STARTCHAR 0150
ENCODING 336
SWIDTH 828 0
DWIDTH 46 0
BBX 40 48 3 0
BITMAP
0000060600
00000C0C00
0000181800
0000302000
0000604000
0000C08000
0000000000
0000000000
0000000000
0001FF8000
000F007000
0038000C00
00C0000300
0180000180
0300000040
0600000020
0C00000010
0800000008
100000000C
3000000004
2000000006
6000000002
4000000002
4000000003
4000000001
C000000001
8000000001
8000000001
8000000001
8000000001
8000000001
C000000001
4000000001
4000000003
4000000002
6000000002
2000000006
3000000004
100000000C
1800000008
0C00000010
0400000020
0300000060
0180000080
00C0000300
0030000E00
000E007800
0001FFC000
ENDCHAR
STARTCHAR 0151
ENCODING 337
SWIDTH 594 0
DWIDTH 33 0
BBX 28 40 3 0
BITMAP
00018180
00030300
00060600
000C0C00
00181000
00302000
00000000
00000000
00000000
00000000
00000000
001F8000
00E07000
03000C00
04000600
08000100
10000080
200000C0
20000040
40000020
40000020
C0000020
80000030
80000010
80000010
80000010
80000010
80000010
80000010
C0000020
40000020
40000020
60000040
20000040
10000080
18000100
0C000200
03000C00
01C03800
007FE000
ENDCHAR
STARTCHAR 0152
ENCODING 338
SWIDTH 1098 0
DWIDTH 61 0
BBX 55 39 3 0
BITMAP
00007FFFFFFFFC
00078004000000
00380004000000
00600004000000
01800004000000
03000004000000
06000004000000
0C000004000000
08000004000000
10000004000000
30000004000000
20000004000000
60000004000000
40000004000000
40000004000000
40000004000000
C0000004000000
80000004000000
80000004000000
80000007FFFFF0
80000004000000
80000004000000
C0000004000000
40000004000000
40000004000000
40000004000000
60000004000000
20000004000000
20000004000000
10000004000000
18000004000000
0C000004000000
04000004000000
03000004000000
01800004000000
00C00004000000
00380004000000
000F0004000000
0000FFFFFFFFFE
ENDCHAR
STARTCHAR 0153
ENCODING 339
SWIDTH 1062 0
DWIDTH 59 0
BBX 53 29 3 0
BITMAP
001F800007E000
00E07000381C00
03000C00400300
04000601800180
080001030000C0
10000082000060
200000C4000020
2000004C000010
40000028000010
40000028000008
C0000030000008
80000030000008
80000010000008
80000010000008
8000001FFFFFF8
80000010000000
80000010000000
80000010000000
C0000030000000
40000028000000
40000028000000
6000004C000000
20000044000000
10000082000000
18000103000030
0C000201800060
03000C006000C0
01C03800380700
007FE0000FFC00
ENDCHAR
STARTCHAR 0154
ENCODING 340
SWIDTH 702 0
DWIDTH 39 0
BBX 29 48 7 0
BITMAP
00003000
0000E000
00018000
00030000
00040000
00180000
00000000
00000000
00000000
FFFFC000
C0003800
C0000600
C0000180
C00000C0
C0000060
C0000020
C0000010
C0000010
C0000010
C0000008
C0000008
C0000008
C0000008
C0000008
C0000018
C0000010
C0000010
C0000030
C0000020
C0000040
C00000C0
C0000100
C0000600
C000F800
FFFF3000
C0001000
C0000800
C0000C00
C0000600
C0000200
C0000100
C0000180
C0000080
C0000040
C0000060
C0000030
C0000010
C0000008
ENDCHAR
STARTCHAR 0155
ENCODING 341
SWIDTH 378 0
DWIDTH 21 0
BBX 14 40 6 0
BITMAP
001C
0030
0060
00C0
0300
0600
0000
0000
0000
0000
0000
C078
C1C0
C600
C800
D000
F000
E000
E000
C000
C000
C000
C000
C000
C000
C000
C000
C000
C000
C000
C000
C000
C000
C000
C000
C000
C000
C000
C000
C000
ENDCHAR
STARTCHAR 0156
ENCODING 342
SWIDTH 702 0
DWIDTH 39 0
BBX 29 53 7 -14
BITMAP
FFFFC000
C0003800
C0000600
C0000180
C00000C0
C0000060
C0000020
C0000010
C0000010
C0000010
C0000008
C0000008
C0000008
C0000008
C0000008
C0000018
C0000010
C0000010
C0000030
C0000020
C0000040
C00000C0
C0000100
C0000600
C000F800
FFFF3000
C0001000
C0000800
C0000C00
C0000600
C0000200
C0000100
C0000180
C0000080
C0000040
C0000060
C0000030
C0000010
C0000008
00000000
00000000
00000000
00000000
00000000
00000000
00000000
000C0000
000E0000
00060000
00040000
00040000
00040000
00080000
ENDCHAR
STARTCHAR 0157
ENCODING 343
SWIDTH 378 0
DWIDTH 21 0
BBX 13 43 6 -14
BITMAP
C078
C1C0
C600
C800
D000
F000
E000
E000
C000
C000
C000
C000
C000
C000
C000
C000
C000
C000
C000
C000
C000
C000
C000
C000
C000
C000
C000
C000
C000
0000
0000
0000
0000
0000
0000
0000
C000
C000
C000
4000
C000
8000
8000
ENDCHAR
STARTCHAR 0158
ENCODING 344
SWIDTH 702 0
DWIDTH 39 0
BBX 29 48 7 0
BITMAP
03001000
00802000
0040C000
00318000
001B0000
000E0000
00000000
00000000
00000000
FFFFC000
C0003800
C0000600
C0000180
C00000C0
C0000060
C0000020
C0000010
C0000010
C0000010
C0000008
C0000008
C0000008
C0000008
C0000008
C0000018
C0000010
C0000010
C0000030
C0000020
C0000040
C00000C0
C0000100
C0000600
C000F800
FFFF3000
C0001000
C0000800
C0000C00
C0000600
C0000200
C0000100
C0000180
C0000080
C0000040
C0000060
C0000030
C0000010
C0000008
ENDCHAR
STARTCHAR 0159
ENCODING 345
SWIDTH 378 0
DWIDTH 21 0
BBX 15 40 5 0
BITMAP
C006
600C
1018
0830
0640
0380
0000
0000
0000
0000
0000
603C
60E0
6300
6400
6800
7800
7000
7000
6000
6000
6000
6000
6000
6000
6000
6000
6000
6000
6000
6000
6000
6000
6000
6000
6000
6000
6000
6000
6000
ENDCHAR
STARTCHAR 015A
ENCODING 346
SWIDTH 594 0
DWIDTH 33 0
BBX 27 48 3 0
BITMAP
00001C00
00003000
00006000
00018000
00030000
00040000
00000000
00000000
00000000
007FE000
01C03C00
06000300
080000C0
10000000
30000000
20000000
20000000
60000000
40000000
40000000
60000000
20000000
20000000
10000000
18000000
0C000000
03800000
00F00000
000F0000
0001E000
00001C00
00000300
00000180
000000C0
00000040
00000020
00000020
00000020
00000020
00000020
00000020
00000060
C0000040
600000C0
30000180
0C000300
03801C00
007FE000
ENDCHAR
STARTCHAR 015B
ENCODING 347
SWIDTH 450 0
DWIDTH 25 0
BBX 22 40 2 0
BITMAP
0000C0
000380
000600
000C00
001000
006000
000000
000000
000000
000000
000000
01FE00
0703C0
180030
300010
200000
400000
400000
400000
400000
400000
600000
300000
180000
070000
01F800
000F80
0000E0
000030
000008
000008
00000C
000004
00000C
000008
800008
C00018
700030
1C00C0
03FF00
ENDCHAR
STARTCHAR 015C
ENCODING 348
SWIDTH 594 0
DWIDTH 33 0
BBX 27 48 3 0
BITMAP
00070000
000C8000
00186000
00203000
00401800
01800C00
00000000
00000000
00000000
007FE000
01C03C00
06000300
080000C0
10000000
30000000
20000000
20000000
60000000
40000000
40000000
60000000
20000000
20000000
10000000
18000000
0C000000
03800000
00F00000
000F0000
0001E000
00001C00
00000300
00000180
000000C0
00000040
00000020
00000020
00000020
00000020
00000020
00000020
00000060
C0000040
600000C0
30000180
0C000300
03801C00
007FE000
ENDCHAR
STARTCHAR 015D
ENCODING 349
SWIDTH 450 0
DWIDTH 25 0
BBX 22 40 2 0
BITMAP
003000
00D800
018400
030200
060180
0C00C0
000000
000000
000000
000000
000000
01FE00
0703C0
180030
300010
200000
400000
400000
400000
400000
400000
600000
300000
180000
070000
01F800
000F80
0000E0
000030
000008
000008
00000C
000004
00000C
000008
800008
C00018
700030
1C00C0
03FF00
ENDCHAR
STARTCHAR 015E
ENCODING 350
SWIDTH 594 0
DWIDTH 33 0
BBX 27 51 3 -12
BITMAP
007FE000
01C03C00
06000300
080000C0
10000000
30000000
20000000
20000000
60000000
40000000
40000000
60000000
20000000
20000000
10000000
18000000
0C000000
03800000
00F00000
000F0000
0001E000
00001C00
00000300
00000180
000000C0
00000040
00000020
00000020
00000020
00000020
00000020
00000020
00000060
C0000040
600000C0
30000180
0C000300
03801C00
007FE000
00020000
00020000
00040000
00070000
0000C000
00004000
00002000
00002000
00002000
00004000
0031C000
000F0000
ENDCHAR
STARTCHAR 015F
ENCODING 351
SWIDTH 450 0
DWIDTH 25 0
BBX 22 41 2 -12
BITMAP
01FE00
0703C0
180030
300010
200000
400000
400000
400000
400000
400000
600000
300000
180000
070000
01F800
000F80
0000E0
000030
000008
000008
00000C
000004
00000C
000008
800008
C00018
700030
1C00C0
03FF00
002000
002000
002000
007000
000C00
000600
000200
000200
000200
020600
030C00
00F000
ENDCHAR
STARTCHAR 0160
ENCODING 352
SWIDTH 594 0
DWIDTH 33 0
BBX 27 48 3 0
BITMAP
00800C00
00401800
00302000
0018C000
000D8000
00070000
00000000
00000000
00000000
007FE000
01C03C00
06000300
080000C0
10000000
30000000
20000000
20000000
60000000
40000000
40000000
60000000
20000000
20000000
10000000
18000000
0C000000
03800000
00F00000
000F0000
0001E000
00001C00
00000300
00000180
000000C0
00000040
00000020
00000020
00000020
00000020
00000020
00000020
00000060
C0000040
600000C0
30000180
0C000300
03801C00
007FE000
ENDCHAR
STARTCHAR 0161
ENCODING 353
SWIDTH 450 0
DWIDTH 25 0
BBX 22 40 2 0
BITMAP
080040
040180
030300
018600
00CC00
007800
000000
000000
000000
000000
000000
01FE00
0703C0
180030
300010
200000
400000
400000
400000
400000
400000
600000
300000
180000
070000
01F800
000F80
0000E0
000030
000008
000008
00000C
000004
00000C
000008
800008
C00018
700030
1C00C0
03FF00
ENDCHAR
STARTCHAR 0162
ENCODING 354
SWIDTH 540 0
DWIDTH 30 0
BBX 30 51 0 -12
BITMAP
FFFFFFFC
00010000
00010000
00010000
00010000
00010000
00010000
00010000
00010000
00010000
00010000
00010000
00010000
00010000
00010000
00010000
00010000
00010000
00010000
00010000
00010000
00010000
00010000
00010000
00010000
00010000
00010000
00010000
00010000
00010000
00010000
00010000
00010000
00010000
00010000
00010000
00010000
00010000
00010000
00030000
00020000
00020000
00038000
0000C000
00002000
00002000
00002000
00002000
00002000
0038C000
000F0000
ENDCHAR
STARTCHAR 0163
ENCODING 355
SWIDTH 378 0
DWIDTH 21 0
BBX 18 47 1 -12
BITMAP
020000
020000
020000
020000
020000
020000
FFFF80
020000
020000
020000
020000
020000
020000
020000
020000
020000
020000
020000
020000
020000
020000
020000
020000
020000
020000
020000
020000
020000
020000
020000
020000
030000
010040
00C0C0
007F00
000800
001000
001000
001C00
000600
000100
000100
000180
000100
000100
00C600
003C00
ENDCHAR
STARTCHAR 0164
ENCODING 356
SWIDTH 540 0
DWIDTH 30 0
BBX 30 48 0 0
BITMAP
00C00400
00601800
00103000
00086000
0006C000
00038000
00000000
00000000
00000000
FFFFFFFC
00010000
00010000
00010000
00010000
00010000
00010000
00010000
00010000
00010000
00010000
00010000
00010000
00010000
00010000
00010000
00010000
00010000
00010000
00010000
00010000
00010000
00010000
00010000
00010000
00010000
00010000
00010000
00010000
00010000
00010000
00010000
00010000
00010000
00010000
00010000
00010000
00010000
00010000
ENDCHAR
STARTCHAR 0165
ENCODING 357
SWIDTH 378 0
DWIDTH 21 0
BBX 18 42 1 0
BITMAP
000400
000400
000400
000400
000400
000400
000400
020400
020400
020000
020000
020000
020000
FFFF80
020000
020000
020000
020000
020000
020000
020000
020000
020000
020000
020000
020000
020000
020000
020000
020000
020000
020000
020000
020000
020000
020000
020000
020000
030000
010040
00C0C0
007F00
ENDCHAR
STARTCHAR 0166
ENCODING 358
SWIDTH 540 0
DWIDTH 30 0
BBX 30 39 0 0
BITMAP
FFFFFFFC
00010000
00010000
00010000
00010000
00010000
00010000
00010000
00010000
00010000
00010000
00010000
00010000
00010000
00010000
00010000
00010000
00010000
00010000
07FFFF80
00010000
00010000
00010000
00010000
00010000
00010000
00010000
00010000
00010000
00010000
00010000
00010000
00010000
00010000
00010000
00010000
00010000
00010000
00010000
ENDCHAR
STARTCHAR 0167
ENCODING 359
SWIDTH 396 0
DWIDTH 22 0
BBX 17 35 2 0
BITMAP
040000
040000
040000
040000
040000
040000
FFFF00
040000
040000
040000
040000
040000
040000
040000
040000
040000
040000
FFFE00
040000
040000
040000
040000
040000
040000
040000
040000
040000
040000
040000
040000
060000
020000
030000
018180
007F00
ENDCHAR
STARTCHAR 0168
ENCODING 360
SWIDTH 792 0
DWIDTH 44 0
BBX 30 48 7 0
BITMAP
00180000
006C0600
00830400
00818C00
0080F800
00000000
00000000
00000000
00000000
80000004
80000004
80000004
80000004
80000004
80000004
80000004
80000004
80000004
80000004
80000004
80000004
80000004
80000004
80000004
80000004
80000004
80000004
80000004
80000004
80000004
80000004
80000004
80000004
80000004
80000004
80000004
C000000C
40000008
40000008
40000008
20000010
20000010
10000020
08000060
040000C0
03000300
01C00E00
003FF000
ENDCHAR
STARTCHAR 0169
ENCODING 361
SWIDTH 648 0
DWIDTH 36 0
BBX 25 39 6 0
BITMAP
03E01000
02103000
04082000
0407E000
04010000
00000000
00000000
00000000
00000000
00000000
80000180
80000180
80000180
80000180
80000180
80000180
80000180
80000180
80000180
80000180
80000180
80000180
80000180
80000180
80000180
80000180
80000180
80000180
80000180
80000180
80000180
40000380
40000380
60000580
20000580
10001980
08003180
0700E180
01FF0180
ENDCHAR
STARTCHAR 016A
ENCODING 362
SWIDTH 792 0
DWIDTH 44 0
BBX 30 46 7 0
BITMAP
01FFFE00
00000000
00000000
00000000
00000000
00000000
00000000
80000004
80000004
80000004
80000004
80000004
80000004
80000004
80000004
80000004
80000004
80000004
80000004
80000004
80000004
80000004
80000004
80000004
80000004
80000004
80000004
80000004
80000004
80000004
80000004
80000004
80000004
80000004
C000000C
40000008
40000008
40000008
20000010
20000010
10000020
08000060
040000C0
03000300
01C00E00
003FF000
ENDCHAR
STARTCHAR 016B
ENCODING 363
SWIDTH 648 0
DWIDTH 36 0
BBX 25 37 6 0
BITMAP
07FFF000
00000000
00000000
00000000
00000000
00000000
00000000
00000000
80000180
80000180
80000180
80000180
80000180
80000180
80000180
80000180
80000180
80000180
80000180
80000180
80000180
80000180
80000180
80000180
80000180
80000180
80000180
80000180
80000180
40000380
40000380
60000580
20000580
10001980
08003180
0700E180
01FF0180
ENDCHAR
STARTCHAR 016C
ENCODING 364
SWIDTH 792 0
DWIDTH 44 0
BBX 30 48 7 0
BITMAP
00800400
00800400
00C00400
00600800
00303000
000FC000
00000000
00000000
00000000
80000004
80000004
80000004
80000004
80000004
80000004
80000004
80000004
80000004
80000004
80000004
80000004
80000004
80000004
80000004
80000004
80000004
80000004
80000004
80000004
80000004
80000004
80000004
80000004
80000004
80000004
80000004
C000000C
40000008
40000008
40000008
20000010
20000010
10000020
08000060
040000C0
03000300
01C00E00
003FF000
ENDCHAR
STARTCHAR 016D
ENCODING 365
SWIDTH 648 0
DWIDTH 36 0
BBX 25 40 6 0
BITMAP
04001000
04002000
06002000
02006000
0180C000
00FF0000
00000000
00000000
00000000
00000000
00000000
80000180
80000180
80000180
80000180
80000180
80000180
80000180
80000180
80000180
80000180
80000180
80000180
80000180
80000180
80000180
80000180
80000180
80000180
80000180
80000180
80000180
40000380
40000380
60000580
20000580
10001980
08003180
0700E180
01FF0180
ENDCHAR
STARTCHAR 016E
ENCODING 366
SWIDTH 792 0
DWIDTH 44 0
BBX 30 54 7 0
BITMAP
00010000
000FC000
00102000
00303000
00201000
00201000
00201000
00201000
00102000
000CC000
00030000
00000000
00000000
00000000
00000000
80000004
80000004
80000004
80000004
80000004
80000004
80000004
80000004
80000004
80000004
80000004
80000004
80000004
80000004
80000004
80000004
80000004
80000004
80000004
80000004
80000004
80000004
80000004
80000004
80000004
80000004
80000004
C000000C
40000008
40000008
40000008
20000010
20000010
10000020
08000060
040000C0
03000300
01C00E00
003FF000
ENDCHAR
STARTCHAR 016F
ENCODING 367
SWIDTH 648 0
DWIDTH 36 0
BBX 25 43 6 0
BITMAP
007E0000
00C10000
00808000
01008000
01008000
01008000
01808000
00818000
00630000
003C0000
00000000
00000000
00000000
00000000
80000180
80000180
80000180
80000180
80000180
80000180
80000180
80000180
80000180
80000180
80000180
80000180
80000180
80000180
80000180
80000180
80000180
80000180
80000180
80000180
80000180
40000380
40000380
60000580
20000580
10001980
08003180
0700E180
01FF0180
ENDCHAR
STARTCHAR 0170
ENCODING 368
SWIDTH 792 0
DWIDTH 44 0
BBX 30 48 7 0
BITMAP
0000C0C0
00018100
00030200
00060400
000C0800
00101000
00000000
00000000
00000000
80000004
80000004
80000004
80000004
80000004
80000004
80000004
80000004
80000004
80000004
80000004
80000004
80000004
80000004
80000004
80000004
80000004
80000004
80000004
80000004
80000004
80000004
80000004
80000004
80000004
80000004
80000004
C000000C
40000008
40000008
40000008
20000010
20000010
10000020
08000060
040000C0
03000300
01C00E00
003FF000
ENDCHAR
STARTCHAR 0171
ENCODING 369
SWIDTH 648 0
DWIDTH 36 0
BBX 25 40 6 0
BITMAP
00060600
000C0C00
00181800
00303000
00606000
00C0C000
00000000
00000000
00000000
00000000
00000000
80000180
80000180
80000180
80000180
80000180
80000180
80000180
80000180
80000180
80000180
80000180
80000180
80000180
80000180
80000180
80000180
80000180
80000180
80000180
80000180
80000180
40000380
40000380
60000580
20000580
10001980
08003180
0700E180
01FF0180
ENDCHAR
STARTCHAR 0172
ENCODING 370
SWIDTH 792 0
DWIDTH 44 0
BBX 30 51 7 -12
BITMAP
80000004
80000004
80000004
80000004
80000004
80000004
80000004
80000004
80000004
80000004
80000004
80000004
80000004
80000004
80000004
80000004
80000004
80000004
80000004
80000004
80000004
80000004
80000004
80000004
80000004
80000004
80000004
C000000C
40000008
40000008
40000008
20000010
20000010
10000020
08000040
040000C0
03000300
01C00E00
003FF000
0001C000
00030000
00040000
00080000
00100000
00100000
00300000
00300000
00100000
00100000
000C6000
0007C000
ENDCHAR
STARTCHAR 0173
ENCODING 371
SWIDTH 648 0
DWIDTH 36 0
BBX 25 41 6 -12
BITMAP
80000180
80000180
80000180
80000180
80000180
80000180
80000180
80000180
80000180
80000180
80000180
80000180
80000180
80000180
80000180
80000180
80000180
80000180
80000180
80000180
80000180
40000380
40000380
60000580
20000580
10001980
08003180
0700E180
01FF0180
00000600
00000C00
00001000
00002000
00004000
00004000
0000C000
00008000
0000C000
00004000
00003180
00001E00
ENDCHAR
STARTCHAR 0174
ENCODING 372
SWIDTH 1080 0
DWIDTH 60 0
BBX 54 48 3 0
BITMAP
00000078000000
000000CC000000
00000186000000
00000303000000
00000601800000
00000800400000
00000000000000
00000000000000
00000000000000
80000030000004
80000030000004
C0000030000004
40000048000008
40000048000008
60000048000018
20000084000010
20000084000010
30000186000030
10000102000020
10000102000020
18000303000060
08000201000040
08000201000040
0C0006018000C0
04000400800080
04000400800080
06000800400180
02000800400100
02000800400100
03001000200300
01001000200200
01001000200200
00802000100400
00802000100400
00802000100400
00404000080800
00404000080800
0040C0000C0800
00208000041000
00208000041000
00218000061000
00110000022000
00110000022000
00130000032000
000A0000014000
000A0000014000
000C000000C000
00040000008000
ENDCHAR
STARTCHAR 0175
ENCODING 373
SWIDTH 828 0
DWIDTH 46 0
BBX 45 40 1 0
BITMAP
000007000000
00000D800000
000018C00000
000020600000
000040300000
000180080000
000000000000
000000000000
000000000000
000000000000
000000000000
800002000008
800006000010
400005000010
40000D000030
400009000020
200008800020
200010800060
300010C00040
100010400040
100020400080
080020200080
080060200180
080040300100
040040100100
040080100200
020080080200
020180080200
020100080400
010100040400
010200040C00
010200020800
008200020800
008400021000
004400011000
004800011000
00480001A000
00280000A000
00300000C000
001000004000
ENDCHAR
STARTCHAR 0176
ENCODING 374
SWIDTH 594 0
DWIDTH 33 0
BBX 32 48 1 0
BITMAP
0003C000
00066000
000C3000
00181800
00300C00
00400200
00000000
00000000
00000000
80000001
C0000003
40000002
20000004
3000000C
10000008
18000010
08000030
04000020
06000060
02000040
01000080
01000180
00800100
00C00200
00400200
00200400
00300C00
00100800
00081000
00083000
00042000
00066000
00024000
00018000
00018000
00018000
00018000
00018000
00018000
00018000
00018000
00018000
00018000
00018000
00018000
00018000
00018000
00018000
ENDCHAR
STARTCHAR 0177
ENCODING 375
SWIDTH 504 0
DWIDTH 28 0
BBX 30 51 -2 -11
BITMAP
00038000
0006C000
000C6000
00103000
00201800
00C00400
00000000
00000000
00000000
00000000
00000000
3000000C
10000008
18000008
08000010
0C000010
04000030
04000020
02000060
02000040
010000C0
01000080
01800180
00800100
00C00100
00400200
00600200
00200400
00200400
00100C00
00100800
00081800
00081000
00043000
00042000
00062000
00024000
00034000
00018000
00018000
00018000
00010000
00030000
00020000
00060000
00040000
000C0000
00080000
C0100000
30600000
0F800000
ENDCHAR
STARTCHAR 0178
ENCODING 376
SWIDTH 594 0
DWIDTH 33 0
BBX 32 47 1 0
BITMAP
00100800
00381C00
00381C00
00000000
00000000
00000000
00000000
00000000
80000001
C0000003
40000002
20000004
3000000C
10000008
18000010
08000030
04000020
06000060
02000040
01000080
01000180
00800100
00C00200
00400200
00200400
00300C00
00100800
00081000
00083000
00042000
00066000
00024000
00018000
00018000
00018000
00018000
00018000
00018000
00018000
00018000
00018000
00018000
00018000
00018000
00018000
00018000
00018000
ENDCHAR
STARTCHAR 0179
ENCODING 377
SWIDTH 630 0
DWIDTH 35 0
BBX 30 48 3 0
BITMAP
00001C00
00003000
00006000
0000C000
00030000
00060000
00000000
00000000
00000000
FFFFFFFC
00000008
00000018
00000030
00000020
00000040
000000C0
00000180
00000100
00000200
00000400
00000C00
00001800
00001000
00002000
00006000
0000C000
00008000
00010000
00030000
00060000
00040000
00080000
00100000
00300000
00600000
00400000
00800000
01800000
03000000
02000000
04000000
0C000000
18000000
10000000
20000000
40000000
C0000000
FFFFFFFC
ENDCHAR
STARTCHAR 017A
ENCODING 378
SWIDTH 486 0
DWIDTH 27 0
BBX 22 40 3 0
BITMAP
0001C0
000300
000600
000C00
003000
006000
000000
000000
000000
000000
000000
FFFFF8
000008
000010
000030
000060
000040
000080
000180
000300
000200
000400
000C00
001800
001000
002000
004000
00C000
008000
010000
020000
060000
040000
080000
100000
300000
200000
400000
800000
FFFFFC
ENDCHAR
STARTCHAR 017B
ENCODING 379
SWIDTH 630 0
DWIDTH 35 0
BBX 30 47 3 0
BITMAP
00030000
00030000
00030000
00000000
00000000
00000000
00000000
00000000
FFFFFFFC
00000008
00000018
00000030
00000020
00000040
000000C0
00000180
00000100
00000200
00000400
00000C00
00001800
00001000
00002000
00006000
0000C000
00008000
00010000
00030000
00060000
00040000
00080000
00100000
00300000
00600000
00400000
00800000
01800000
03000000
02000000
04000000
0C000000
18000000
10000000
20000000
40000000
C0000000
FFFFFFFC
ENDCHAR
STARTCHAR 017C
ENCODING 380
SWIDTH 486 0
DWIDTH 27 0
BBX 22 38 3 1
BITMAP
007000
007000
000000
000000
000000
000000
000000
000000
000000
FFFFF8
000008
000010
000030
000060
000040
000080
000180
000300
000200
000400
000C00
001800
001000
002000
004000
00C000
008000
010000
020000
060000
040000
080000
100000
300000
200000
400000
800000
FFFFFC
ENDCHAR
STARTCHAR 017D
ENCODING 381
SWIDTH 630 0
DWIDTH 35 0
BBX 30 48 3 0
BITMAP
00C00C00
00601800
00303000
00186000
0004C000
00030000
00000000
00000000
00000000
FFFFFFFC
00000008
00000018
00000030
00000020
00000040
000000C0
00000180
00000100
00000200
00000400
00000C00
00001800
00001000
00002000
00006000
0000C000
00008000
00010000
00030000
00060000
00040000
00080000
00100000
00300000
00600000
00400000
00800000
01800000
03000000
02000000
04000000
0C000000
18000000
10000000
20000000
40000000
C0000000
FFFFFFFC
ENDCHAR
STARTCHAR 017E
ENCODING 382
SWIDTH 486 0
DWIDTH 27 0
BBX 22 40 3 0
BITMAP
1800C0
0C0180
020300
010600
00C800
007000
000000
000000
000000
000000
000000
FFFFF8
000008
000010
000030
000060
000040
000080
000180
000300
000200
000400
000C00
001800
001000
002000
004000
00C000
008000
010000
020000
060000
040000
080000
100000
300000
200000
400000
800000
FFFFFC
ENDCHAR
STARTCHAR 017F
ENCODING 383
SWIDTH 270 0
DWIDTH 15 0
BBX 18 41 2 0
BITMAP
007F00
0180C0
010000
020000
020000
060000
060000
060000
060000
060000
060000
060000
FE0000
060000
060000
060000
060000
060000
060000
060000
060000
060000
060000
060000
060000
060000
060000
060000
060000
060000
060000
060000
060000
060000
060000
060000
060000
060000
060000
060000
060000
ENDCHAR
STARTCHAR 018F
ENCODING 399
SWIDTH 810 0
DWIDTH 45 0
BBX 39 39 3 0
BITMAP
0003FF0000
001C00E000
0060001800
0180000600
0300000300
0000000080
0000000040
0000000020
0000000030
0000000010
0000000008
0000000008
0000000004
0000000004
0000000004
0000000002
0000000002
0000000002
0000000002
FFFFFFFFFE
8000000002
8000000002
C000000002
4000000002
4000000004
4000000004
6000000004
2000000008
3000000008
1000000010
1800000030
0800000020
0400000040
0200000080
0180000100
00C0000600
0070001800
001E00F000
0003FF8000
ENDCHAR
STARTCHAR 0192
ENCODING 402
SWIDTH 414 0
DWIDTH 23 0
BBX 29 52 -4 -11
BITMAP
00000FF0
00003018
00002000
00004000
0000C000
00008000
00008000
00008000
00008000
00008000
00018000
00010000
003FFFC0
00010000
00010000
00010000
00010000
00010000
00030000
00030000
00020000
00020000
00020000
00020000
00020000
00020000
00060000
00060000
00040000
00040000
00040000
00040000
00040000
00040000
00040000
000C0000
00080000
00080000
00080000
00080000
00080000
00080000
00080000
00180000
00100000
00100000
00100000
00300000
00200000
00400000
C1800000
3E000000
ENDCHAR
STARTCHAR 01A0
ENCODING 416
SWIDTH 828 0
DWIDTH 46 0
BBX 40 47 3 0
BITMAP
0000000004
0000000006
0000000002
0000000002
0000000002
0000000002
0000000006
0000000004
0001FFF038
000F007FE0
0038000C00
00E0000300
0180000180
0300000040
0600000020
0C00000010
0800000018
100000000C
3000000004
2000000006
6000000002
4000000002
4000000003
4000000001
C000000001
8000000001
8000000001
8000000001
8000000001
8000000001
C000000001
4000000001
4000000003
4000000002
6000000002
2000000006
3000000004
100000000C
1800000008
0C00000010
0600000020
0300000060
0180000080
00C0000300
0030000E00
000E007800
0001FFC000
ENDCHAR
STARTCHAR 01A1
ENCODING 417
SWIDTH 594 0
DWIDTH 33 0
BBX 28 37 3 0
BITMAP
00000040
00000020
00000020
00000020
00000020
00000020
00000020
00000040
001FFF80
00E07000
03000C00
04000600
08000100
10000080
200000C0
20000040
40000020
40000020
C0000020
80000030
80000010
80000010
80000010
80000010
80000010
80000010
C0000020
40000020
40000020
60000040
20000040
10000080
18000100
0C000200
03000C00
01C03800
007FE000
ENDCHAR
STARTCHAR 01AF
ENCODING 431
SWIDTH 792 0
DWIDTH 44 0
BBX 35 47 7 0
BITMAP
0000000040
0000000020
0000000020
0000000020
0000000020
0000000020
0000000020
0000000040
8000000780
8000000400
8000000400
8000000400
8000000400
8000000400
8000000400
8000000400
8000000400
8000000400
8000000400
8000000400
8000000400
8000000400
8000000400
8000000400
8000000400
8000000400
8000000400
8000000400
8000000400
8000000400
8000000400
8000000400
8000000400
8000000400
8000000400
C000000C00
4000000800
4000000800
4000000800
2000001000
2000001000
1000002000
0800006000
040000C000
0300030000
01C00E0000
003FF00000
ENDCHAR
STARTCHAR 01B0
ENCODING 432
SWIDTH 648 0
DWIDTH 36 0
BBX 29 37 6 0
BITMAP
00000010
00000010
00000008
00000008
00000008
00000008
00000018
00000010
800001E0
80000180
80000180
80000180
80000180
80000180
80000180
80000180
80000180
80000180
80000180
80000180
80000180
80000180
80000180
80000180
80000180
80000180
80000180
80000180
80000180
40000380
40000380
60000580
20000580
10001980
08003180
0700E180
01FF0180
ENDCHAR
STARTCHAR 01B7
ENCODING 439
SWIDTH 594 0
DWIDTH 33 0
BBX 28 39 2 0
BITMAP
7FFFFFC0
000000C0
00000180
00000100
00000200
00000400
00000C00
00001800
00001000
00002000
00004000
0000C000
00018000
00010000
00020000
00040000
000C0000
00180000
001FF000
00000E00
00000300
00000080
00000040
00000040
00000020
00000020
00000020
00000030
00000030
00000030
00000020
00000020
00000020
80000040
400000C0
30000180
1C000300
07801C00
00FFE000
ENDCHAR
STARTCHAR 01C4
ENCODING 452
SWIDTH 1458 0
DWIDTH 81 0
BBX 71 48 7 0
BITMAP
000000000000600600
000000000000300C00
000000000000181800
0000000000000C3000
000000000000026000
00000000000001C000
000000000000000000
000000000000000000
000000000000000000
FFFFE000007FFFFFFE
C0001E000000000004
C00001C0000000000C
C00000600000000018
C00000180000000010
C000000C0000000020
C00000060000000060
C000000300000000C0
C00000010000000080
C00000008000000100
C0000000C000000300
C00000004000000600
C00000004000000400
C00000002000000800
C00000002000001000
C00000002000003000
C00000002000006000
C00000003000004000
C00000003000008000
C00000003000018000
C00000003000030000
C00000003000020000
C00000002000040000
C000000020000C0000
C00000002000180000
C00000002000100000
C00000004000200000
C00000004000400000
C0000000C000C00000
C00000008001800000
C00000010001000000
C00000030002000000
C00000060006000000
C000000C000C000000
C00000180008000000
C00000700010000000
C00001C00030000000
C0000F000060000000
FFFFF000007FFFFFFE
ENDCHAR
STARTCHAR 01C5
ENCODING 453
SWIDTH 1314 0
DWIDTH 73 0
BBX 64 40 7 0
BITMAP
0000000000060030
FFFFE00000030060
C0001E00000180C0
C00001C000004100
C000006000002600
C000001800001C00
C000000C00000000
C000000600000000
C000000300000000
C000000100000000
C000000080000000
C0000000C03FFFFE
C000000040000002
C000000040000004
C000000020000008
C000000020000018
C000000020000010
C000000020000020
C000000030000040
C0000000300000C0
C000000030000080
C000000030000100
C000000030000200
C000000020000600
C000000020000C00
C000000020000800
C000000020001000
C000000040003000
C000000040006000
C0000000C0004000
C000000080008000
C000000100018000
C000000300030000
C000000600020000
C000000C00040000
C0000018000C0000
C000007000180000
C00001C000100000
C0000F0000200000
FFFFF000007FFFFF
ENDCHAR
STARTCHAR 01C6
ENCODING 454
SWIDTH 1170 0
DWIDTH 65 0
BBX 59 41 3 0
BITMAP
0000001000000000
0000001000400200
0000001000200400
0000001000181800
00000010000C3000
0000001000066000
000000100003C000
0000001000000000
0000001000000000
0000001000000000
0000001000000000
0000001000000000
001F801007FFFFE0
00E0701000000040
03000C10000000C0
0400061000000080
0800011000000100
1000009000000200
200000D000000600
2000005000000400
4000003000000800
4000003000001000
C000003000003000
8000003000002000
8000001000004000
8000001000008000
8000001000018000
8000001000030000
8000001000020000
8000001000040000
C0000030000C0000
4000003000180000
4000003000100000
6000005000200000
2000005000600000
1000009000C00000
1800011000800000
0C00021001000000
03000C1003000000
01C0381006000000
007FC01007FFFFE0
ENDCHAR
STARTCHAR 01C7
ENCODING 455
SWIDTH 1044 0
DWIDTH 58 0
BBX 45 39 7 0
BITMAP
C0000007FFF8
C00000000008
C00000000008
C00000000008
C00000000008
C00000000008
C00000000008
C00000000008
C00000000008
C00000000008
C00000000008
C00000000008
C00000000008
C00000000008
C00000000008
C00000000008
C00000000008
C00000000008
C00000000008
C00000000008
C00000000008
C00000000008
C00000000008
C00000000008
C00000000008
C00000000008
C00000000008
C00000000008
C00000000008
C00000000018
C00000000018
C00000000010
C00000000010
C00000200010
C00000200020
C00000100020
C000000C0040
C00000070180
FFFFFF81FE00
ENDCHAR
STARTCHAR 01C8
ENCODING 456
SWIDTH 828 0
DWIDTH 46 0
BBX 34 51 7 -11
BITMAP
0000000080
C0000001C0
C0000001C0
C000000000
C000000000
C000000000
C000000000
C000000000
C000000000
C000000000
C000000000
C000000080
C000000080
C000000080
C000000080
C000000080
C000000080
C000000080
C000000080
C000000080
C000000080
C000000080
C000000080
C000000080
C000000080
C000000080
C000000080
C000000080
C000000080
C000000080
C000000080
C000000080
C000000080
C000000080
C000000080
C000000080
C000000080
C000000080
C000000080
FFFFFF8080
0000000080
0000000080
0000000080
0000000080
0000000080
0000000080
0000000180
0000000100
0000040300
0000070600
000001F800
ENDCHAR
STARTCHAR 01C9
ENCODING 457
SWIDTH 504 0
DWIDTH 28 0
BBX 16 52 6 -11
BITMAP
C000
C001
C003
C003
C000
C000
C000
C000
C000
C000
C000
C000
C001
C001
C001
C001
C001
C001
C001
C001
C001
C001
C001
C001
C001
C001
C001
C001
C001
C001
C001
C001
C001
C001
C001
C001
C001
C001
C001
C001
C001
0001
0001
0001
0001
0001
0003
0002
0002
1004
0C18
03F0
ENDCHAR
STARTCHAR 01CA
ENCODING 458
SWIDTH 1278 0
DWIDTH 71 0
BBX 58 39 7 0
BITMAP
C0000002003FFFC0
C000000200000040
E000000200000040
D000000200000040
D800000200000040
C800000200000040
C400000200000040
C200000200000040
C300000200000040
C180000200000040
C080000200000040
C040000200000040
C060000200000040
C030000200000040
C010000200000040
C008000200000040
C004000200000040
C006000200000040
C003000200000040
C001000200000040
C000800200000040
C000C00200000040
C000600200000040
C000200200000040
C000100200000040
C000080200000040
C0000C0200000040
C000060200000040
C000020200000040
C000010200000040
C000018200000040
C00000C2000000C0
C000004200000080
C000002201000080
C000001201800180
C000001A00800100
C000000E00600200
C000000600380C00
C0000002000FF000
ENDCHAR
STARTCHAR 01CB
ENCODING 459
SWIDTH 1062 0
DWIDTH 59 0
BBX 47 51 7 -11
BITMAP
000000000004
C0000002000E
C0000002000E
E00000020000
D00000020000
D80000020000
C80000020000
C40000020000
C20000020000
C30000020000
C18000020000
C08000020004
C04000020004
C06000020004
C03000020004
C01000020004
C00800020004
C00400020004
C00600020004
C00300020004
C00100020004
C00080020004
C000C0020004
C00060020004
C00020020004
C00010020004
C00008020004
C0000C020004
C00006020004
C00002020004
C00001020004
C00001820004
C00000C20004
C00000420004
C00000220004
C00000120004
C000001A0004
C000000E0004
C00000060004
C00000020004
000000000004
000000000004
000000000004
000000000004
000000000004
000000000004
000000000004
000000000008
000000002018
000000003830
000000000FC0
ENDCHAR
STARTCHAR 01CC
ENCODING 460
SWIDTH 918 0
DWIDTH 51 0
BBX 40 50 6 -10
BITMAP
0000000007
0000000007
0000000000
0000000000
0000000000
0000000000
0000000000
0000000000
0000000000
0000000000
C03F800002
C1C0700002
C300180002
CC00040002
D800020002
D000030002
E000010002
E000010002
C000008002
C000008002
C000008002
C000008002
C000008002
C000008002
C000008002
C000008002
C000008002
C000008002
C000008002
C000008002
C000008002
C000008002
C000008002
C000008002
C000008002
C000008002
C000008002
C000008002
C000008002
0000000002
0000000002
0000000002
0000000002
0000000002
0000000002
0000000006
0000000004
000000100C
0000001C38
00000007E0
ENDCHAR
STARTCHAR 01CD
ENCODING 461
SWIDTH 684 0
DWIDTH 38 0
BBX 37 48 1 0
BITMAP
0018018000
000C030000
0006060000
00030C0000
0000980000
0000700000
0000000000
0000000000
0000000000
0000600000
0000600000
0000D00000
0000900000
0000980000
0001080000
00010C0000
0002040000
0002060000
0004020000
0004030000
000C010000
0008010000
0018008000
0010008000
0030004000
0020004000
0060006000
0040002000
0040003000
0080001000
0080001800
0100000800
0100000C00
0300000400
0200000400
07FFFFFE00
0400000200
0C00000100
0800000100
1800000080
1000000080
10000000C0
2000000040
2000000060
4000000020
4000000030
8000000010
8000000018
ENDCHAR
STARTCHAR 01CE
ENCODING 462
SWIDTH 558 0
DWIDTH 31 0
BBX 22 40 4 0
BITMAP
080040
060080
030100
018600
00CC00
007800
000000
000000
000000
000000
000000
00FE00
0701C0
180060
600030
C00018
000008
000008
00000C
000004
000004
000004
000004
000004
00FFFC
0F8004
300004
600004
C00004
800004
800004
800004
80000C
80000C
800014
C00034
400024
3000C4
1C0384
07FC04
ENDCHAR
STARTCHAR 01D3
ENCODING 467
SWIDTH 792 0
DWIDTH 44 0
BBX 30 48 7 0
BITMAP
00C00C00
00601800
00303000
00186000
0004C000
00030000
00000000
00000000
00000000
80000004
80000004
80000004
80000004
80000004
80000004
80000004
80000004
80000004
80000004
80000004
80000004
80000004
80000004
80000004
80000004
80000004
80000004
80000004
80000004
80000004
80000004
80000004
80000004
80000004
80000004
80000004
C000000C
40000008
40000008
40000008
20000010
20000010
10000020
08000060
040000C0
03000300
01C00E00
003FF000
ENDCHAR
STARTCHAR 01D4
ENCODING 468
SWIDTH 648 0
DWIDTH 36 0
BBX 25 40 6 0
BITMAP
06003000
03004000
01808000
00C30000
00660000
001C0000
00000000
00000000
00000000
00000000
00000000
80000180
80000180
80000180
80000180
80000180
80000180
80000180
80000180
80000180
80000180
80000180
80000180
80000180
80000180
80000180
80000180
80000180
80000180
80000180
80000180
80000180
40000380
40000380
60000580
20000580
10001980
08003180
0700E180
01FF0180
ENDCHAR
STARTCHAR 01E4
ENCODING 484
SWIDTH 792 0
DWIDTH 44 0
BBX 40 39 3 0
BITMAP
0001FF8000
000F007800
0038000E00
0060000300
0180000080
0300000000
0600000000
0C00000000
0800000000
1000000000
3000000000
2000000000
6000000000
4000000000
4000000000
4000000000
C000000000
8000000000
8000000000
8000000000
8000000040
8000000040
C000000040
4000000040
4000000040
40000FFFFF
60000FFFFF
2000000040
3000000040
1000000040
1800000040
0C00000040
0600000040
0300000040
0180000080
00C0000300
0030000600
000E003800
0001FFC000
ENDCHAR
STARTCHAR 01E5
ENCODING 485
SWIDTH 666 0
DWIDTH 37 0
BBX 32 40 3 -11
BITMAP
001FC010
00E07810
03000C10
04000310
08000190
10000090
20000050
60000070
40000030
40000030
C0000010
80000010
80000010
80000010
80000010
80000010
80000010
C0000010
40000030
40000030
60000030
20000050
10000090
18000190
0C000310
03000610
01C03810
003FC010
00000010
00000010
00000010
00000010
0003FFFF
00000020
00000060
10000040
0C000080
07000300
01E01C00
001FE000
ENDCHAR
STARTCHAR 01E6
ENCODING 486
SWIDTH 774 0
DWIDTH 43 0
BBX 34 48 3 0
BITMAP
000C004000
0006008000
0001030000
0000860000
00006C0000
0000380000
0000000000
0000000000
0000000000
0001FF8000
000F007800
0038000E00
0060000300
0180000080
0300000000
0600000000
0C00000000
0800000000
1000000000
3000000000
2000000000
6000000000
4000000000
4000000000
4000000000
C000000000
8000000000
8000000000
8000000000
8000000040
8000000040
C000000040
4000000040
4000000040
4000000040
6000000040
2000000040
3000000040
1000000040
1800000040
0C00000040
0600000040
0300000040
0180000080
00C0000300
0030000600
000E003800
0001FFC000
ENDCHAR
STARTCHAR 01E7
ENCODING 487
SWIDTH 666 0
DWIDTH 37 0
BBX 28 51 3 -11
BITMAP
01800C00
00C01800
00603000
00104000
00098000
00070000
00000000
00000000
00000000
00000000
00000000
001FC010
00E07810
03000C10
04000310
08000190
10000090
20000050
60000070
40000030
40000030
C0000010
80000010
80000010
80000010
80000010
80000010
80000010
C0000010
40000030
40000030
60000030
20000050
10000090
18000190
0C000310
03000610
01C03810
003FC010
00000010
00000010
00000010
00000010
00000020
00000020
00000060
10000040
0C000080
07000300
01E01C00
001FE000
ENDCHAR
STARTCHAR 01E8
ENCODING 488
SWIDTH 684 0
DWIDTH 38 0
BBX 30 48 7 0
BITMAP
03001800
00802000
00604000
00318000
001B0000
000E0000
00000000
00000000
00000000
C0000018
C0000030
C0000060
C0000040
C0000080
C0000100
C0000200
C0000400
C0000800
C0001000
C0002000
C0004000
C0008000
C0010000
C0020000
C0040000
C0080000
C0100000
C0380000
C0480000
C0840000
C1020000
C3010000
C6018000
CC00C000
D8006000
F0003000
E0001000
C0000800
C0000400
C0000200
C0000300
C0000180
C00000C0
C0000060
C0000030
C0000010
C0000008
C0000004
ENDCHAR
STARTCHAR 01E9
ENCODING 489
SWIDTH 558 0
DWIDTH 31 0
BBX 30 52 0 0
BITMAP
C00C0000
60180000
30200000
08400000
07800000
03000000
00000000
00000000
00000000
00000000
00000000
03000000
03000000
03000000
03000000
03000000
03000000
03000000
03000000
03000000
03000000
03000000
03000000
03000008
03000030
03000060
030000C0
03000180
03000300
03000600
03000C00
03001000
03002000
03004000
03018000
0303C000
03064000
030C2000
03183000
03201800
03400C00
03800400
03000200
03000300
03000180
030000C0
03000040
03000020
03000030
03000018
03000008
03000004
ENDCHAR
STARTCHAR 01EA
ENCODING 490
SWIDTH 828 0
DWIDTH 46 0
BBX 40 51 3 -12
BITMAP
0001FF8000
000F007000
0038000C00
00C0000300
0180000180
0300000040
0600000020
0C00000010
0800000008
100000000C
3000000004
2000000006
6000000002
4000000002
4000000003
4000000001
C000000001
8000000001
8000000001
8000000001
8000000001
8000000001
C000000001
4000000001
4000000003
4000000002
6000000002
2000000006
3000000004
100000000C
1800000008
0C00000010
0400000020
0300000060
0180000080
00C0000300
0030000E00
000E007800
0001FFC000
00000C0000
0000300000
0000600000
0000C00000
0000800000
0001000000
0001000000
0001000000
0001000000
0001800000
0000C30000
00003C0000
ENDCHAR
STARTCHAR 01EB
ENCODING 491
SWIDTH 594 0
DWIDTH 33 0
BBX 28 41 3 -12
BITMAP
001F8000
00E07000
03000C00
04000600
08000100
10000080
200000C0
20000040
40000020
40000020
C0000020
80000030
80000010
80000010
80000010
80000010
80000010
80000010
C0000020
40000020
40000020
60000040
20000040
10000080
18000100
0C000200
03000C00
01C03800
007FE000
00018000
00020000
00040000
00080000
00100000
00100000
00100000
00300000
00100000
00100000
000C6000
0007C000
ENDCHAR
STARTCHAR 01EE
ENCODING 494
SWIDTH 594 0
DWIDTH 33 0
BBX 28 48 2 0
BITMAP
01801800
00C03000
00606000
0030C000
00190000
00060000
00000000
00000000
00000000
7FFFFFC0
000000C0
00000180
00000100
00000200
00000400
00000C00
00001800
00001000
00002000
00004000
0000C000
00018000
00010000
00020000
00040000
000C0000
00180000
001FF000
00000E00
00000300
00000080
00000040
00000040
00000020
00000020
00000020
00000030
00000030
00000030
00000020
00000020
00000020
80000040
400000C0
30000180
1C000300
07801C00
00FFE000
ENDCHAR
STARTCHAR 01EF
ENCODING 495
SWIDTH 486 0
DWIDTH 27 0
BBX 26 51 -1 -11
BITMAP
02001000
01006000
0080C000
00618000
00330000
001E0000
00000000
00000000
00000000
00000000
00000000
7FFFFF00
00000100
00000200
00000600
00000C00
00000800
00001000
00003000
00006000
00004000
00008000
00018000
00030000
00020000
00040000
000C0000
00180000
00100000
003F8000
00007000
00000C00
00000600
00000300
00000100
00000080
00000080
00000080
000000C0
00000040
00000040
00000040
00000080
00000080
00000080
80000100
C0000300
20000600
18000C00
07807000
00FF8000
ENDCHAR
STARTCHAR 01FA
ENCODING 506
SWIDTH 684 0
DWIDTH 38 0
BBX 37 57 1 0
BITMAP
0000004000
000000C000
0000018000
0000230000
0001FE0000
0002040000
0006020000
0004020000
0004020000
0004020000
0004020000
0002040000
0001980000
0000600000
0000000000
0000000000
0000000000
0000000000
0000600000
0000600000
0000D00000
0000900000
0000980000
0001080000
00010C0000
0002040000
0002060000
0004020000
0004030000
000C010000
0008010000
0018008000
0010008000
0030004000
0020004000
0060006000
0040002000
0040003000
0080001000
0080001800
0100000800
0100000C00
0300000400
0200000400
07FFFFFE00
0400000200
0C00000100
0800000100
1800000080
1000000080
10000000C0
2000000040
2000000060
4000000020
4000000030
8000000010
8000000018
ENDCHAR
STARTCHAR 01FB
ENCODING 507
SWIDTH 558 0
DWIDTH 31 0
BBX 22 46 4 1
BITMAP
000020
0000C0
000180
00FF00
018200
010300
020100
020100
020100
020100
010200
00C600
007800
000000
000000
000000
000000
00FE00
0701C0
180060
600030
C00018
000008
000008
00000C
000004
000004
000004
000004
000004
00FFFC
0F8004
300004
600004
C00004
800004
800004
800004
80000C
80000C
800014
C00034
400024
3000C4
1C0384
07FC04
ENDCHAR
STARTCHAR 01FC
ENCODING 508
SWIDTH 990 0
DWIDTH 55 0
BBX 51 48 1 0
BITMAP
00000003800000
00000006000000
0000000C000000
00000030000000
00000060000000
00000080000000
00000000000000
00000000000000
00000000000000
000000FFFFFFC0
000001C0000000
00000140000000
00000240000000
00000640000000
00000440000000
00000840000000
00000840000000
00001040000000
00003040000000
00002040000000
00004040000000
0000C040000000
00008040000000
00010040000000
00030040000000
00020040000000
00040040000000
00040040000000
0008007FFFFF00
00180040000000
00100040000000
00200040000000
00600040000000
00400040000000
00800040000000
01FFFFC0000000
01000040000000
02000040000000
02000040000000
04000040000000
0C000040000000
08000040000000
10000040000000
30000040000000
20000040000000
40000040000000
C0000040000000
8000007FFFFFE0
ENDCHAR
STARTCHAR 01FD
ENCODING 509
SWIDTH 972 0
DWIDTH 54 0
BBX 47 40 4 0
BITMAP
000000300000
000000600000
000000C00000
000003000000
000006000000
00000C000000
000010000000
000000000000
000000000000
000000000000
000000000000
00FE0001F800
0701C00E0700
1800603000C0
600030600060
C00018C00030
000009800018
000009000008
00000E000004
000006000004
000006000002
000004000002
000004000002
000004000002
00FFFFFFFFFE
0FFFFFFFFFFE
300004000000
600004000000
C00004000000
800004000000
800006000000
80000E000000
80000B000000
800009000000
800019800000
C00010C0000C
400020600018
3000C0100030
1C03800E01C0
07FC0001FF00
ENDCHAR
STARTCHAR 01FE
ENCODING 510
SWIDTH 828 0
DWIDTH 46 0
BBX 40 52 3 -4
BITMAP
0000006000
0000018000
0000030000
0000060000
0000080000
000030000C
0000000008
0000000010
0000000030
0001FF8020
000F007040
0038000C80
00C0000380
0180000180
0300000240
0600000420
0C00000C10
0800000808
100000100C
3000003004
2000006006
6000004002
4000008002
4000018003
4000010001
C000020001
8000040001
80000C0001
8000080001
8000100001
8000200001
C000600001
4000400001
4000800003
4001800002
6003000002
2002000006
3004000004
100C00000C
1808000008
0C10000010
0420000020
0360000060
01C0000080
00C0000300
0130000E00
030E007800
0201FFC000
0400000000
0C00000000
1800000000
1000000000
ENDCHAR
STARTCHAR 01FF
ENCODING 511
SWIDTH 594 0
DWIDTH 33 0
BBX 28 44 3 -4
BITMAP
00001800
00003000
0000C000
00018000
00030000
000C0000
00000000
00000020
00000040
000000C0
00000080
001F8100
00E07200
03000E00
04000600
08000900
10001880
200010C0
20002040
40006020
40004020
C0008020
80018030
80010010
80020010
80060010
80040010
80080010
80180010
C0100020
40200020
40600020
60400040
20800040
11800080
19000100
0E000200
07000C00
05C03800
087FE000
10000000
30000000
20000000
40000000
ENDCHAR
STARTCHAR 0200
ENCODING 512
SWIDTH 684 0
DWIDTH 38 0
BBX 37 48 1 0
BITMAP
01C1800000
0060C00000
0030200000
0018100000
000C080000
0006040000
0000000000
0000000000
0000000000
0000600000
0000600000
0000D00000
0000900000
0000980000
0001080000
00010C0000
0002040000
0002060000
0004020000
0004030000
000C010000
0008010000
0018008000
0010008000
0030004000
0020004000
0060006000
0040002000
0040003000
0080001000
0080001800
0100000800
0100000C00
0300000400
0200000400
07FFFFFE00
0400000200
0C00000100
0800000100
1800000080
1000000080
10000000C0
2000000040
2000000060
4000000020
4000000030
8000000010
8000000018
ENDCHAR
STARTCHAR 0201
ENCODING 513
SWIDTH 558 0
DWIDTH 31 0
BBX 22 40 4 0
BITMAP
C0C000
606000
303000
081800
040C00
020600
010000
000000
000000
000000
000000
00FE00
0701C0
180060
600030
C00018
000008
000008
00000C
000004
000004
000004
000004
000004
00FFFC
0F8004
300004
600004
C00004
800004
800004
800004
80000C
80000C
800014
C00034
400024
3000C4
1C0384
07FC04
ENDCHAR
STARTCHAR 0202
ENCODING 514
SWIDTH 684 0
DWIDTH 38 0
BBX 37 48 1 0
BITMAP
0003FC0000
0006020000
0008010000
0018008000
0010008000
0010008000
0000000000
0000000000
0000000000
0000600000
0000600000
0000D00000
0000900000
0000980000
0001080000
00010C0000
0002040000
0002060000
0004020000
0004030000
000C010000
0008010000
0018008000
0010008000
0030004000
0020004000
0060006000
0040002000
0040003000
0080001000
0080001800
0100000800
0100000C00
0300000400
0200000400
07FFFFFE00
0400000200
0C00000100
0800000100
1800000080
1000000080
10000000C0
2000000040
2000000060
4000000020
4000000030
8000000010
8000000018
ENDCHAR
STARTCHAR 0203
ENCODING 515
SWIDTH 558 0
DWIDTH 31 0
BBX 22 40 4 0
BITMAP
00FC00
038300
060080
040040
080040
080040
000000
000000
000000
000000
000000
00FE00
0701C0
180060
600030
C00018
000008
000008
00000C
000004
000004
000004
000004
000004
00FFFC
0F8004
300004
600004
C00004
800004
800004
800004
80000C
80000C
800014
C00034
400024
3000C4
1C0384
07FC04
ENDCHAR
STARTCHAR 0204
ENCODING 516
SWIDTH 666 0
DWIDTH 37 0
BBX 26 48 7 0
BITMAP
10300000
08180000
040C0000
02060000
01030000
00808000
00000000
00000000
00000000
FFFFFF80
C0000000
C0000000
C0000000
C0000000
C0000000
C0000000
C0000000
C0000000
C0000000
C0000000
C0000000
C0000000
C0000000
C0000000
C0000000
C0000000
C0000000
C0000000
FFFFFE00
C0000000
C0000000
C0000000
C0000000
C0000000
C0000000
C0000000
C0000000
C0000000
C0000000
C0000000
C0000000
C0000000
C0000000
C0000000
C0000000
C0000000
C0000000
FFFFFFC0
ENDCHAR
STARTCHAR 0205
ENCODING 517
SWIDTH 576 0
DWIDTH 32 0
BBX 27 40 3 0
BITMAP
10300000
08180000
040C0000
02060000
01010000
00808000
00400000
00000000
00000000
00000000
00000000
003F0000
01E0E000
03001800
0C000C00
18000200
10000100
20000180
60000080
400000C0
40000040
C0000040
80000040
80000060
80000020
FFFFFFE0
80000000
80000000
80000000
C0000000
40000000
40000000
20000000
20000000
10000000
18000180
0C000300
03000600
01C03800
003FE000
ENDCHAR
STARTCHAR 0206
ENCODING 518
SWIDTH 666 0
DWIDTH 37 0
BBX 26 48 7 0
BITMAP
007F8000
00C0C000
01002000
02001000
02001000
02001000
00000000
00000000
00000000
FFFFFF80
C0000000
C0000000
C0000000
C0000000
C0000000
C0000000
C0000000
C0000000
C0000000
C0000000
C0000000
C0000000
C0000000
C0000000
C0000000
C0000000
C0000000
C0000000
FFFFFE00
C0000000
C0000000
C0000000
C0000000
C0000000
C0000000
C0000000
C0000000
C0000000
C0000000
C0000000
C0000000
C0000000
C0000000
C0000000
C0000000
C0000000
C0000000
FFFFFFC0
ENDCHAR
STARTCHAR 0207
ENCODING 519
SWIDTH 576 0
DWIDTH 32 0
BBX 27 40 3 0
BITMAP
003F0000
00E0C000
01802000
01001000
02001000
02000800
00000000
00000000
00000000
00000000
00000000
003F0000
01E0E000
03001800
0C000C00
18000200
10000100
20000180
60000080
400000C0
40000040
C0000040
80000040
80000060
80000020
FFFFFFE0
80000000
80000000
80000000
C0000000
40000000
40000000
20000000
20000000
10000000
18000180
0C000300
03000600
01C03800
003FE000
ENDCHAR
STARTCHAR 0208
ENCODING 520
SWIDTH 270 0
DWIDTH 15 0
BBX 14 48 -2 0
BITMAP
8180
40C0
2060
1030
0818
0404
0000
0000
0000
0060
0060
0060
0060
0060
0060
0060
0060
0060
0060
0060
0060
0060
0060
0060
0060
0060
0060
0060
0060
0060
0060
0060
0060
0060
0060
0060
0060
0060
0060
0060
0060
0060
0060
0060
0060
0060
0060
0060
ENDCHAR
STARTCHAR 0209
ENCODING 521
SWIDTH 234 0
DWIDTH 13 0
BBX 15 40 -4 0
BITMAP
C0C0
6060
3030
1818
0C0C
0606
0000
0000
0000
0000
0000
0030
0030
0030
0030
0030
0030
0030
0030
0030
0030
0030
0030
0030
0030
0030
0030
0030
0030
0030
0030
0030
0030
0030
0030
0030
0030
0030
0030
0030
ENDCHAR
STARTCHAR 020A
ENCODING 522
SWIDTH 270 0
DWIDTH 15 0
BBX 14 48 1 0
BITMAP
1FE0
3030
4008
8004
8004
8004
0000
0000
0000
0300
0300
0300
0300
0300
0300
0300
0300
0300
0300
0300
0300
0300
0300
0300
0300
0300
0300
0300
0300
0300
0300
0300
0300
0300
0300
0300
0300
0300
0300
0300
0300
0300
0300
0300
0300
0300
0300
0300
ENDCHAR
STARTCHAR 020B
ENCODING 523
SWIDTH 234 0
DWIDTH 13 0
BBX 12 40 1 0
BITMAP
1F80
30C0
4020
C020
8010
8010
0000
0000
0000
0000
0000
0600
0600
0600
0600
0600
0600
0600
0600
0600
0600
0600
0600
0600
0600
0600
0600
0600
0600
0600
0600
0600
0600
0600
0600
0600
0600
0600
0600
0600
ENDCHAR
STARTCHAR 020C
ENCODING 524
SWIDTH 828 0
DWIDTH 46 0
BBX 40 48 3 0
BITMAP
0030200000
0018100000
000C080000
0006040000
0003020000
0001810000
0000000000
0000000000
0000000000
0001FF8000
000F007000
0038000C00
00C0000300
0180000180
0300000040
0600000020
0C00000010
0800000008
100000000C
3000000004
2000000006
6000000002
4000000002
4000000003
4000000001
C000000001
8000000001
8000000001
8000000001
8000000001
8000000001
C000000001
4000000001
4000000003
4000000002
6000000002
2000000006
3000000004
100000000C
1800000008
0C00000010
0400000020
0300000060
0180000080
00C0000300
0030000E00
000E007800
0001FFC000
ENDCHAR
STARTCHAR 020D
ENCODING 525
SWIDTH 594 0
DWIDTH 33 0
BBX 28 40 3 0
BITMAP
18180000
0C0C0000
06060000
03030000
01818000
00C0C000
00000000
00000000
00000000
00000000
00000000
001F8000
00E07000
03000C00
04000600
08000100
10000080
200000C0
20000040
40000020
40000020
C0000020
80000030
80000010
80000010
80000010
80000010
80000010
80000010
C0000020
40000020
40000020
60000040
20000040
10000080
18000100
0C000200
03000C00
01C03800
007FE000
ENDCHAR
STARTCHAR 020E
ENCODING 526
SWIDTH 828 0
DWIDTH 46 0
BBX 40 48 3 0
BITMAP
0000FF0000
000180C000
0002004000
0006002000
0004002000
0004002000
0000000000
0000000000
0000000000
0001FF8000
000F007000
0038000C00
00C0000300
0180000180
0300000040
0600000020
0C00000010
0800000008
100000000C
3000000004
2000000006
6000000002
4000000002
4000000003
4000000001
C000000001
8000000001
8000000001
8000000001
8000000001
8000000001
C000000001
4000000001
4000000003
4000000002
6000000002
2000000006
3000000004
100000000C
1800000008
0C00000010
0400000020
0300000060
0180000080
00C0000300
0030000E00
000E007800
0001FFC000
ENDCHAR
STARTCHAR 020F
ENCODING 527
SWIDTH 594 0
DWIDTH 33 0
BBX 28 40 3 0
BITMAP
001F8000
00606000
00C03000
01801800
01000800
01000800
00000000
00000000
00000000
00000000
00000000
001F8000
00E07000
03000C00
04000600
08000100
10000080
200000C0
20000040
40000020
40000020
C0000020
80000030
80000010
80000010
80000010
80000010
80000010
80000010
C0000020
40000020
40000020
60000040
20000040
10000080
18000100
0C000200
03000C00
01C03800
007FE000
ENDCHAR
STARTCHAR 0210
ENCODING 528
SWIDTH 702 0
DWIDTH 39 0
BBX 29 48 7 0
BITMAP
18300000
0C080000
06040000
03020000
01810000
00C0C000
00000000
00000000
00000000
FFFFC000
C0003800
C0000600
C0000180
C00000C0
C0000060
C0000020
C0000010
C0000010
C0000010
C0000008
C0000008
C0000008
C0000008
C0000008
C0000018
C0000010
C0000010
C0000030
C0000020
C0000040
C00000C0
C0000100
C0000600
C000F800
FFFF3000
C0001000
C0000800
C0000C00
C0000600
C0000200
C0000100
C0000180
C0000080
C0000040
C0000060
C0000030
C0000010
C0000008
ENDCHAR
STARTCHAR 0211
ENCODING 529
SWIDTH 378 0
DWIDTH 21 0
BBX 17 40 2 0
BITMAP
C08000
604000
302000
181000
0C0800
060400
000200
000000
000000
000000
000000
0C0780
0C1C00
0C6000
0C8000
0D0000
0F0000
0E0000
0E0000
0C0000
0C0000
0C0000
0C0000
0C0000
0C0000
0C0000
0C0000
0C0000
0C0000
0C0000
0C0000
0C0000
0C0000
0C0000
0C0000
0C0000
0C0000
0C0000
0C0000
0C0000
ENDCHAR
STARTCHAR 0212
ENCODING 530
SWIDTH 702 0
DWIDTH 39 0
BBX 29 48 7 0
BITMAP
003F8000
00C06000
01803000
01001000
02001000
02000800
00000000
00000000
00000000
FFFFC000
C0003800
C0000600
C0000180
C00000C0
C0000060
C0000020
C0000010
C0000010
C0000010
C0000008
C0000008
C0000008
C0000008
C0000008
C0000018
C0000010
C0000010
C0000030
C0000020
C0000040
C00000C0
C0000100
C0000600
C000F800
FFFF3000
C0001000
C0000800
C0000C00
C0000600
C0000200
C0000100
C0000180
C0000080
C0000040
C0000060
C0000030
C0000010
C0000008
ENDCHAR
STARTCHAR 0213
ENCODING 531
SWIDTH 378 0
DWIDTH 21 0
BBX 15 40 5 0
BITMAP
07E0
1838
200C
4004
4002
8002
0000
0000
0000
0000
0000
603C
60E0
6300
6400
6800
7800
7000
7000
6000
6000
6000
6000
6000
6000
6000
6000
6000
6000
6000
6000
6000
6000
6000
6000
6000
6000
6000
6000
6000
ENDCHAR
STARTCHAR 0214
ENCODING 532
SWIDTH 792 0
DWIDTH 44 0
BBX 30 48 7 0
BITMAP
0C0C0000
02060000
01030000
00808000
00404000
00302000
00000000
00000000
00000000
80000004
80000004
80000004
80000004
80000004
80000004
80000004
80000004
80000004
80000004
80000004
80000004
80000004
80000004
80000004
80000004
80000004
80000004
80000004
80000004
80000004
80000004
80000004
80000004
80000004
80000004
80000004
C000000C
40000008
40000008
40000008
20000010
20000010
10000020
08000060
040000C0
03000300
01C00E00
003FF000
ENDCHAR
STARTCHAR 0215
ENCODING 533
SWIDTH 648 0
DWIDTH 36 0
BBX 25 40 6 0
BITMAP
60600000
10300000
08180000
040C0000
02060000
01010000
00800000
00000000
00000000
00000000
00000000
80000180
80000180
80000180
80000180
80000180
80000180
80000180
80000180
80000180
80000180
80000180
80000180
80000180
80000180
80000180
80000180
80000180
80000180
80000180
80000180
80000180
40000380
40000380
60000580
20000580
10001980
08003180
0700E180
01FF0180
ENDCHAR
STARTCHAR 0216
ENCODING 534
SWIDTH 792 0
DWIDTH 44 0
BBX 30 48 7 0
BITMAP
001FE000
00303000
00400800
00800400
00800400
00800400
00000000
00000000
00000000
80000004
80000004
80000004
80000004
80000004
80000004
80000004
80000004
80000004
80000004
80000004
80000004
80000004
80000004
80000004
80000004
80000004
80000004
80000004
80000004
80000004
80000004
80000004
80000004
80000004
80000004
80000004
C000000C
40000008
40000008
40000008
20000010
20000010
10000020
08000060
040000C0
03000300
01C00E00
003FF000
ENDCHAR
STARTCHAR 0217
ENCODING 535
SWIDTH 648 0
DWIDTH 36 0
BBX 25 40 6 0
BITMAP
007E0000
01C18000
03004000
02002000
04002000
04003000
00000000
00000000
00000000
00000000
00000000
80000180
80000180
80000180
80000180
80000180
80000180
80000180
80000180
80000180
80000180
80000180
80000180
80000180
80000180
80000180
80000180
80000180
80000180
80000180
80000180
80000180
40000380
40000380
60000580
20000580
10001980
08003180
0700E180
01FF0180
ENDCHAR
STARTCHAR 0218
ENCODING 536
SWIDTH 594 0
DWIDTH 33 0
BBX 27 53 3 -14
BITMAP
007FE000
01C03C00
06000300
080000C0
10000000
30000000
20000000
20000000
60000000
40000000
40000000
60000000
20000000
20000000
10000000
18000000
0C000000
03800000
00F00000
000F0000
0001E000
00001C00
00000300
00000180
000000C0
00000040
00000020
00000020
00000020
00000020
00000020
00000020
00000060
C0000040
600000C0
30000180
0C000300
03801C00
007FE000
00000000
00000000
00000000
00000000
00000000
00000000
00000000
00070000
00070000
00030000
00030000
00020000
00020000
00020000
ENDCHAR
STARTCHAR 0219
ENCODING 537
SWIDTH 450 0
DWIDTH 25 0
BBX 22 43 2 -14
BITMAP
01FE00
0703C0
180030
300010
200000
400000
400000
400000
400000
400000
600000
300000
180000
070000
01F800
000F80
0000E0
000030
000008
000008
00000C
000004
00000C
000008
800008
C00018
700030
1C00C0
03FF00
000000
000000
000000
000000
000000
000000
000000
003000
007000
003000
001000
003000
002000
002000
ENDCHAR
STARTCHAR 021A
ENCODING 538
SWIDTH 540 0
DWIDTH 30 0
BBX 30 53 0 -14
BITMAP
FFFFFFFC
00010000
00010000
00010000
00010000
00010000
00010000
00010000
00010000
00010000
00010000
00010000
00010000
00010000
00010000
00010000
00010000
00010000
00010000
00010000
00010000
00010000
00010000
00010000
00010000
00010000
00010000
00010000
00010000
00010000
00010000
00010000
00010000
00010000
00010000
00010000
00010000
00010000
00010000
00000000
00000000
00000000
00000000
00000000
00000000
00000000
00030000
00038000
00018000
00010000
00010000
00030000
00020000
ENDCHAR
STARTCHAR 021B
ENCODING 539
SWIDTH 378 0
DWIDTH 21 0
BBX 18 49 1 -14
BITMAP
020000
020000
020000
020000
020000
020000
FFFF80
020000
020000
020000
020000
020000
020000
020000
020000
020000
020000
020000
020000
020000
020000
020000
020000
020000
020000
020000
020000
020000
020000
020000
020000
030000
010040
00C0C0
007F00
000000
000000
000000
000000
000000
000000
000000
001C00
001C00
000C00
000800
000800
000800
001800
ENDCHAR
STARTCHAR 021E
ENCODING 542
SWIDTH 810 0
DWIDTH 45 0
BBX 31 48 7 0
BITMAP
00400600
00200C00
00181000
000C6000
0006C000
00038000
00000000
00000000
00000000
C0000002
C0000002
C0000002
C0000002
C0000002
C0000002
C0000002
C0000002
C0000002
C0000002
C0000002
C0000002
C0000002
C0000002
C0000002
C0000002
C0000002
C0000002
C0000002
FFFFFFFE
C0000002
C0000002
C0000002
C0000002
C0000002
C0000002
C0000002
C0000002
C0000002
C0000002
C0000002
C0000002
C0000002
C0000002
C0000002
C0000002
C0000002
C0000002
C0000002
ENDCHAR
STARTCHAR 021F
ENCODING 543
SWIDTH 666 0
DWIDTH 37 0
BBX 31 52 0 0
BITMAP
C00C0000
60180000
30200000
08400000
07800000
03000000
00000000
00000000
00000000
00000000
00000000
03000000
03000000
03000000
03000000
03000000
03000000
03000000
03000000
03000000
03000000
03000000
03000000
0300FE00
030701C0
030C0060
03300010
03600008
0340000C
03800004
03800004
03000002
03000002
03000002
03000002
03000002
03000002
03000002
03000002
03000002
03000002
03000002
03000002
03000002
03000002
03000002
03000002
03000002
03000002
03000002
03000002
03000002
ENDCHAR
STARTCHAR 022A
ENCODING 554
SWIDTH 828 0
DWIDTH 46 0
BBX 40 51 3 0
BITMAP
0007FFF000
0000000000
0000000000
0000000000
000100C000
000381C000
000180C000
0000000000
0000000000
0000000000
0000000000
0000000000
0001FF8000
000F007000
0038000C00
00C0000300
0180000180
0300000040
0600000020
0C00000010
0800000008
100000000C
3000000004
2000000006
6000000002
4000000002
4000000003
4000000001
C000000001
8000000001
8000000001
8000000001
8000000001
8000000001
C000000001
4000000001
4000000003
4000000002
6000000002
2000000006
3000000004
100000000C
1800000008
0C00000010
0400000020
0300000060
0180000080
00C0000300
0030000E00
000E007800
0001FFC000
ENDCHAR
STARTCHAR 022B
ENCODING 555
SWIDTH 594 0
DWIDTH 33 0
BBX 28 43 3 0
BITMAP
03FFFC00
00000000
00000000
00000000
00402000
00E07000
00E07000
00000000
00000000
00000000
00000000
00000000
00000000
00000000
001F8000
00E07000
03000C00
04000600
08000100
10000080
200000C0
20000040
40000020
40000020
C0000020
80000030
80000010
80000010
80000010
80000010
80000010
80000010
C0000020
40000020
40000020
60000040
20000040
10000080
18000100
0C000200
03000C00
01C03800
007FE000
ENDCHAR
STARTCHAR 022C
ENCODING 556
SWIDTH 828 0
DWIDTH 46 0
BBX 40 51 3 0
BITMAP
0007FFF000
0000000000
0000000000
0000000000
0001E01000
0002302000
00040C2000
000407C000
0000000000
0000000000
0000000000
0000000000
0001FF8000
000F007000
0038000C00
00C0000300
0180000180
0300000040
0600000020
0C00000010
0800000008
100000000C
3000000004
2000000006
6000000002
4000000002
4000000003
4000000001
C000000001
8000000001
8000000001
8000000001
8000000001
8000000001
C000000001
4000000001
4000000003
4000000002
6000000002
2000000006
3000000004
100000000C
1800000008
0C00000010
0400000020
0300000060
0180000080
00C0000300
0030000E00
000E007800
0001FFC000
ENDCHAR
STARTCHAR 022D
ENCODING 557
SWIDTH 594 0
DWIDTH 33 0
BBX 28 43 3 0
BITMAP
03FFFC00
00000000
00000000
00000000
00200000
00DC0800
01060800
0101F000
00000000
00000000
00000000
00000000
00000000
00000000
001F8000
00E07000
03000C00
04000600
08000100
10000080
200000C0
20000040
40000020
40000020
C0000020
80000030
80000010
80000010
80000010
80000010
80000010
80000010
C0000020
40000020
40000020
60000040
20000040
10000080
18000100
0C000200
03000C00
01C03800
007FE000
ENDCHAR
STARTCHAR 0230
ENCODING 560
SWIDTH 828 0
DWIDTH 46 0
BBX 40 51 3 0
BITMAP
0007FFF000
0000000000
0000000000
0000000000
0000180000
00001C0000
0000180000
0000000000
0000000000
0000000000
0000000000
0000000000
0001FF8000
000F007000
0038000C00
00C0000300
0180000180
0300000040
0600000020
0C00000010
0800000008
100000000C
3000000004
2000000006
6000000002
4000000002
4000000003
4000000001
C000000001
8000000001
8000000001
8000000001
8000000001
8000000001
C000000001
4000000001
4000000003
4000000002
6000000002
2000000006
3000000004
100000000C
1800000008
0C00000010
0400000020
0300000060
0180000080
00C0000300
0030000E00
000E007800
0001FFC000
ENDCHAR
STARTCHAR 0231
ENCODING 561
SWIDTH 594 0
DWIDTH 33 0
BBX 28 43 3 0
BITMAP
03FFFC00
00000000
00000000
00000000
00000000
00060000
00060000
00000000
00000000
00000000
00000000
00000000
00000000
00000000
001F8000
00E07000
03000C00
04000600
08000100
10000080
200000C0
20000040
40000020
40000020
C0000020
80000030
80000010
80000010
80000010
80000010
80000010
80000010
C0000020
40000020
40000020
60000040
20000040
10000080
18000100
0C000200
03000C00
01C03800
007FE000
ENDCHAR
STARTCHAR 0232
ENCODING 562
SWIDTH 594 0
DWIDTH 33 0
BBX 32 46 1 0
BITMAP
00FFFF00
00000000
00000000
00000000
00000000
00000000
00000000
80000001
C0000003
40000002
20000004
3000000C
10000008
18000010
08000030
04000020
06000060
02000040
01000080
01000180
00800100
00C00200
00400200
00200400
00300C00
00100800
00081000
00083000
00042000
00066000
00024000
00018000
00018000
00018000
00018000
00018000
00018000
00018000
00018000
00018000
00018000
00018000
00018000
00018000
00018000
00018000
ENDCHAR
STARTCHAR 0233
ENCODING 563
SWIDTH 504 0
DWIDTH 28 0
BBX 30 48 -2 -11
BITMAP
00FFFE00
00000000
00000000
00000000
00000000
00000000
00000000
00000000
3000000C
10000008
18000008
08000010
0C000010
04000030
04000020
02000060
02000040
010000C0
01000080
01800180
00800100
00C00100
00400200
00600200
00200400
00200400
00100C00
00100800
00081800
00081000
00043000
00042000
00062000
00024000
00034000
00018000
00018000
00018000
00010000
00030000
00020000
00060000
00040000
000C0000
00080000
C0100000
30600000
0F800000
ENDCHAR
STARTCHAR 0237
ENCODING 567
SWIDTH 252 0
DWIDTH 14 0
BBX 12 40 -4 -11
BITMAP
0010
0010
0010
0010
0010
0010
0010
0010
0010
0010
0010
0010
0010
0010
0010
0010
0010
0010
0010
0010
0010
0010
0010
0010
0010
0010
0010
0010
0010
0010
0010
0010
0010
0010
0030
0020
0020
0040
E1C0
3F00
ENDCHAR
STARTCHAR 0259
ENCODING 601
SWIDTH 576 0
DWIDTH 32 0
BBX 27 29 3 0
BITMAP
007F0000
0381E000
0C003800
18000C00
20000600
20000300
00000100
00000080
00000080
00000040
00000040
00000040
00000040
00000020
00000020
FFFFFFE0
80000060
80000040
80000040
40000040
400000C0
60000080
20000180
30000100
18000200
0C000400
06001800
01807000
007FC000
ENDCHAR
STARTCHAR 0292
ENCODING 658
SWIDTH 486 0
DWIDTH 27 0
BBX 26 40 -1 -11
BITMAP
7FFFFF00
00000100
00000200
00000600
00000C00
00000800
00001000
00003000
00006000
00004000
00008000
00018000
00030000
00020000
00040000
000C0000
00180000
00100000
003F8000
00007000
00000C00
00000600
00000300
00000100
00000080
00000080
00000080
000000C0
00000040
00000040
00000040
00000080
00000080
00000080
80000100
C0000300
20000600
18000C00
07807000
00FF8000
ENDCHAR
STARTCHAR 02B9
ENCODING 697
SWIDTH 180 0
DWIDTH 10 0
BBX 1 14 5 25
BITMAP
80
80
80
80
80
80
80
80
80
80
80
80
80
80
ENDCHAR
STARTCHAR 02BA
ENCODING 698
SWIDTH 324 0
DWIDTH 18 0
BBX 9 14 5 25
BITMAP
8080
8080
8080
8080
8080
8080
8080
8080
8080
8080
8080
8080
8080
8080
ENDCHAR
STARTCHAR 02BB
ENCODING 699
SWIDTH 252 0
DWIDTH 14 0
BBX 3 10 5 34
BITMAP
20
20
20
60
40
40
40
C0
E0
60
ENDCHAR
STARTCHAR 02BC
ENCODING 700
SWIDTH 180 0
DWIDTH 10 0
BBX 3 10 4 31
BITMAP
E0
E0
60
40
40
40
C0
80
80
80
ENDCHAR
STARTCHAR 02BE
ENCODING 702
SWIDTH 594 0
DWIDTH 33 0
BBX 5 10 17 33
BITMAP
C0
30
10
18
08
08
10
10
60
80
ENDCHAR
STARTCHAR 02BF
ENCODING 703
SWIDTH 594 0
DWIDTH 33 0
BBX 6 10 11 33
BITMAP
1C
20
40
40
C0
40
40
60
30
0C
ENDCHAR
STARTCHAR 02C6
ENCODING 710
SWIDTH 594 0
DWIDTH 33 0
BBX 14 6 10 34
BITMAP
0700
0D80
18C0
3020
6010
800C
ENDCHAR
STARTCHAR 02C7
ENCODING 711
SWIDTH 594 0
DWIDTH 33 0
BBX 15 6 9 34
BITMAP
C006
600C
1018
0830
0660
0380
ENDCHAR
STARTCHAR 02C8
ENCODING 712
SWIDTH 144 0
DWIDTH 8 0
BBX 1 10 4 29
BITMAP
80
80
80
80
80
80
80
80
80
80
ENDCHAR
STARTCHAR 02C9
ENCODING 713
SWIDTH 594 0
DWIDTH 33 0
BBX 15 1 9 36
BITMAP
FFFE
ENDCHAR
STARTCHAR 02CA
ENCODING 714
SWIDTH 594 0
DWIDTH 33 0
BBX 9 6 15 34
BITMAP
0180
0600
0C00
1800
6000
C000
ENDCHAR
STARTCHAR 02CB
ENCODING 715
SWIDTH 594 0
DWIDTH 33 0
BBX 9 6 10 34
BITMAP
C000
6000
3000
0C00
0600
0380
ENDCHAR
STARTCHAR 02CC
ENCODING 716
SWIDTH 144 0
DWIDTH 8 0
BBX 1 10 4 -12
BITMAP
80
80
80
80
80
80
80
80
80
80
ENDCHAR
STARTCHAR 02D8
ENCODING 728
SWIDTH 594 0
DWIDTH 33 0
BBX 15 6 9 34
BITMAP
8002
C002
4006
6004
3018
0FF0
ENDCHAR
STARTCHAR 02D9
ENCODING 729
SWIDTH 594 0
DWIDTH 33 0
BBX 3 2 15 37
BITMAP
E0
E0
ENDCHAR
STARTCHAR 02DA
ENCODING 730
SWIDTH 594 0
DWIDTH 33 0
BBX 11 10 11 33
BITMAP
1F00
20C0
4040
4060
C020
4020
4040
6040
3180
0E00
ENDCHAR
STARTCHAR 02DB
ENCODING 731
SWIDTH 594 0
DWIDTH 33 0
BBX 9 13 9 -12
BITMAP
0200
0E00
1800
2000
4000
8000
8000
8000
8000
8000
8000
6380
1E00
ENDCHAR
STARTCHAR 02DC
ENCODING 732
SWIDTH 594 0
DWIDTH 33 0
BBX 15 5 9 34
BITMAP
3E02
4302
C186
80FC
8030
ENDCHAR
STARTCHAR 02DD
ENCODING 733
SWIDTH 594 0
DWIDTH 33 0
BBX 14 6 13 34
BITMAP
0604
0C08
1810
3020
4040
8180
ENDCHAR
STARTCHAR 0300
ENCODING 768
SWIDTH 0 0
DWIDTH 0 0
BBX 9 6 10 34
BITMAP
C000
6000
3000
0C00
0600
0380
ENDCHAR
STARTCHAR 0301
ENCODING 769
SWIDTH 0 0
DWIDTH 0 0
BBX 9 6 15 34
BITMAP
0180
0600
0C00
1800
6000
C000
ENDCHAR
STARTCHAR 0302
ENCODING 770
SWIDTH 0 0
DWIDTH 0 0
BBX 14 6 10 34
BITMAP
0700
0D80
18C0
3020
6010
800C
ENDCHAR
STARTCHAR 0303
ENCODING 771
SWIDTH 0 0
DWIDTH 0 0
BBX 15 5 9 34
BITMAP
3E02
4302
C186
80FC
8030
ENDCHAR
STARTCHAR 0304
ENCODING 772
SWIDTH 0 0
DWIDTH 0 0
BBX 15 1 9 36
BITMAP
FFFE
ENDCHAR
STARTCHAR 0306
ENCODING 774
SWIDTH 0 0
DWIDTH 0 0
BBX 15 6 9 34
BITMAP
8002
C002
4006
6004
3018
0FF0
ENDCHAR
STARTCHAR 0307
ENCODING 775
SWIDTH 0 0
DWIDTH 0 0
BBX 3 2 15 37
BITMAP
E0
E0
ENDCHAR
STARTCHAR 0308
ENCODING 776
SWIDTH 0 0
DWIDTH 0 0
BBX 12 2 11 37
BITMAP
C070
C070
ENDCHAR
STARTCHAR 0309
ENCODING 777
SWIDTH 0 0
DWIDTH 0 0
BBX 8 9 13 33
BITMAP
38
C6
02
01
01
01
02
06
18
ENDCHAR
STARTCHAR 030A
ENCODING 778
SWIDTH 0 0
DWIDTH 0 0
BBX 11 10 11 33
BITMAP
1F00
20C0
4040
4060
C020
4020
4040
6040
3180
0E00
ENDCHAR
STARTCHAR 030B
ENCODING 779
SWIDTH 0 0
DWIDTH 0 0
BBX 14 6 13 34
BITMAP
0604
0C08
1810
3020
4040
8180
ENDCHAR
STARTCHAR 030C
ENCODING 780
SWIDTH 0 0
DWIDTH 0 0
BBX 15 6 9 34
BITMAP
C006
600C
1018
0830
0660
0380
ENDCHAR
STARTCHAR 030F
ENCODING 783
SWIDTH 0 0
DWIDTH 0 0
BBX 15 6 6 34
BITMAP
C080
6040
3020
1810
0C08
0606
ENDCHAR
STARTCHAR 0311
ENCODING 785
SWIDTH 0 0
DWIDTH 0 0
BBX 15 6 9 34
BITMAP
07E0
1838
200C
4004
4002
8002
ENDCHAR
STARTCHAR 0312
ENCODING 786
SWIDTH 0 0
DWIDTH 0 0
BBX 3 8 15 34
BITMAP
20
20
60
40
40
C0
E0
E0
ENDCHAR
STARTCHAR 031B
ENCODING 795
SWIDTH 0 0
DWIDTH 0 0
BBX 6 9 16 28
BITMAP
08
08
08
0C
04
0C
08
18
F0
ENDCHAR
STARTCHAR 0323
ENCODING 803
SWIDTH 0 0
DWIDTH 0 0
BBX 3 3 15 -10
BITMAP
60
E0
40
ENDCHAR
STARTCHAR 0324
ENCODING 804
SWIDTH 0 0
DWIDTH 0 0
BBX 11 3 11 -10
BITMAP
E060
E0E0
4060
ENDCHAR
STARTCHAR 0326
ENCODING 806
SWIDTH 0 0
DWIDTH 0 0
BBX 3 7 15 -14
BITMAP
E0
E0
60
60
40
40
40
ENDCHAR
STARTCHAR 0327
ENCODING 807
SWIDTH 0 0
DWIDTH 0 0
BBX 9 12 12 -12
BITMAP
0800
0800
1000
1C00
0300
0100
0080
0080
0080
0100
C700
3C00
ENDCHAR
STARTCHAR 0328
ENCODING 808
SWIDTH 0 0
DWIDTH 0 0
BBX 9 13 9 -12
BITMAP
0200
0E00
1800
2000
4000
8000
8000
8000
8000
8000
8000
6380
1E00
ENDCHAR
STARTCHAR 032E
ENCODING 814
SWIDTH 0 0
DWIDTH 0 0
BBX 15 6 9 -11
BITMAP
8002
4002
4004
200C
1838
07E0
ENDCHAR
STARTCHAR 0331
ENCODING 817
SWIDTH 0 0
DWIDTH 0 0
BBX 15 1 9 -9
BITMAP
FFFE
ENDCHAR
STARTCHAR 0335
ENCODING 821
SWIDTH 0 0
DWIDTH 0 0
BBX 21 1 6 24
BITMAP
FFFFF8
ENDCHAR
STARTCHAR 0336
ENCODING 822
SWIDTH 0 0
DWIDTH 0 0
BBX 43 1 1 24
BITMAP
FFFFFFFFFFE0
ENDCHAR
STARTCHAR 0337
ENCODING 823
SWIDTH 0 0
DWIDTH 0 0
BBX 11 8 3 17
BITMAP
0060
00C0
0100
0600
0C00
1000
6000
C000
ENDCHAR
STARTCHAR 0338
ENCODING 824
SWIDTH 0 0
DWIDTH 0 0
BBX 26 37 4 -4
BITMAP
000000C0
00000080
00000100
00000300
00000200
00000400
00000C00
00000800
00001000
00003000
00002000
00004000
0000C000
00008000
00010000
00030000
00020000
00040000
000C0000
00080000
00100000
00300000
00200000
00400000
00800000
01800000
01000000
02000000
06000000
04000000
08000000
18000000
10000000
20000000
60000000
40000000
80000000
ENDCHAR
STARTCHAR 0394
ENCODING 916
SWIDTH 684 0
DWIDTH 38 0
BBX 37 39 1 0
BITMAP
0000600000
0000600000
0000D00000
0000900000
0000980000
0001080000
00010C0000
0002040000
0002060000
0004020000
0004030000
000C010000
0008010000
0018008000
0010008000
0030004000
0020004000
0060006000
0040002000
0040003000
0080001000
0080001800
0100000800
0100000C00
0200000400
0200000400
0600000200
0400000200
0C00000100
0800000100
1800000080
1000000080
10000000C0
2000000040
2000000060
4000000020
4000000030
8000000010
FFFFFFFFF8
ENDCHAR
STARTCHAR 03A9
ENCODING 937
SWIDTH 900 0
DWIDTH 50 0
BBX 49 39 1 0
BITMAP
00001FF8000000
0000F007000000
00038000C00000
00060000300000
00180000080000
00300000040000
00600000020000
00C00000010000
00800000008000
0100000000C000
03000000004000
02000000006000
02000000002000
04000000002000
04000000003000
04000000001000
04000000001000
0C000000001000
08000000001000
08000000001000
08000000001000
0C000000001000
04000000001000
04000000001000
04000000003000
04000000002000
06000000002000
02000000006000
03000000004000
0100000000C000
01800000008000
00800000018000
00400000030000
00200000060000
001000000C0000
00080000180000
00060000300000
00038000C00000
FFFF8001FFFF80
ENDCHAR
STARTCHAR 03BC
ENCODING 956
SWIDTH 666 0
DWIDTH 37 0
BBX 25 40 6 -11
BITMAP
C0000080
C0000080
C0000080
C0000080
C0000080
C0000080
C0000080
C0000080
C0000080
C0000080
C0000080
C0000080
C0000080
C0000080
C0000080
C0000080
C0000080
C0000080
C0000180
C0000180
C0000180
C0000180
C0000280
E0000280
F0000480
D0000880
CC003080
C700E080
C0FF8080
C0000000
C0000000
C0000000
C0000000
C0000000
C0000000
C0000000
C0000000
C0000000
C0000000
C0000000
ENDCHAR
STARTCHAR 03C0
ENCODING 960
SWIDTH 702 0
DWIDTH 39 0
BBX 40 29 0 0
BITMAP
01FFFFFFFF
0E02000800
3002000800
6006000800
4004000800
C004000800
8004000800
8004000800
8004000800
8004000800
8004000800
4004000800
400C000800
2008000800
0008000800
0008000800
0008000800
0008000800
0008000800
0008000800
0018000800
0010000800
0010000800
0010000800
0010000800
0010000800
0010000800
0010000800
0010000800
ENDCHAR
STARTCHAR 0400
ENCODING 1024
SWIDTH 630 0
DWIDTH 35 0
BBX 26 48 8 0
BITMAP
07000000
01800000
00C00000
00300000
00180000
000C0000
00000000
00000000
00000000
FFFFFF80
80000000
80000000
80000000
80000000
80000000
80000000
80000000
80000000
80000000
80000000
80000000
80000000
80000000
80000000
80000000
80000000
80000000
80000000
FFFFFC00
80000000
80000000
80000000
80000000
80000000
80000000
80000000
80000000
80000000
80000000
80000000
80000000
80000000
80000000
80000000
80000000
80000000
80000000
FFFFFFC0
ENDCHAR
STARTCHAR 0401
ENCODING 1025
SWIDTH 630 0
DWIDTH 35 0
BBX 26 47 8 0
BITMAP
0180C000
0381C000
0180C000
00000000
00000000
00000000
00000000
00000000
FFFFFF80
80000000
80000000
80000000
80000000
80000000
80000000
80000000
80000000
80000000
80000000
80000000
80000000
80000000
80000000
80000000
80000000
80000000
80000000
FFFFFC00
80000000
80000000
80000000
80000000
80000000
80000000
80000000
80000000
80000000
80000000
80000000
80000000
80000000
80000000
80000000
80000000
80000000
80000000
FFFFFFC0
ENDCHAR
STARTCHAR 0402
ENCODING 1026
SWIDTH 810 0
DWIDTH 45 0
BBX 42 39 0 0
BITMAP
FFFFFFFE0000
000100000000
000100000000
000100000000
000100000000
000100000000
000100000000
000100000000
000100000000
000100000000
000100000000
000100000000
000100000000
000100000000
000100000000
000100000000
000100FFC000
00010F807800
000138000C00
0001C0000200
000100000100
000100000180
000100000080
0001000000C0
000100000040
000100000040
000100000040
000100000040
000100000040
000100000040
000100000040
0001000000C0
000100000080
000100000080
000100000100
000100000200
000100000C00
000100003800
0001007FC000
ENDCHAR
STARTCHAR 0403
ENCODING 1027
SWIDTH 558 0
DWIDTH 31 0
BBX 23 48 8 0
BITMAP
0001C0
000300
000600
001800
003000
006000
000000
000000
000000
FFFFFE
800000
800000
800000
800000
800000
800000
800000
800000
800000
800000
800000
800000
800000
800000
800000
800000
800000
800000
800000
800000
800000
800000
800000
800000
800000
800000
800000
800000
800000
800000
800000
800000
800000
800000
800000
800000
800000
800000
ENDCHAR
STARTCHAR 0404
ENCODING 1028
SWIDTH 702 0
DWIDTH 39 0
BBX 32 39 4 0
BITMAP
0003FF00
001E00E0
00700018
00C00006
03000001
06000000
0C000000
08000000
10000000
30000000
20000000
60000000
40000000
40000000
C0000000
80000000
80000000
80000000
80000000
FFFFFF00
FFFFFF00
80000000
80000000
80000000
C0000000
40000000
40000000
60000000
20000000
30000000
10000000
08000000
0C000000
06000000
03000001
00C00006
0060001C
001C00F0
0003FF80
ENDCHAR
STARTCHAR 0405
ENCODING 1029
SWIDTH 594 0
DWIDTH 33 0
BBX 26 39 4 0
BITMAP
007FC000
03803800
0C000600
18000180
30000000
20000000
40000000
40000000
40000000
40000000
40000000
40000000
40000000
40000000
20000000
10000000
0C000000
07000000
01E00000
001E0000
0001E000
00003800
00000600
00000300
00000080
000000C0
00000040
00000040
00000040
00000040
00000040
00000040
00000040
80000080
C0000180
60000300
18000600
07003800
00FFE000
ENDCHAR
STARTCHAR 0406
ENCODING 1030
SWIDTH 288 0
DWIDTH 16 0
BBX 1 39 8 0
BITMAP
80
80
80
80
80
80
80
80
80
80
80
80
80
80
80
80
80
80
80
80
80
80
80
80
80
80
80
80
80
80
80
80
80
80
80
80
80
80
80
ENDCHAR
STARTCHAR 0407
ENCODING 1031
SWIDTH 270 0
DWIDTH 15 0
BBX 12 47 2 0
BITMAP
4020
E070
C070
0000
0000
0000
0000
0000
0600
0600
0600
0600
0600
0600
0600
0600
0600
0600
0600
0600
0600
0600
0600
0600
0600
0600
0600
0600
0600
0600
0600
0600
0600
0600
0600
0600
0600
0600
0600
0600
0600
0600
0600
0600
0600
0600
0600
ENDCHAR
STARTCHAR 0408
ENCODING 1032
SWIDTH 486 0
DWIDTH 27 0
BBX 19 39 2 0
BITMAP
1FFFE0
000020
000020
000020
000020
000020
000020
000020
000020
000020
000020
000020
000020
000020
000020
000020
000020
000020
000020
000020
000020
000020
000020
000020
000020
000020
000020
000020
000020
000020
000060
000040
000040
800040
8000C0
400080
300100
1C0600
07F800
ENDCHAR
STARTCHAR 0409
ENCODING 1033
SWIDTH 1170 0
DWIDTH 65 0
BBX 63 39 0 0
BITMAP
001FFFFFE0000000
0010000020000000
0010000020000000
0010000020000000
0010000020000000
0010000020000000
0010000020000000
0010000020000000
0010000020000000
0010000020000000
0010000020000000
0010000020000000
0010000020000000
0010000020000000
0010000020000000
001000003FFFFE00
0010000020000380
0010000020000060
0010000020000030
0030000020000018
003000002000000C
0030000020000004
0020000020000004
0020000020000006
0020000020000002
0020000020000002
0020000020000002
0020000020000002
0020000020000002
0060000020000002
0040000020000004
0040000020000004
0040000020000004
0080000020000008
0080000020000018
0100000020000030
03000000200000C0
0600000020000780
FC0000003FFFF800
ENDCHAR
STARTCHAR 040A
ENCODING 1034
SWIDTH 1188 0
DWIDTH 66 0
BBX 56 39 8 0
BITMAP
80000008000000
80000008000000
80000008000000
80000008000000
80000008000000
80000008000000
80000008000000
80000008000000
80000008000000
80000008000000
80000008000000
80000008000000
80000008000000
80000008000000
80000008000000
80000008000000
80000008000000
FFFFFFFFFFFE00
800000080001C0
80000008000030
80000008000018
8000000800000C
80000008000004
80000008000002
80000008000002
80000008000002
80000008000003
80000008000003
80000008000003
80000008000003
80000008000002
80000008000002
80000008000006
80000008000004
8000000800000C
80000008000018
80000008000060
800000080001C0
8000000FFFFE00
ENDCHAR
STARTCHAR 040B
ENCODING 1035
SWIDTH 810 0
DWIDTH 45 0
BBX 42 39 0 0
BITMAP
FFFFFFFE0000
000100000000
000100000000
000100000000
000100000000
000100000000
000100000000
000100000000
000100000000
000100000000
000100000000
000100000000
000100000000
000100000000
000100000000
000100000000
000100FFC000
00010F003800
000130000C00
0001C0000200
000100000100
000100000180
000100000080
0001000000C0
000100000040
000100000040
000100000040
000100000040
000100000040
000100000040
000100000040
000100000040
000100000040
000100000040
000100000040
000100000040
000100000040
000100000040
000100000040
ENDCHAR
STARTCHAR 040C
ENCODING 1036
SWIDTH 684 0
DWIDTH 38 0
BBX 28 48 8 0
BITMAP
0001C000
00030000
00060000
00180000
00300000
00600000
00000000
00000000
00000000
80000020
80000040
80000080
80000180
80000300
80000200
80000400
80000800
80001800
80003000
80006000
80004000
80008000
80010000
80030000
80060000
80040000
80080000
80100000
FFF00000
80180000
800C0000
80060000
80020000
80010000
80008000
80004000
80006000
80003000
80001800
80000800
80000400
80000200
80000300
80000180
800000C0
80000040
80000020
80000010
ENDCHAR
STARTCHAR 040D
ENCODING 1037
SWIDTH 810 0
DWIDTH 45 0
BBX 30 48 8 0
BITMAP
00C00000
00300000
00180000
000C0000
00020000
00018000
00000000
00000000
00000000
80000004
8000000C
8000000C
80000014
80000024
80000064
800000C4
80000084
80000104
80000304
80000604
80000404
80000804
80001004
80003004
80006004
80004004
80008004
80010004
80030004
80020004
80040004
80080004
80180004
80300004
80200004
80400004
80800004
81800004
83000004
82000004
84000004
8C000004
98000004
90000004
A0000004
C0000004
C0000004
80000004
ENDCHAR
STARTCHAR 040E
ENCODING 1038
SWIDTH 648 0
DWIDTH 36 0
BBX 33 48 2 0
BITMAP
0080030000
0080020000
00C0020000
0060040000
0038180000
000FE00000
0000000000
0000000000
0000000000
8000000080
C000000180
4000000100
6000000300
2000000200
3000000600
1000000400
1800000800
0800000800
0400001000
0400001000
0200002000
0200002000
0100004000
0100004000
0080008000
0080018000
0040010000
0060020000
0020020000
0030040000
0010040000
0018080000
0008080000
000C100000
0004100000
0006200000
0002200000
0001400000
0001800000
0000800000
0001000000
0001000000
0002000000
0006000000
0004000000
0008000000
0030000000
0FC0000000
ENDCHAR
STARTCHAR 040F
ENCODING 1039
SWIDTH 792 0
DWIDTH 44 0
BBX 29 49 8 -10
BITMAP
80000008
80000008
80000008
80000008
80000008
80000008
80000008
80000008
80000008
80000008
80000008
80000008
80000008
80000008
80000008
80000008
80000008
80000008
80000008
80000008
80000008
80000008
80000008
80000008
80000008
80000008
80000008
80000008
80000008
80000008
80000008
80000008
80000008
80000008
80000008
80000008
80000008
80000008
FFFFFFF8
00020000
00020000
00020000
00020000
00020000
00020000
00020000
00020000
00020000
00020000
ENDCHAR
STARTCHAR 0410
ENCODING 1040
SWIDTH 702 0
DWIDTH 39 0
BBX 36 39 2 0
BITMAP
0000600000
0000600000
0000B00000
0000900000
0001980000
0001080000
0003080000
0002040000
0006040000
0004020000
0004020000
0008030000
0008010000
0010018000
0010008000
002000C000
0020004000
0060006000
0040002000
00C0002000
0080001000
0180001000
0100000800
0300000800
0200000C00
0200000400
07FFFFFE00
0400000200
0800000300
0800000100
1800000180
1000000080
30000000C0
2000000040
6000000040
4000000020
C000000020
8000000010
8000000010
ENDCHAR
STARTCHAR 0411
ENCODING 1041
SWIDTH 702 0
DWIDTH 39 0
BBX 28 39 8 0
BITMAP
FFFFFFC0
80000000
80000000
80000000
80000000
80000000
80000000
80000000
80000000
80000000
80000000
80000000
80000000
80000000
80000000
80000000
80000000
FFFFF000
80001E00
80000380
800000C0
80000060
80000020
80000030
80000010
80000010
80000010
80000010
80000010
80000010
80000010
80000010
80000030
80000020
80000040
80000080
80000300
80001C00
FFFFE000
ENDCHAR
STARTCHAR 0412
ENCODING 1042
SWIDTH 738 0
DWIDTH 41 0
BBX 29 39 8 0
BITMAP
FFFFE000
80003C00
80000300
80000180
800000C0
80000040
80000060
80000020
80000020
80000020
80000020
80000020
80000020
80000060
80000040
800000C0
80000180
80000600
80003C00
FFFFFC00
80000380
800000C0
80000020
80000010
80000010
80000008
80000008
80000008
80000008
80000008
80000008
80000008
80000018
80000010
80000030
80000060
800000C0
80000F00
FFFFF800
ENDCHAR
STARTCHAR 0413
ENCODING 1043
SWIDTH 558 0
DWIDTH 31 0
BBX 23 39 8 0
BITMAP
FFFFFE
800000
800000
800000
800000
800000
800000
800000
800000
800000
800000
800000
800000
800000
800000
800000
800000
800000
800000
800000
800000
800000
800000
800000
800000
800000
800000
800000
800000
800000
800000
800000
800000
800000
800000
800000
800000
800000
800000
ENDCHAR
STARTCHAR 0414
ENCODING 1044
SWIDTH 774 0
DWIDTH 43 0
BBX 41 48 0 -9
BITMAP
003FFFFFE000
003000006000
003000006000
003000006000
003000006000
002000006000
002000006000
002000006000
002000006000
002000006000
002000006000
002000006000
002000006000
002000006000
002000006000
002000006000
002000006000
002000006000
002000006000
002000006000
002000006000
002000006000
002000006000
006000006000
004000006000
004000006000
004000006000
004000006000
004000006000
004000006000
008000006000
008000006000
008000006000
018000006000
010000006000
030000006000
020000006000
0C0000006000
FFFFFFFFFF80
C00000000180
C00000000180
C00000000180
C00000000180
C00000000180
C00000000180
C00000000180
C00000000180
C00000000180
ENDCHAR
STARTCHAR 0415
ENCODING 1045
SWIDTH 630 0
DWIDTH 35 0
BBX 26 39 8 0
BITMAP
FFFFFF80
80000000
80000000
80000000
80000000
80000000
80000000
80000000
80000000
80000000
80000000
80000000
80000000
80000000
80000000
80000000
80000000
80000000
80000000
FFFFFC00
80000000
80000000
80000000
80000000
80000000
80000000
80000000
80000000
80000000
80000000
80000000
80000000
80000000
80000000
80000000
80000000
80000000
80000000
FFFFFFC0
ENDCHAR
STARTCHAR 0416
ENCODING 1046
SWIDTH 972 0
DWIDTH 54 0
BBX 50 39 2 0
BITMAP
600000C0000180
200000C0000100
100000C0000200
180000C0000600
080000C0000400
040000C0000800
060000C0001800
030000C0001000
010000C0002000
008000C0006000
00C000C000C000
004000C0008000
002000C0010000
003000C0030000
001000C0020000
000800C0040000
000C00C00C0000
000600C0080000
000200C0100000
0003FFFFF00000
000600C0180000
000400C00C0000
000800C0040000
001800C0020000
003000C0030000
002000C0010000
004000C0008000
00C000C0004000
018000C0006000
010000C0002000
020000C0001000
060000C0001800
040000C0000C00
080000C0000400
100000C0000200
300000C0000300
200000C0000180
400000C0000080
C00000C0000040
ENDCHAR
STARTCHAR 0417
ENCODING 1047
SWIDTH 612 0
DWIDTH 34 0
BBX 28 39 2 0
BITMAP
007FC000
03803800
1C000E00
30000300
00000180
00000080
00000040
00000040
00000040
00000040
00000040
00000040
00000040
00000040
00000080
00000100
00000200
00000C00
01FFE000
00003C00
00000300
00000080
00000040
00000020
00000020
00000010
00000010
00000010
00000010
00000010
00000010
00000020
00000020
C0000040
600000C0
30000180
0C000600
03801C00
007FE000
ENDCHAR
STARTCHAR 0418
ENCODING 1048
SWIDTH 810 0
DWIDTH 45 0
BBX 30 39 8 0
BITMAP
80000004
8000000C
8000000C
80000014
80000024
80000064
800000C4
80000084
80000104
80000304
80000604
80000404
80000804
80001004
80003004
80006004
80004004
80008004
80010004
80030004
80020004
80040004
80080004
80180004
80300004
80200004
80400004
80800004
81800004
83000004
82000004
84000004
8C000004
98000004
90000004
A0000004
C0000004
C0000004
80000004
ENDCHAR
STARTCHAR 0419
ENCODING 1049
SWIDTH 810 0
DWIDTH 45 0
BBX 30 48 8 0
BITMAP
01000200
01000400
01800400
00C00800
00703000
001FC000
00000000
00000000
00000000
80000004
8000000C
8000000C
80000014
80000024
80000064
800000C4
80000084
80000104
80000304
80000604
80000404
80000804
80001004
80003004
80006004
80004004
80008004
80010004
80030004
80020004
80040004
80080004
80180004
80300004
80200004
80400004
80800004
81800004
83000004
82000004
84000004
8C000004
98000004
90000004
A0000004
C0000004
C0000004
80000004
ENDCHAR
STARTCHAR 041A
ENCODING 1050
SWIDTH 684 0
DWIDTH 38 0
BBX 28 39 8 0
BITMAP
80000020
80000040
80000080
80000180
80000300
80000200
80000400
80000800
80001800
80003000
80006000
80004000
80008000
80010000
80030000
80060000
80040000
80080000
80100000
FFF00000
80180000
800C0000
80060000
80020000
80010000
80008000
80004000
80006000
80003000
80001800
80000800
80000400
80000200
80000300
80000180
800000C0
80000040
80000020
80000010
ENDCHAR
STARTCHAR 041B
ENCODING 1051
SWIDTH 774 0
DWIDTH 43 0
BBX 35 39 0 0
BITMAP
001FFFFFE0
0010000020
0010000020
0010000020
0010000020
0010000020
0010000020
0010000020
0010000020
0010000020
0010000020
0010000020
0010000020
0010000020
0010000020
0010000020
0010000020
0010000020
0010000020
0030000020
0030000020
0030000020
0020000020
0020000020
0020000020
0020000020
0020000020
0020000020
0020000020
0060000020
0040000020
0040000020
0040000020
0080000020
0080000020
0100000020
0300000020
0600000020
FC00000020
ENDCHAR
STARTCHAR 041C
ENCODING 1052
SWIDTH 954 0
DWIDTH 53 0
BBX 38 39 8 0
BITMAP
8000000004
800000000C
C00000000C
C000000014
A000000034
B000000024
9000000064
8800000044
8800000084
8400000084
8600000104
8200000304
8300000204
8100000604
8080000404
8080000804
8040000804
8060001004
8020003004
8030002004
8010006004
8008004004
8008008004
8004008004
8006010004
8002010004
8003020004
8001060004
8000840004
8000880004
8000480004
8000700004
8000300004
8000200004
8000000004
8000000004
8000000004
8000000004
8000000004
ENDCHAR
STARTCHAR 041D
ENCODING 1053
SWIDTH 810 0
DWIDTH 45 0
BBX 30 39 8 0
BITMAP
80000004
80000004
80000004
80000004
80000004
80000004
80000004
80000004
80000004
80000004
80000004
80000004
80000004
80000004
80000004
80000004
80000004
80000004
80000004
FFFFFFFC
80000004
80000004
80000004
80000004
80000004
80000004
80000004
80000004
80000004
80000004
80000004
80000004
80000004
80000004
80000004
80000004
80000004
80000004
80000004
ENDCHAR
STARTCHAR 041E
ENCODING 1054
SWIDTH 846 0
DWIDTH 47 0
BBX 40 39 4 0
BITMAP
0001FF8000
000E00F000
0030001C00
00C0000300
0100000180
02000000C0
0400000060
0800000030
1000000010
3000000008
200000000C
6000000004
4000000006
4000000002
C000000002
8000000002
8000000003
8000000001
8000000001
8000000001
8000000001
8000000001
8000000003
8000000002
C000000002
4000000002
4000000006
6000000004
200000000C
3000000008
1000000018
0800000030
0400000020
06000000C0
0100000180
00C0000300
0070000C00
001E007000
0003FF8000
ENDCHAR
STARTCHAR 041F
ENCODING 1055
SWIDTH 828 0
DWIDTH 46 0
BBX 31 39 8 0
BITMAP
FFFFFFFE
80000002
80000002
80000002
80000002
80000002
80000002
80000002
80000002
80000002
80000002
80000002
80000002
80000002
80000002
80000002
80000002
80000002
80000002
80000002
80000002
80000002
80000002
80000002
80000002
80000002
80000002
80000002
80000002
80000002
80000002
80000002
80000002
80000002
80000002
80000002
80000002
80000002
80000002
ENDCHAR
STARTCHAR 0420
ENCODING 1056
SWIDTH 684 0
DWIDTH 38 0
BBX 28 39 8 0
BITMAP
FFFF8000
80007800
80000E00
80000300
80000080
80000040
80000060
80000020
80000020
80000010
80000010
80000010
80000010
80000010
80000010
80000010
80000030
80000020
80000020
80000040
800000C0
80000180
80000300
80000C00
8001F000
FFFE0000
80000000
80000000
80000000
80000000
80000000
80000000
80000000
80000000
80000000
80000000
80000000
80000000
80000000
ENDCHAR
STARTCHAR 0421
ENCODING 1057
SWIDTH 702 0
DWIDTH 39 0
BBX 33 39 4 0
BITMAP
0001FF8000
000E00F000
0030000C00
00C0000200
0180000180
0200000000
0400000000
0800000000
1000000000
3000000000
2000000000
6000000000
4000000000
4000000000
C000000000
8000000000
8000000000
8000000000
8000000000
8000000000
8000000000
8000000000
8000000000
8000000000
C000000000
4000000000
4000000000
6000000000
2000000000
3000000000
1000000000
0800000000
0400000000
0600000000
0100000180
00C0000200
0070000C00
001E007000
0003FF8000
ENDCHAR
STARTCHAR 0422
ENCODING 1058
SWIDTH 540 0
DWIDTH 30 0
BBX 30 39 0 0
BITMAP
FFFFFFFC
00010000
00010000
00010000
00010000
00010000
00010000
00010000
00010000
00010000
00010000
00010000
00010000
00010000
00010000
00010000
00010000
00010000
00010000
00010000
00010000
00010000
00010000
00010000
00010000
00010000
00010000
00010000
00010000
00010000
00010000
00010000
00010000
00010000
00010000
00010000
00010000
00010000
00010000
ENDCHAR
STARTCHAR 0423
ENCODING 1059
SWIDTH 648 0
DWIDTH 36 0
BBX 33 39 2 0
BITMAP
8000000080
C000000180
4000000100
6000000300
2000000200
3000000600
1000000400
1800000800
0800000800
0400001000
0400001000
0200002000
0200002000
0100004000
0100004000
0080008000
0080018000
0040010000
0060020000
0020020000
0030040000
0010040000
0018080000
0008080000
000C100000
0004100000
0006200000
0002200000
0001400000
0001800000
0000800000
0001000000
0001000000
0002000000
0006000000
0004000000
0008000000
0030000000
0FC0000000
ENDCHAR
STARTCHAR 0424
ENCODING 1060
SWIDTH 882 0
DWIDTH 49 0
BBX 44 41 3 -1
BITMAP
000006000000
000006000000
000006000000
000006000000
0001FFF80000
001F060F0000
00700600E000
018006003800
030006000C00
040006000600
080006000100
100006000180
3000060000C0
200006000040
600006000040
400006000020
400006000020
400006000020
C00006000020
800006000030
800006000030
C00006000030
C00006000020
400006000020
400006000020
400006000020
600006000060
200006000040
3000060000C0
100006000080
080006000100
040006000200
030006000C00
018006001800
00600600E000
001E06078000
0003FFF80000
000006000000
000006000000
000006000000
000006000000
ENDCHAR
STARTCHAR 0425
ENCODING 1061
SWIDTH 612 0
DWIDTH 34 0
BBX 30 39 2 0
BITMAP
60000008
20000010
10000020
18000060
08000040
04000080
06000180
03000300
01000200
00800400
00C00C00
00400800
00201000
00303000
00186000
00084000
00048000
00078000
00030000
00030000
00048000
000CC000
00084000
00102000
00303000
00201800
00400800
00800400
01800600
01000200
02000100
06000180
0C0000C0
08000040
10000020
30000030
20000010
40000008
C0000004
ENDCHAR
STARTCHAR 0426
ENCODING 1062
SWIDTH 810 0
DWIDTH 45 0
BBX 36 49 8 -10
BITMAP
8000000800
8000000800
8000000800
8000000800
8000000800
8000000800
8000000800
8000000800
8000000800
8000000800
8000000800
8000000800
8000000800
8000000800
8000000800
8000000800
8000000800
8000000800
8000000800
8000000800
8000000800
8000000800
8000000800
8000000800
8000000800
8000000800
8000000800
8000000800
8000000800
8000000800
8000000800
8000000800
8000000800
8000000800
8000000800
8000000800
8000000800
8000000800
FFFFFFFFF0
0000000030
0000000030
0000000030
0000000030
0000000030
0000000030
0000000030
0000000030
0000000030
0000000030
ENDCHAR
ENDFONT
